# Generated by simulation/tools/generate_visual_meshes.py
# Visual mesh only; do not use as collision geometry.
o swarmroute_amr_shell
v 0.47000000 0.25000000 -0.14000000
v 0.46974307 0.25784838 -0.14000000
v 0.46897338 0.26566314 -0.14000000
v 0.46769423 0.27341084 -0.14000000
v 0.46591110 0.28105829 -0.14000000
v 0.46363162 0.28857274 -0.14000000
v 0.46086554 0.29592201 -0.14000000
v 0.45762473 0.30307464 -0.14000000
v 0.45392305 0.31000000 -0.14000000
v 0.44977635 0.31666843 -0.14000000
v 0.44520240 0.32305137 -0.14000000
v 0.44022078 0.32912150 -0.14000000
v 0.43485281 0.33485281 -0.14000000
v 0.42912150 0.34022078 -0.14000000
v 0.42305137 0.34520240 -0.14000000
v 0.41666843 0.34977635 -0.14000000
v 0.41000000 0.35392305 -0.14000000
v 0.40307464 0.35762473 -0.14000000
v 0.39592201 0.36086554 -0.14000000
v 0.38857274 0.36363162 -0.14000000
v 0.38105829 0.36591110 -0.14000000
v 0.37341084 0.36769423 -0.14000000
v 0.36566314 0.36897338 -0.14000000
v 0.35784838 0.36974307 -0.14000000
v 0.35000000 0.37000000 -0.14000000
v -0.35000000 0.37000000 -0.14000000
v -0.35784838 0.36974307 -0.14000000
v -0.36566314 0.36897338 -0.14000000
v -0.37341084 0.36769423 -0.14000000
v -0.38105829 0.36591110 -0.14000000
v -0.38857274 0.36363162 -0.14000000
v -0.39592201 0.36086554 -0.14000000
v -0.40307464 0.35762473 -0.14000000
v -0.41000000 0.35392305 -0.14000000
v -0.41666843 0.34977635 -0.14000000
v -0.42305137 0.34520240 -0.14000000
v -0.42912150 0.34022078 -0.14000000
v -0.43485281 0.33485281 -0.14000000
v -0.44022078 0.32912150 -0.14000000
v -0.44520240 0.32305137 -0.14000000
v -0.44977635 0.31666843 -0.14000000
v -0.45392305 0.31000000 -0.14000000
v -0.45762473 0.30307464 -0.14000000
v -0.46086554 0.29592201 -0.14000000
v -0.46363162 0.28857274 -0.14000000
v -0.46591110 0.28105829 -0.14000000
v -0.46769423 0.27341084 -0.14000000
v -0.46897338 0.26566314 -0.14000000
v -0.46974307 0.25784838 -0.14000000
v -0.47000000 0.25000000 -0.14000000
v -0.47000000 -0.25000000 -0.14000000
v -0.46974307 -0.25784838 -0.14000000
v -0.46897338 -0.26566314 -0.14000000
v -0.46769423 -0.27341084 -0.14000000
v -0.46591110 -0.28105829 -0.14000000
v -0.46363162 -0.28857274 -0.14000000
v -0.46086554 -0.29592201 -0.14000000
v -0.45762473 -0.30307464 -0.14000000
v -0.45392305 -0.31000000 -0.14000000
v -0.44977635 -0.31666843 -0.14000000
v -0.44520240 -0.32305137 -0.14000000
v -0.44022078 -0.32912150 -0.14000000
v -0.43485281 -0.33485281 -0.14000000
v -0.42912150 -0.34022078 -0.14000000
v -0.42305137 -0.34520240 -0.14000000
v -0.41666843 -0.34977635 -0.14000000
v -0.41000000 -0.35392305 -0.14000000
v -0.40307464 -0.35762473 -0.14000000
v -0.39592201 -0.36086554 -0.14000000
v -0.38857274 -0.36363162 -0.14000000
v -0.38105829 -0.36591110 -0.14000000
v -0.37341084 -0.36769423 -0.14000000
v -0.36566314 -0.36897338 -0.14000000
v -0.35784838 -0.36974307 -0.14000000
v -0.35000000 -0.37000000 -0.14000000
v 0.35000000 -0.37000000 -0.14000000
v 0.35784838 -0.36974307 -0.14000000
v 0.36566314 -0.36897338 -0.14000000
v 0.37341084 -0.36769423 -0.14000000
v 0.38105829 -0.36591110 -0.14000000
v 0.38857274 -0.36363162 -0.14000000
v 0.39592201 -0.36086554 -0.14000000
v 0.40307464 -0.35762473 -0.14000000
v 0.41000000 -0.35392305 -0.14000000
v 0.41666843 -0.34977635 -0.14000000
v 0.42305137 -0.34520240 -0.14000000
v 0.42912150 -0.34022078 -0.14000000
v 0.43485281 -0.33485281 -0.14000000
v 0.44022078 -0.32912150 -0.14000000
v 0.44520240 -0.32305137 -0.14000000
v 0.44977635 -0.31666843 -0.14000000
v 0.45392305 -0.31000000 -0.14000000
v 0.45762473 -0.30307464 -0.14000000
v 0.46086554 -0.29592201 -0.14000000
v 0.46363162 -0.28857274 -0.14000000
v 0.46591110 -0.28105829 -0.14000000
v 0.46769423 -0.27341084 -0.14000000
v 0.46897338 -0.26566314 -0.14000000
v 0.46974307 -0.25784838 -0.14000000
v 0.47000000 -0.25000000 -0.14000000
v 0.47000000 0.25000000 0.14000000
v 0.46974307 0.25784838 0.14000000
v 0.46897338 0.26566314 0.14000000
v 0.46769423 0.27341084 0.14000000
v 0.46591110 0.28105829 0.14000000
v 0.46363162 0.28857274 0.14000000
v 0.46086554 0.29592201 0.14000000
v 0.45762473 0.30307464 0.14000000
v 0.45392305 0.31000000 0.14000000
v 0.44977635 0.31666843 0.14000000
v 0.44520240 0.32305137 0.14000000
v 0.44022078 0.32912150 0.14000000
v 0.43485281 0.33485281 0.14000000
v 0.42912150 0.34022078 0.14000000
v 0.42305137 0.34520240 0.14000000
v 0.41666843 0.34977635 0.14000000
v 0.41000000 0.35392305 0.14000000
v 0.40307464 0.35762473 0.14000000
v 0.39592201 0.36086554 0.14000000
v 0.38857274 0.36363162 0.14000000
v 0.38105829 0.36591110 0.14000000
v 0.37341084 0.36769423 0.14000000
v 0.36566314 0.36897338 0.14000000
v 0.35784838 0.36974307 0.14000000
v 0.35000000 0.37000000 0.14000000
v -0.35000000 0.37000000 0.14000000
v -0.35784838 0.36974307 0.14000000
v -0.36566314 0.36897338 0.14000000
v -0.37341084 0.36769423 0.14000000
v -0.38105829 0.36591110 0.14000000
v -0.38857274 0.36363162 0.14000000
v -0.39592201 0.36086554 0.14000000
v -0.40307464 0.35762473 0.14000000
v -0.41000000 0.35392305 0.14000000
v -0.41666843 0.34977635 0.14000000
v -0.42305137 0.34520240 0.14000000
v -0.42912150 0.34022078 0.14000000
v -0.43485281 0.33485281 0.14000000
v -0.44022078 0.32912150 0.14000000
v -0.44520240 0.32305137 0.14000000
v -0.44977635 0.31666843 0.14000000
v -0.45392305 0.31000000 0.14000000
v -0.45762473 0.30307464 0.14000000
v -0.46086554 0.29592201 0.14000000
v -0.46363162 0.28857274 0.14000000
v -0.46591110 0.28105829 0.14000000
v -0.46769423 0.27341084 0.14000000
v -0.46897338 0.26566314 0.14000000
v -0.46974307 0.25784838 0.14000000
v -0.47000000 0.25000000 0.14000000
v -0.47000000 -0.25000000 0.14000000
v -0.46974307 -0.25784838 0.14000000
v -0.46897338 -0.26566314 0.14000000
v -0.46769423 -0.27341084 0.14000000
v -0.46591110 -0.28105829 0.14000000
v -0.46363162 -0.28857274 0.14000000
v -0.46086554 -0.29592201 0.14000000
v -0.45762473 -0.30307464 0.14000000
v -0.45392305 -0.31000000 0.14000000
v -0.44977635 -0.31666843 0.14000000
v -0.44520240 -0.32305137 0.14000000
v -0.44022078 -0.32912150 0.14000000
v -0.43485281 -0.33485281 0.14000000
v -0.42912150 -0.34022078 0.14000000
v -0.42305137 -0.34520240 0.14000000
v -0.41666843 -0.34977635 0.14000000
v -0.41000000 -0.35392305 0.14000000
v -0.40307464 -0.35762473 0.14000000
v -0.39592201 -0.36086554 0.14000000
v -0.38857274 -0.36363162 0.14000000
v -0.38105829 -0.36591110 0.14000000
v -0.37341084 -0.36769423 0.14000000
v -0.36566314 -0.36897338 0.14000000
v -0.35784838 -0.36974307 0.14000000
v -0.35000000 -0.37000000 0.14000000
v 0.35000000 -0.37000000 0.14000000
v 0.35784838 -0.36974307 0.14000000
v 0.36566314 -0.36897338 0.14000000
v 0.37341084 -0.36769423 0.14000000
v 0.38105829 -0.36591110 0.14000000
v 0.38857274 -0.36363162 0.14000000
v 0.39592201 -0.36086554 0.14000000
v 0.40307464 -0.35762473 0.14000000
v 0.41000000 -0.35392305 0.14000000
v 0.41666843 -0.34977635 0.14000000
v 0.42305137 -0.34520240 0.14000000
v 0.42912150 -0.34022078 0.14000000
v 0.43485281 -0.33485281 0.14000000
v 0.44022078 -0.32912150 0.14000000
v 0.44520240 -0.32305137 0.14000000
v 0.44977635 -0.31666843 0.14000000
v 0.45392305 -0.31000000 0.14000000
v 0.45762473 -0.30307464 0.14000000
v 0.46086554 -0.29592201 0.14000000
v 0.46363162 -0.28857274 0.14000000
v 0.46591110 -0.28105829 0.14000000
v 0.46769423 -0.27341084 0.14000000
v 0.46897338 -0.26566314 0.14000000
v 0.46974307 -0.25784838 0.14000000
v 0.47000000 -0.25000000 0.14000000
v 0.00000000 0.00000000 -0.14000000
v 0.00000000 0.00000000 0.14000000
s 1
f 1 2 102 101
f 201 2 1
f 202 101 102
f 2 3 103 102
f 201 3 2
f 202 102 103
f 3 4 104 103
f 201 4 3
f 202 103 104
f 4 5 105 104
f 201 5 4
f 202 104 105
f 5 6 106 105
f 201 6 5
f 202 105 106
f 6 7 107 106
f 201 7 6
f 202 106 107
f 7 8 108 107
f 201 8 7
f 202 107 108
f 8 9 109 108
f 201 9 8
f 202 108 109
f 9 10 110 109
f 201 10 9
f 202 109 110
f 10 11 111 110
f 201 11 10
f 202 110 111
f 11 12 112 111
f 201 12 11
f 202 111 112
f 12 13 113 112
f 201 13 12
f 202 112 113
f 13 14 114 113
f 201 14 13
f 202 113 114
f 14 15 115 114
f 201 15 14
f 202 114 115
f 15 16 116 115
f 201 16 15
f 202 115 116
f 16 17 117 116
f 201 17 16
f 202 116 117
f 17 18 118 117
f 201 18 17
f 202 117 118
f 18 19 119 118
f 201 19 18
f 202 118 119
f 19 20 120 119
f 201 20 19
f 202 119 120
f 20 21 121 120
f 201 21 20
f 202 120 121
f 21 22 122 121
f 201 22 21
f 202 121 122
f 22 23 123 122
f 201 23 22
f 202 122 123
f 23 24 124 123
f 201 24 23
f 202 123 124
f 24 25 125 124
f 201 25 24
f 202 124 125
f 25 26 126 125
f 201 26 25
f 202 125 126
f 26 27 127 126
f 201 27 26
f 202 126 127
f 27 28 128 127
f 201 28 27
f 202 127 128
f 28 29 129 128
f 201 29 28
f 202 128 129
f 29 30 130 129
f 201 30 29
f 202 129 130
f 30 31 131 130
f 201 31 30
f 202 130 131
f 31 32 132 131
f 201 32 31
f 202 131 132
f 32 33 133 132
f 201 33 32
f 202 132 133
f 33 34 134 133
f 201 34 33
f 202 133 134
f 34 35 135 134
f 201 35 34
f 202 134 135
f 35 36 136 135
f 201 36 35
f 202 135 136
f 36 37 137 136
f 201 37 36
f 202 136 137
f 37 38 138 137
f 201 38 37
f 202 137 138
f 38 39 139 138
f 201 39 38
f 202 138 139
f 39 40 140 139
f 201 40 39
f 202 139 140
f 40 41 141 140
f 201 41 40
f 202 140 141
f 41 42 142 141
f 201 42 41
f 202 141 142
f 42 43 143 142
f 201 43 42
f 202 142 143
f 43 44 144 143
f 201 44 43
f 202 143 144
f 44 45 145 144
f 201 45 44
f 202 144 145
f 45 46 146 145
f 201 46 45
f 202 145 146
f 46 47 147 146
f 201 47 46
f 202 146 147
f 47 48 148 147
f 201 48 47
f 202 147 148
f 48 49 149 148
f 201 49 48
f 202 148 149
f 49 50 150 149
f 201 50 49
f 202 149 150
f 50 51 151 150
f 201 51 50
f 202 150 151
f 51 52 152 151
f 201 52 51
f 202 151 152
f 52 53 153 152
f 201 53 52
f 202 152 153
f 53 54 154 153
f 201 54 53
f 202 153 154
f 54 55 155 154
f 201 55 54
f 202 154 155
f 55 56 156 155
f 201 56 55
f 202 155 156
f 56 57 157 156
f 201 57 56
f 202 156 157
f 57 58 158 157
f 201 58 57
f 202 157 158
f 58 59 159 158
f 201 59 58
f 202 158 159
f 59 60 160 159
f 201 60 59
f 202 159 160
f 60 61 161 160
f 201 61 60
f 202 160 161
f 61 62 162 161
f 201 62 61
f 202 161 162
f 62 63 163 162
f 201 63 62
f 202 162 163
f 63 64 164 163
f 201 64 63
f 202 163 164
f 64 65 165 164
f 201 65 64
f 202 164 165
f 65 66 166 165
f 201 66 65
f 202 165 166
f 66 67 167 166
f 201 67 66
f 202 166 167
f 67 68 168 167
f 201 68 67
f 202 167 168
f 68 69 169 168
f 201 69 68
f 202 168 169
f 69 70 170 169
f 201 70 69
f 202 169 170
f 70 71 171 170
f 201 71 70
f 202 170 171
f 71 72 172 171
f 201 72 71
f 202 171 172
f 72 73 173 172
f 201 73 72
f 202 172 173
f 73 74 174 173
f 201 74 73
f 202 173 174
f 74 75 175 174
f 201 75 74
f 202 174 175
f 75 76 176 175
f 201 76 75
f 202 175 176
f 76 77 177 176
f 201 77 76
f 202 176 177
f 77 78 178 177
f 201 78 77
f 202 177 178
f 78 79 179 178
f 201 79 78
f 202 178 179
f 79 80 180 179
f 201 80 79
f 202 179 180
f 80 81 181 180
f 201 81 80
f 202 180 181
f 81 82 182 181
f 201 82 81
f 202 181 182
f 82 83 183 182
f 201 83 82
f 202 182 183
f 83 84 184 183
f 201 84 83
f 202 183 184
f 84 85 185 184
f 201 85 84
f 202 184 185
f 85 86 186 185
f 201 86 85
f 202 185 186
f 86 87 187 186
f 201 87 86
f 202 186 187
f 87 88 188 187
f 201 88 87
f 202 187 188
f 88 89 189 188
f 201 89 88
f 202 188 189
f 89 90 190 189
f 201 90 89
f 202 189 190
f 90 91 191 190
f 201 91 90
f 202 190 191
f 91 92 192 191
f 201 92 91
f 202 191 192
f 92 93 193 192
f 201 93 92
f 202 192 193
f 93 94 194 193
f 201 94 93
f 202 193 194
f 94 95 195 194
f 201 95 94
f 202 194 195
f 95 96 196 195
f 201 96 95
f 202 195 196
f 96 97 197 196
f 201 97 96
f 202 196 197
f 97 98 198 197
f 201 98 97
f 202 197 198
f 98 99 199 198
f 201 99 98
f 202 198 199
f 99 100 200 199
f 201 100 99
f 202 199 200
f 100 1 101 200
f 201 1 100
f 202 200 101
