# Kinesis original Blender geometry; meters, Z up
v -0.425000 0.200000 1.345000
vn 0.000000 -1.000000 0.000000
v -0.425000 0.200000 1.635000
vn 0.000000 -1.000000 0.000000
v -0.875000 0.200000 1.635000
vn 0.000000 -1.000000 0.000000
f 1//1 2//2 3//3
v -0.425000 0.200000 1.345000
vn 0.000000 -1.000000 0.000000
v -0.875000 0.200000 1.635000
vn 0.000000 -1.000000 0.000000
v -0.875000 0.200000 1.345000
vn 0.000000 -1.000000 0.000000
f 4//4 5//5 6//6
v -0.400000 0.255000 1.345000
vn 1.000000 0.000000 0.000000
v -0.400000 0.255000 1.635000
vn 1.000000 0.000000 0.000000
v -0.400000 0.225000 1.635000
vn 1.000000 0.000000 0.000000
f 7//7 8//8 9//9
v -0.400000 0.255000 1.345000
vn 1.000000 0.000000 0.000000
v -0.400000 0.225000 1.635000
vn 1.000000 0.000000 0.000000
v -0.400000 0.225000 1.345000
vn 1.000000 0.000000 0.000000
f 10//10 11//11 12//12
v -0.425000 0.255000 1.660000
vn 0.000000 0.000000 1.000000
v -0.875000 0.255000 1.660000
vn 0.000000 0.000000 1.000000
v -0.875000 0.225000 1.660000
vn 0.000000 0.000000 1.000000
f 13//13 14//14 15//15
v -0.425000 0.255000 1.660000
vn 0.000000 0.000000 1.000000
v -0.875000 0.225000 1.660000
vn 0.000000 0.000000 1.000000
v -0.425000 0.225000 1.660000
vn 0.000000 0.000000 1.000000
f 16//16 17//17 18//18
v -0.900000 0.225000 1.345000
vn -1.000000 0.000000 0.000000
v -0.900000 0.225000 1.635000
vn -1.000000 0.000000 0.000000
v -0.900000 0.255000 1.635000
vn -1.000000 0.000000 0.000000
f 19//19 20//20 21//21
v -0.900000 0.225000 1.345000
vn -1.000000 0.000000 0.000000
v -0.900000 0.255000 1.635000
vn -1.000000 0.000000 0.000000
v -0.900000 0.255000 1.345000
vn -1.000000 0.000000 0.000000
f 22//22 23//23 24//24
v -0.875000 0.280000 1.345000
vn 0.000000 1.000000 0.000000
v -0.875000 0.280000 1.635000
vn 0.000000 1.000000 0.000000
v -0.425000 0.280000 1.635000
vn 0.000000 1.000000 0.000000
f 25//25 26//26 27//27
v -0.875000 0.280000 1.345000
vn 0.000000 1.000000 0.000000
v -0.425000 0.280000 1.635000
vn 0.000000 1.000000 0.000000
v -0.425000 0.280000 1.345000
vn 0.000000 1.000000 0.000000
f 28//28 29//29 30//30
v -0.875000 0.225000 1.320000
vn -0.256597 -0.256597 -0.931835
v -0.875000 0.212516 1.323340
vn -0.256597 -0.256597 -0.931835
v -0.886955 0.213045 1.326584
vn -0.256597 -0.256597 -0.931835
f 31//31 32//32 33//33
v -0.875000 0.225000 1.320000
vn -0.256597 -0.256597 -0.931835
v -0.886955 0.213045 1.326584
vn -0.256597 -0.256597 -0.931835
v -0.887484 0.225000 1.323340
vn -0.256597 -0.256597 -0.931835
f 34//34 35//35 36//36
v -0.875000 0.212516 1.323340
vn -0.217777 -0.690136 -0.690135
v -0.875000 0.203340 1.332516
vn -0.217777 -0.690136 -0.690135
v -0.886955 0.206584 1.333045
vn -0.217777 -0.690136 -0.690135
f 37//37 38//38 39//39
v -0.875000 0.212516 1.323340
vn -0.217777 -0.690136 -0.690135
v -0.886955 0.206584 1.333045
vn -0.217777 -0.690136 -0.690135
v -0.886955 0.213045 1.326584
vn -0.217777 -0.690136 -0.690135
f 40//40 41//41 42//42
v -0.875000 0.200000 1.345000
vn -0.256597 -0.931835 -0.256597
v -0.887484 0.203340 1.345000
vn -0.256597 -0.931835 -0.256597
v -0.886955 0.206584 1.333045
vn -0.256597 -0.931835 -0.256597
f 43//43 44//44 45//45
v -0.875000 0.200000 1.345000
vn -0.256597 -0.931835 -0.256597
v -0.886955 0.206584 1.333045
vn -0.256597 -0.931835 -0.256597
v -0.875000 0.203340 1.332516
vn -0.256597 -0.931835 -0.256597
f 46//46 47//47 48//48
v -0.887484 0.203340 1.345000
vn -0.690134 -0.690136 -0.217778
v -0.896660 0.212516 1.345000
vn -0.690134 -0.690136 -0.217778
v -0.893416 0.213045 1.333045
vn -0.690134 -0.690136 -0.217778
f 49//49 50//50 51//51
v -0.887484 0.203340 1.345000
vn -0.690134 -0.690136 -0.217778
v -0.893416 0.213045 1.333045
vn -0.690134 -0.690136 -0.217778
v -0.886955 0.206584 1.333045
vn -0.690134 -0.690136 -0.217778
f 52//52 53//53 54//54
v -0.900000 0.225000 1.345000
vn -0.931835 -0.256597 -0.256597
v -0.896660 0.225000 1.332516
vn -0.931835 -0.256597 -0.256597
v -0.893416 0.213045 1.333045
vn -0.931835 -0.256597 -0.256597
f 55//55 56//56 57//57
v -0.900000 0.225000 1.345000
vn -0.931835 -0.256597 -0.256597
v -0.893416 0.213045 1.333045
vn -0.931835 -0.256597 -0.256597
v -0.896660 0.212516 1.345000
vn -0.931835 -0.256597 -0.256597
f 58//58 59//59 60//60
v -0.896660 0.225000 1.332516
vn -0.690136 -0.217777 -0.690135
v -0.887484 0.225000 1.323340
vn -0.690136 -0.217777 -0.690135
v -0.886955 0.213045 1.326584
vn -0.690136 -0.217777 -0.690135
f 61//61 62//62 63//63
v -0.896660 0.225000 1.332516
vn -0.690136 -0.217777 -0.690135
v -0.886955 0.213045 1.326584
vn -0.690136 -0.217777 -0.690135
v -0.893416 0.213045 1.333045
vn -0.690136 -0.217777 -0.690135
f 64//64 65//65 66//66
v -0.886955 0.213045 1.326584
vn -0.577351 -0.577351 -0.577348
v -0.886955 0.206584 1.333045
vn -0.577351 -0.577351 -0.577348
v -0.893416 0.213045 1.333045
vn -0.577351 -0.577351 -0.577348
f 67//67 68//68 69//69
v -0.875000 0.200000 1.635000
vn -0.256597 -0.931835 0.256597
v -0.875000 0.203340 1.647484
vn -0.256597 -0.931835 0.256597
v -0.886955 0.206584 1.646955
vn -0.256597 -0.931835 0.256597
f 70//70 71//71 72//72
v -0.875000 0.200000 1.635000
vn -0.256597 -0.931835 0.256597
v -0.886955 0.206584 1.646955
vn -0.256597 -0.931835 0.256597
v -0.887484 0.203340 1.635000
vn -0.256597 -0.931835 0.256597
f 73//73 74//74 75//75
v -0.875000 0.203340 1.647484
vn -0.217778 -0.690135 0.690135
v -0.875000 0.212516 1.656660
vn -0.217778 -0.690135 0.690135
v -0.886955 0.213045 1.653416
vn -0.217778 -0.690135 0.690135
f 76//76 77//77 78//78
v -0.875000 0.203340 1.647484
vn -0.217778 -0.690135 0.690135
v -0.886955 0.213045 1.653416
vn -0.217778 -0.690135 0.690135
v -0.886955 0.206584 1.646955
vn -0.217778 -0.690135 0.690135
f 79//79 80//80 81//81
v -0.875000 0.225000 1.660000
vn -0.256598 -0.256597 0.931834
v -0.887484 0.225000 1.656660
vn -0.256598 -0.256597 0.931834
v -0.886955 0.213045 1.653416
vn -0.256598 -0.256597 0.931834
f 82//82 83//83 84//84
v -0.875000 0.225000 1.660000
vn -0.256598 -0.256597 0.931834
v -0.886955 0.213045 1.653416
vn -0.256598 -0.256597 0.931834
v -0.875000 0.212516 1.656660
vn -0.256598 -0.256597 0.931834
f 85//85 86//86 87//87
v -0.887484 0.225000 1.656660
vn -0.690135 -0.217777 0.690136
v -0.896660 0.225000 1.647484
vn -0.690135 -0.217777 0.690136
v -0.893416 0.213045 1.646955
vn -0.690135 -0.217777 0.690136
f 88//88 89//89 90//90
v -0.887484 0.225000 1.656660
vn -0.690135 -0.217777 0.690136
v -0.893416 0.213045 1.646955
vn -0.690135 -0.217777 0.690136
v -0.886955 0.213045 1.653416
vn -0.690135 -0.217777 0.690136
f 91//91 92//92 93//93
v -0.900000 0.225000 1.635000
vn -0.931835 -0.256597 0.256597
v -0.896660 0.212516 1.635000
vn -0.931835 -0.256597 0.256597
v -0.893416 0.213045 1.646955
vn -0.931835 -0.256597 0.256597
f 94//94 95//95 96//96
v -0.900000 0.225000 1.635000
vn -0.931835 -0.256597 0.256597
v -0.893416 0.213045 1.646955
vn -0.931835 -0.256597 0.256597
v -0.896660 0.225000 1.647484
vn -0.931835 -0.256597 0.256597
f 97//97 98//98 99//99
v -0.896660 0.212516 1.635000
vn -0.690135 -0.690135 0.217778
v -0.887484 0.203340 1.635000
vn -0.690135 -0.690135 0.217778
v -0.886955 0.206584 1.646955
vn -0.690135 -0.690135 0.217778
f 100//100 101//101 102//102
v -0.896660 0.212516 1.635000
vn -0.690135 -0.690135 0.217778
v -0.886955 0.206584 1.646955
vn -0.690135 -0.690135 0.217778
v -0.893416 0.213045 1.646955
vn -0.690135 -0.690135 0.217778
f 103//103 104//104 105//105
v -0.886955 0.206584 1.646955
vn -0.577349 -0.577352 0.577349
v -0.886955 0.213045 1.653416
vn -0.577349 -0.577352 0.577349
v -0.893416 0.213045 1.646955
vn -0.577349 -0.577352 0.577349
f 106//106 107//107 108//108
v -0.875000 0.255000 1.320000
vn -0.256598 0.256597 -0.931834
v -0.887484 0.255000 1.323340
vn -0.256598 0.256597 -0.931834
v -0.886955 0.266955 1.326584
vn -0.256598 0.256597 -0.931834
f 109//109 110//110 111//111
v -0.875000 0.255000 1.320000
vn -0.256598 0.256597 -0.931834
v -0.886955 0.266955 1.326584
vn -0.256598 0.256597 -0.931834
v -0.875000 0.267484 1.323340
vn -0.256598 0.256597 -0.931834
f 112//112 113//113 114//114
v -0.887484 0.255000 1.323340
vn -0.690135 0.217777 -0.690136
v -0.896660 0.255000 1.332516
vn -0.690135 0.217777 -0.690136
v -0.893416 0.266955 1.333045
vn -0.690135 0.217777 -0.690136
f 115//115 116//116 117//117
v -0.887484 0.255000 1.323340
vn -0.690135 0.217777 -0.690136
v -0.893416 0.266955 1.333045
vn -0.690135 0.217777 -0.690136
v -0.886955 0.266955 1.326584
vn -0.690135 0.217777 -0.690136
f 118//118 119//119 120//120
v -0.900000 0.255000 1.345000
vn -0.931835 0.256597 -0.256597
v -0.896660 0.267484 1.345000
vn -0.931835 0.256597 -0.256597
v -0.893416 0.266955 1.333045
vn -0.931835 0.256597 -0.256597
f 121//121 122//122 123//123
v -0.900000 0.255000 1.345000
vn -0.931835 0.256597 -0.256597
v -0.893416 0.266955 1.333045
vn -0.931835 0.256597 -0.256597
v -0.896660 0.255000 1.332516
vn -0.931835 0.256597 -0.256597
f 124//124 125//125 126//126
v -0.896660 0.267484 1.345000
vn -0.690134 0.690136 -0.217778
v -0.887484 0.276660 1.345000
vn -0.690134 0.690136 -0.217778
v -0.886955 0.273416 1.333045
vn -0.690134 0.690136 -0.217778
f 127//127 128//128 129//129
v -0.896660 0.267484 1.345000
vn -0.690134 0.690136 -0.217778
v -0.886955 0.273416 1.333045
vn -0.690134 0.690136 -0.217778
v -0.893416 0.266955 1.333045
vn -0.690134 0.690136 -0.217778
f 130//130 131//131 132//132
v -0.875000 0.280000 1.345000
vn -0.256597 0.931835 -0.256597
v -0.875000 0.276660 1.332516
vn -0.256597 0.931835 -0.256597
v -0.886955 0.273416 1.333045
vn -0.256597 0.931835 -0.256597
f 133//133 134//134 135//135
v -0.875000 0.280000 1.345000
vn -0.256597 0.931835 -0.256597
v -0.886955 0.273416 1.333045
vn -0.256597 0.931835 -0.256597
v -0.887484 0.276660 1.345000
vn -0.256597 0.931835 -0.256597
f 136//136 137//137 138//138
v -0.875000 0.276660 1.332516
vn -0.217778 0.690135 -0.690135
v -0.875000 0.267484 1.323340
vn -0.217778 0.690135 -0.690135
v -0.886955 0.266955 1.326584
vn -0.217778 0.690135 -0.690135
f 139//139 140//140 141//141
v -0.875000 0.276660 1.332516
vn -0.217778 0.690135 -0.690135
v -0.886955 0.266955 1.326584
vn -0.217778 0.690135 -0.690135
v -0.886955 0.273416 1.333045
vn -0.217778 0.690135 -0.690135
f 142//142 143//143 144//144
v -0.886955 0.266955 1.326584
vn -0.577351 0.577351 -0.577348
v -0.893416 0.266955 1.333045
vn -0.577351 0.577351 -0.577348
v -0.886955 0.273416 1.333045
vn -0.577351 0.577351 -0.577348
f 145//145 146//146 147//147
v -0.875000 0.255000 1.660000
vn -0.256597 0.256597 0.931835
v -0.875000 0.267484 1.656660
vn -0.256597 0.256597 0.931835
v -0.886955 0.266955 1.653416
vn -0.256597 0.256597 0.931835
f 148//148 149//149 150//150
v -0.875000 0.255000 1.660000
vn -0.256597 0.256597 0.931835
v -0.886955 0.266955 1.653416
vn -0.256597 0.256597 0.931835
v -0.887484 0.255000 1.656660
vn -0.256597 0.256597 0.931835
f 151//151 152//152 153//153
v -0.875000 0.267484 1.656660
vn -0.217777 0.690136 0.690135
v -0.875000 0.276660 1.647484
vn -0.217777 0.690136 0.690135
v -0.886955 0.273416 1.646955
vn -0.217777 0.690136 0.690135
f 154//154 155//155 156//156
v -0.875000 0.267484 1.656660
vn -0.217777 0.690136 0.690135
v -0.886955 0.273416 1.646955
vn -0.217777 0.690136 0.690135
v -0.886955 0.266955 1.653416
vn -0.217777 0.690136 0.690135
f 157//157 158//158 159//159
v -0.875000 0.280000 1.635000
vn -0.256597 0.931835 0.256597
v -0.887484 0.276660 1.635000
vn -0.256597 0.931835 0.256597
v -0.886955 0.273416 1.646955
vn -0.256597 0.931835 0.256597
f 160//160 161//161 162//162
v -0.875000 0.280000 1.635000
vn -0.256597 0.931835 0.256597
v -0.886955 0.273416 1.646955
vn -0.256597 0.931835 0.256597
v -0.875000 0.276660 1.647484
vn -0.256597 0.931835 0.256597
f 163//163 164//164 165//165
v -0.887484 0.276660 1.635000
vn -0.690134 0.690136 0.217778
v -0.896660 0.267484 1.635000
vn -0.690134 0.690136 0.217778
v -0.893416 0.266955 1.646955
vn -0.690134 0.690136 0.217778
f 166//166 167//167 168//168
v -0.887484 0.276660 1.635000
vn -0.690134 0.690136 0.217778
v -0.893416 0.266955 1.646955
vn -0.690134 0.690136 0.217778
v -0.886955 0.273416 1.646955
vn -0.690134 0.690136 0.217778
f 169//169 170//170 171//171
v -0.900000 0.255000 1.635000
vn -0.931835 0.256597 0.256597
v -0.896660 0.255000 1.647484
vn -0.931835 0.256597 0.256597
v -0.893416 0.266955 1.646955
vn -0.931835 0.256597 0.256597
f 172//172 173//173 174//174
v -0.900000 0.255000 1.635000
vn -0.931835 0.256597 0.256597
v -0.893416 0.266955 1.646955
vn -0.931835 0.256597 0.256597
v -0.896660 0.267484 1.635000
vn -0.931835 0.256597 0.256597
f 175//175 176//176 177//177
v -0.896660 0.255000 1.647484
vn -0.690136 0.217777 0.690135
v -0.887484 0.255000 1.656660
vn -0.690136 0.217777 0.690135
v -0.886955 0.266955 1.653416
vn -0.690136 0.217777 0.690135
f 178//178 179//179 180//180
v -0.896660 0.255000 1.647484
vn -0.690136 0.217777 0.690135
v -0.886955 0.266955 1.653416
vn -0.690136 0.217777 0.690135
v -0.893416 0.266955 1.646955
vn -0.690136 0.217777 0.690135
f 181//181 182//182 183//183
v -0.886955 0.266955 1.653416
vn -0.577351 0.577351 0.577348
v -0.886955 0.273416 1.646955
vn -0.577351 0.577351 0.577348
v -0.893416 0.266955 1.646955
vn -0.577351 0.577351 0.577348
f 184//184 185//185 186//186
v -0.425000 0.225000 1.320000
vn 0.256598 -0.256597 -0.931834
v -0.412516 0.225000 1.323340
vn 0.256598 -0.256597 -0.931834
v -0.413045 0.213045 1.326584
vn 0.256598 -0.256597 -0.931834
f 187//187 188//188 189//189
v -0.425000 0.225000 1.320000
vn 0.256598 -0.256597 -0.931834
v -0.413045 0.213045 1.326584
vn 0.256598 -0.256597 -0.931834
v -0.425000 0.212516 1.323340
vn 0.256598 -0.256597 -0.931834
f 190//190 191//191 192//192
v -0.412516 0.225000 1.323340
vn 0.690135 -0.217777 -0.690136
v -0.403340 0.225000 1.332516
vn 0.690135 -0.217777 -0.690136
v -0.406584 0.213045 1.333045
vn 0.690135 -0.217777 -0.690136
f 193//193 194//194 195//195
v -0.412516 0.225000 1.323340
vn 0.690135 -0.217777 -0.690136
v -0.406584 0.213045 1.333045
vn 0.690135 -0.217777 -0.690136
v -0.413045 0.213045 1.326584
vn 0.690135 -0.217777 -0.690136
f 196//196 197//197 198//198
v -0.400000 0.225000 1.345000
vn 0.931835 -0.256597 -0.256597
v -0.403340 0.212516 1.345000
vn 0.931835 -0.256597 -0.256597
v -0.406584 0.213045 1.333045
vn 0.931835 -0.256597 -0.256597
f 199//199 200//200 201//201
v -0.400000 0.225000 1.345000
vn 0.931835 -0.256597 -0.256597
v -0.406584 0.213045 1.333045
vn 0.931835 -0.256597 -0.256597
v -0.403340 0.225000 1.332516
vn 0.931835 -0.256597 -0.256597
f 202//202 203//203 204//204
v -0.403340 0.212516 1.345000
vn 0.690134 -0.690136 -0.217778
v -0.412516 0.203340 1.345000
vn 0.690134 -0.690136 -0.217778
v -0.413045 0.206584 1.333045
vn 0.690134 -0.690136 -0.217778
f 205//205 206//206 207//207
v -0.403340 0.212516 1.345000
vn 0.690134 -0.690136 -0.217778
v -0.413045 0.206584 1.333045
vn 0.690134 -0.690136 -0.217778
v -0.406584 0.213045 1.333045
vn 0.690134 -0.690136 -0.217778
f 208//208 209//209 210//210
v -0.425000 0.200000 1.345000
vn 0.256597 -0.931835 -0.256597
v -0.425000 0.203340 1.332516
vn 0.256597 -0.931835 -0.256597
v -0.413045 0.206584 1.333045
vn 0.256597 -0.931835 -0.256597
f 211//211 212//212 213//213
v -0.425000 0.200000 1.345000
vn 0.256597 -0.931835 -0.256597
v -0.413045 0.206584 1.333045
vn 0.256597 -0.931835 -0.256597
v -0.412516 0.203340 1.345000
vn 0.256597 -0.931835 -0.256597
f 214//214 215//215 216//216
v -0.425000 0.203340 1.332516
vn 0.217778 -0.690135 -0.690135
v -0.425000 0.212516 1.323340
vn 0.217778 -0.690135 -0.690135
v -0.413045 0.213045 1.326584
vn 0.217778 -0.690135 -0.690135
f 217//217 218//218 219//219
v -0.425000 0.203340 1.332516
vn 0.217778 -0.690135 -0.690135
v -0.413045 0.213045 1.326584
vn 0.217778 -0.690135 -0.690135
v -0.413045 0.206584 1.333045
vn 0.217778 -0.690135 -0.690135
f 220//220 221//221 222//222
v -0.413045 0.213045 1.326584
vn 0.577351 -0.577351 -0.577348
v -0.406584 0.213045 1.333045
vn 0.577351 -0.577351 -0.577348
v -0.413045 0.206584 1.333045
vn 0.577351 -0.577351 -0.577348
f 223//223 224//224 225//225
v -0.425000 0.225000 1.660000
vn 0.256597 -0.256597 0.931835
v -0.425000 0.212516 1.656660
vn 0.256597 -0.256597 0.931835
v -0.413045 0.213045 1.653416
vn 0.256597 -0.256597 0.931835
f 226//226 227//227 228//228
v -0.425000 0.225000 1.660000
vn 0.256597 -0.256597 0.931835
v -0.413045 0.213045 1.653416
vn 0.256597 -0.256597 0.931835
v -0.412516 0.225000 1.656660
vn 0.256597 -0.256597 0.931835
f 229//229 230//230 231//231
v -0.425000 0.212516 1.656660
vn 0.217777 -0.690136 0.690135
v -0.425000 0.203340 1.647484
vn 0.217777 -0.690136 0.690135
v -0.413045 0.206584 1.646955
vn 0.217777 -0.690136 0.690135
f 232//232 233//233 234//234
v -0.425000 0.212516 1.656660
vn 0.217777 -0.690136 0.690135
v -0.413045 0.206584 1.646955
vn 0.217777 -0.690136 0.690135
v -0.413045 0.213045 1.653416
vn 0.217777 -0.690136 0.690135
f 235//235 236//236 237//237
v -0.425000 0.200000 1.635000
vn 0.256597 -0.931835 0.256597
v -0.412516 0.203340 1.635000
vn 0.256597 -0.931835 0.256597
v -0.413045 0.206584 1.646955
vn 0.256597 -0.931835 0.256597
f 238//238 239//239 240//240
v -0.425000 0.200000 1.635000
vn 0.256597 -0.931835 0.256597
v -0.413045 0.206584 1.646955
vn 0.256597 -0.931835 0.256597
v -0.425000 0.203340 1.647484
vn 0.256597 -0.931835 0.256597
f 241//241 242//242 243//243
v -0.412516 0.203340 1.635000
vn 0.690134 -0.690136 0.217778
v -0.403340 0.212516 1.635000
vn 0.690134 -0.690136 0.217778
v -0.406584 0.213045 1.646955
vn 0.690134 -0.690136 0.217778
f 244//244 245//245 246//246
v -0.412516 0.203340 1.635000
vn 0.690134 -0.690136 0.217778
v -0.406584 0.213045 1.646955
vn 0.690134 -0.690136 0.217778
v -0.413045 0.206584 1.646955
vn 0.690134 -0.690136 0.217778
f 247//247 248//248 249//249
v -0.400000 0.225000 1.635000
vn 0.931835 -0.256597 0.256597
v -0.403340 0.225000 1.647484
vn 0.931835 -0.256597 0.256597
v -0.406584 0.213045 1.646955
vn 0.931835 -0.256597 0.256597
f 250//250 251//251 252//252
v -0.400000 0.225000 1.635000
vn 0.931835 -0.256597 0.256597
v -0.406584 0.213045 1.646955
vn 0.931835 -0.256597 0.256597
v -0.403340 0.212516 1.635000
vn 0.931835 -0.256597 0.256597
f 253//253 254//254 255//255
v -0.403340 0.225000 1.647484
vn 0.690136 -0.217777 0.690135
v -0.412516 0.225000 1.656660
vn 0.690136 -0.217777 0.690135
v -0.413045 0.213045 1.653416
vn 0.690136 -0.217777 0.690135
f 256//256 257//257 258//258
v -0.403340 0.225000 1.647484
vn 0.690136 -0.217777 0.690135
v -0.413045 0.213045 1.653416
vn 0.690136 -0.217777 0.690135
v -0.406584 0.213045 1.646955
vn 0.690136 -0.217777 0.690135
f 259//259 260//260 261//261
v -0.413045 0.213045 1.653416
vn 0.577351 -0.577351 0.577348
v -0.413045 0.206584 1.646955
vn 0.577351 -0.577351 0.577348
v -0.406584 0.213045 1.646955
vn 0.577351 -0.577351 0.577348
f 262//262 263//263 264//264
v -0.425000 0.255000 1.320000
vn 0.256597 0.256597 -0.931835
v -0.425000 0.267484 1.323340
vn 0.256597 0.256597 -0.931835
v -0.413045 0.266955 1.326584
vn 0.256597 0.256597 -0.931835
f 265//265 266//266 267//267
v -0.425000 0.255000 1.320000
vn 0.256597 0.256597 -0.931835
v -0.413045 0.266955 1.326584
vn 0.256597 0.256597 -0.931835
v -0.412516 0.255000 1.323340
vn 0.256597 0.256597 -0.931835
f 268//268 269//269 270//270
v -0.425000 0.267484 1.323340
vn 0.217777 0.690136 -0.690135
v -0.425000 0.276660 1.332516
vn 0.217777 0.690136 -0.690135
v -0.413045 0.273416 1.333045
vn 0.217777 0.690136 -0.690135
f 271//271 272//272 273//273
v -0.425000 0.267484 1.323340
vn 0.217777 0.690136 -0.690135
v -0.413045 0.273416 1.333045
vn 0.217777 0.690136 -0.690135
v -0.413045 0.266955 1.326584
vn 0.217777 0.690136 -0.690135
f 274//274 275//275 276//276
v -0.425000 0.280000 1.345000
vn 0.256597 0.931835 -0.256597
v -0.412516 0.276660 1.345000
vn 0.256597 0.931835 -0.256597
v -0.413045 0.273416 1.333045
vn 0.256597 0.931835 -0.256597
f 277//277 278//278 279//279
v -0.425000 0.280000 1.345000
vn 0.256597 0.931835 -0.256597
v -0.413045 0.273416 1.333045
vn 0.256597 0.931835 -0.256597
v -0.425000 0.276660 1.332516
vn 0.256597 0.931835 -0.256597
f 280//280 281//281 282//282
v -0.412516 0.276660 1.345000
vn 0.690134 0.690136 -0.217778
v -0.403340 0.267484 1.345000
vn 0.690134 0.690136 -0.217778
v -0.406584 0.266955 1.333045
vn 0.690134 0.690136 -0.217778
f 283//283 284//284 285//285
v -0.412516 0.276660 1.345000
vn 0.690134 0.690136 -0.217778
v -0.406584 0.266955 1.333045
vn 0.690134 0.690136 -0.217778
v -0.413045 0.273416 1.333045
vn 0.690134 0.690136 -0.217778
f 286//286 287//287 288//288
v -0.400000 0.255000 1.345000
vn 0.931835 0.256597 -0.256597
v -0.403340 0.255000 1.332516
vn 0.931835 0.256597 -0.256597
v -0.406584 0.266955 1.333045
vn 0.931835 0.256597 -0.256597
f 289//289 290//290 291//291
v -0.400000 0.255000 1.345000
vn 0.931835 0.256597 -0.256597
v -0.406584 0.266955 1.333045
vn 0.931835 0.256597 -0.256597
v -0.403340 0.267484 1.345000
vn 0.931835 0.256597 -0.256597
f 292//292 293//293 294//294
v -0.403340 0.255000 1.332516
vn 0.690136 0.217777 -0.690135
v -0.412516 0.255000 1.323340
vn 0.690136 0.217777 -0.690135
v -0.413045 0.266955 1.326584
vn 0.690136 0.217777 -0.690135
f 295//295 296//296 297//297
v -0.403340 0.255000 1.332516
vn 0.690136 0.217777 -0.690135
v -0.413045 0.266955 1.326584
vn 0.690136 0.217777 -0.690135
v -0.406584 0.266955 1.333045
vn 0.690136 0.217777 -0.690135
f 298//298 299//299 300//300
v -0.413045 0.266955 1.326584
vn 0.577351 0.577351 -0.577348
v -0.413045 0.273416 1.333045
vn 0.577351 0.577351 -0.577348
v -0.406584 0.266955 1.333045
vn 0.577351 0.577351 -0.577348
f 301//301 302//302 303//303
v -0.425000 0.255000 1.660000
vn 0.256598 0.256597 0.931834
v -0.412516 0.255000 1.656660
vn 0.256598 0.256597 0.931834
v -0.413045 0.266955 1.653416
vn 0.256598 0.256597 0.931834
f 304//304 305//305 306//306
v -0.425000 0.255000 1.660000
vn 0.256598 0.256597 0.931834
v -0.413045 0.266955 1.653416
vn 0.256598 0.256597 0.931834
v -0.425000 0.267484 1.656660
vn 0.256598 0.256597 0.931834
f 307//307 308//308 309//309
v -0.412516 0.255000 1.656660
vn 0.690135 0.217777 0.690136
v -0.403340 0.255000 1.647484
vn 0.690135 0.217777 0.690136
v -0.406584 0.266955 1.646955
vn 0.690135 0.217777 0.690136
f 310//310 311//311 312//312
v -0.412516 0.255000 1.656660
vn 0.690135 0.217777 0.690136
v -0.406584 0.266955 1.646955
vn 0.690135 0.217777 0.690136
v -0.413045 0.266955 1.653416
vn 0.690135 0.217777 0.690136
f 313//313 314//314 315//315
v -0.400000 0.255000 1.635000
vn 0.931835 0.256597 0.256597
v -0.403340 0.267484 1.635000
vn 0.931835 0.256597 0.256597
v -0.406584 0.266955 1.646955
vn 0.931835 0.256597 0.256597
f 316//316 317//317 318//318
v -0.400000 0.255000 1.635000
vn 0.931835 0.256597 0.256597
v -0.406584 0.266955 1.646955
vn 0.931835 0.256597 0.256597
v -0.403340 0.255000 1.647484
vn 0.931835 0.256597 0.256597
f 319//319 320//320 321//321
v -0.403340 0.267484 1.635000
vn 0.690134 0.690136 0.217778
v -0.412516 0.276660 1.635000
vn 0.690134 0.690136 0.217778
v -0.413045 0.273416 1.646955
vn 0.690134 0.690136 0.217778
f 322//322 323//323 324//324
v -0.403340 0.267484 1.635000
vn 0.690134 0.690136 0.217778
v -0.413045 0.273416 1.646955
vn 0.690134 0.690136 0.217778
v -0.406584 0.266955 1.646955
vn 0.690134 0.690136 0.217778
f 325//325 326//326 327//327
v -0.425000 0.280000 1.635000
vn 0.256597 0.931835 0.256597
v -0.425000 0.276660 1.647484
vn 0.256597 0.931835 0.256597
v -0.413045 0.273416 1.646955
vn 0.256597 0.931835 0.256597
f 328//328 329//329 330//330
v -0.425000 0.280000 1.635000
vn 0.256597 0.931835 0.256597
v -0.413045 0.273416 1.646955
vn 0.256597 0.931835 0.256597
v -0.412516 0.276660 1.635000
vn 0.256597 0.931835 0.256597
f 331//331 332//332 333//333
v -0.425000 0.276660 1.647484
vn 0.217778 0.690135 0.690135
v -0.425000 0.267484 1.656660
vn 0.217778 0.690135 0.690135
v -0.413045 0.266955 1.653416
vn 0.217778 0.690135 0.690135
f 334//334 335//335 336//336
v -0.425000 0.276660 1.647484
vn 0.217778 0.690135 0.690135
v -0.413045 0.266955 1.653416
vn 0.217778 0.690135 0.690135
v -0.413045 0.273416 1.646955
vn 0.217778 0.690135 0.690135
f 337//337 338//338 339//339
v -0.413045 0.266955 1.653416
vn 0.577351 0.577351 0.577348
v -0.406584 0.266955 1.646955
vn 0.577351 0.577351 0.577348
v -0.413045 0.273416 1.646955
vn 0.577351 0.577351 0.577348
f 340//340 341//341 342//342
v -0.875000 0.255000 1.320000
vn -0.258455 0.000000 -0.966023
v -0.875000 0.225000 1.320000
vn -0.258455 0.000000 -0.966023
v -0.887484 0.225000 1.323340
vn -0.258455 0.000000 -0.966023
f 343//343 344//344 345//345
v -0.875000 0.255000 1.320000
vn -0.258455 0.000000 -0.966023
v -0.887484 0.225000 1.323340
vn -0.258455 0.000000 -0.966023
v -0.887484 0.255000 1.323340
vn -0.258455 0.000000 -0.966023
f 346//346 347//347 348//348
v -0.887484 0.255000 1.323340
vn -0.707107 0.000000 -0.707107
v -0.887484 0.225000 1.323340
vn -0.707107 0.000000 -0.707107
v -0.896660 0.225000 1.332516
vn -0.707107 0.000000 -0.707107
f 349//349 350//350 351//351
v -0.887484 0.255000 1.323340
vn -0.707107 0.000000 -0.707107
v -0.896660 0.225000 1.332516
vn -0.707107 0.000000 -0.707107
v -0.896660 0.255000 1.332516
vn -0.707107 0.000000 -0.707107
f 352//352 353//353 354//354
v -0.896660 0.255000 1.332516
vn -0.966024 0.000000 -0.258453
v -0.896660 0.225000 1.332516
vn -0.966024 0.000000 -0.258453
v -0.900000 0.225000 1.345000
vn -0.966024 0.000000 -0.258453
f 355//355 356//356 357//357
v -0.896660 0.255000 1.332516
vn -0.966024 0.000000 -0.258453
v -0.900000 0.225000 1.345000
vn -0.966024 0.000000 -0.258453
v -0.900000 0.255000 1.345000
vn -0.966024 0.000000 -0.258453
f 358//358 359//359 360//360
v -0.875000 0.200000 1.345000
vn -0.258454 -0.966024 0.000000
v -0.875000 0.200000 1.635000
vn -0.258454 -0.966024 0.000000
v -0.887484 0.203340 1.635000
vn -0.258454 -0.966024 0.000000
f 361//361 362//362 363//363
v -0.875000 0.200000 1.345000
vn -0.258454 -0.966024 0.000000
v -0.887484 0.203340 1.635000
vn -0.258454 -0.966024 0.000000
v -0.887484 0.203340 1.345000
vn -0.258454 -0.966024 0.000000
f 364//364 365//365 366//366
v -0.887484 0.203340 1.345000
vn -0.707106 -0.707108 -0.000000
v -0.887484 0.203340 1.635000
vn -0.707106 -0.707108 -0.000000
v -0.896660 0.212516 1.635000
vn -0.707106 -0.707108 -0.000000
f 367//367 368//368 369//369
v -0.887484 0.203340 1.345000
vn -0.707106 -0.707108 -0.000000
v -0.896660 0.212516 1.635000
vn -0.707106 -0.707108 -0.000000
v -0.896660 0.212516 1.345000
vn -0.707106 -0.707108 -0.000000
f 370//370 371//371 372//372
v -0.896660 0.212516 1.345000
vn -0.966024 -0.258454 0.000000
v -0.896660 0.212516 1.635000
vn -0.966024 -0.258454 0.000000
v -0.900000 0.225000 1.635000
vn -0.966024 -0.258454 0.000000
f 373//373 374//374 375//375
v -0.896660 0.212516 1.345000
vn -0.966024 -0.258454 0.000000
v -0.900000 0.225000 1.635000
vn -0.966024 -0.258454 0.000000
v -0.900000 0.225000 1.345000
vn -0.966024 -0.258454 0.000000
f 376//376 377//377 378//378
v -0.875000 0.225000 1.660000
vn -0.258455 0.000000 0.966023
v -0.875000 0.255000 1.660000
vn -0.258455 0.000000 0.966023
v -0.887484 0.255000 1.656660
vn -0.258455 0.000000 0.966023
f 379//379 380//380 381//381
v -0.875000 0.225000 1.660000
vn -0.258455 0.000000 0.966023
v -0.887484 0.255000 1.656660
vn -0.258455 0.000000 0.966023
v -0.887484 0.225000 1.656660
vn -0.258455 0.000000 0.966023
f 382//382 383//383 384//384
v -0.887484 0.225000 1.656660
vn -0.707107 0.000000 0.707107
v -0.887484 0.255000 1.656660
vn -0.707107 0.000000 0.707107
v -0.896660 0.255000 1.647484
vn -0.707107 0.000000 0.707107
f 385//385 386//386 387//387
v -0.887484 0.225000 1.656660
vn -0.707107 0.000000 0.707107
v -0.896660 0.255000 1.647484
vn -0.707107 0.000000 0.707107
v -0.896660 0.225000 1.647484
vn -0.707107 0.000000 0.707107
f 388//388 389//389 390//390
v -0.896660 0.225000 1.647484
vn -0.966024 0.000000 0.258453
v -0.896660 0.255000 1.647484
vn -0.966024 0.000000 0.258453
v -0.900000 0.255000 1.635000
vn -0.966024 0.000000 0.258453
f 391//391 392//392 393//393
v -0.896660 0.225000 1.647484
vn -0.966024 0.000000 0.258453
v -0.900000 0.255000 1.635000
vn -0.966024 0.000000 0.258453
v -0.900000 0.225000 1.635000
vn -0.966024 0.000000 0.258453
f 394//394 395//395 396//396
v -0.875000 0.280000 1.635000
vn -0.258454 0.966024 0.000000
v -0.875000 0.280000 1.345000
vn -0.258454 0.966024 0.000000
v -0.887484 0.276660 1.345000
vn -0.258454 0.966024 0.000000
f 397//397 398//398 399//399
v -0.875000 0.280000 1.635000
vn -0.258454 0.966024 0.000000
v -0.887484 0.276660 1.345000
vn -0.258454 0.966024 0.000000
v -0.887484 0.276660 1.635000
vn -0.258454 0.966024 0.000000
f 400//400 401//401 402//402
v -0.887484 0.276660 1.635000
vn -0.707106 0.707108 0.000000
v -0.887484 0.276660 1.345000
vn -0.707106 0.707108 0.000000
v -0.896660 0.267484 1.345000
vn -0.707106 0.707108 0.000000
f 403//403 404//404 405//405
v -0.887484 0.276660 1.635000
vn -0.707106 0.707108 0.000000
v -0.896660 0.267484 1.345000
vn -0.707106 0.707108 0.000000
v -0.896660 0.267484 1.635000
vn -0.707106 0.707108 0.000000
f 406//406 407//407 408//408
v -0.896660 0.267484 1.635000
vn -0.966024 0.258454 0.000000
v -0.896660 0.267484 1.345000
vn -0.966024 0.258454 0.000000
v -0.900000 0.255000 1.345000
vn -0.966024 0.258454 0.000000
f 409//409 410//410 411//411
v -0.896660 0.267484 1.635000
vn -0.966024 0.258454 0.000000
v -0.900000 0.255000 1.345000
vn -0.966024 0.258454 0.000000
v -0.900000 0.255000 1.635000
vn -0.966024 0.258454 0.000000
f 412//412 413//413 414//414
v -0.425000 0.255000 1.320000
vn -0.000000 0.258454 -0.966024
v -0.875000 0.255000 1.320000
vn -0.000000 0.258454 -0.966024
v -0.875000 0.267484 1.323340
vn -0.000000 0.258454 -0.966024
f 415//415 416//416 417//417
v -0.425000 0.255000 1.320000
vn -0.000000 0.258454 -0.966024
v -0.875000 0.267484 1.323340
vn -0.000000 0.258454 -0.966024
v -0.425000 0.267484 1.323340
vn -0.000000 0.258454 -0.966024
f 418//418 419//419 420//420
v -0.425000 0.267484 1.323340
vn 0.000000 0.707107 -0.707107
v -0.875000 0.267484 1.323340
vn 0.000000 0.707107 -0.707107
v -0.875000 0.276660 1.332516
vn 0.000000 0.707107 -0.707107
f 421//421 422//422 423//423
v -0.425000 0.267484 1.323340
vn 0.000000 0.707107 -0.707107
v -0.875000 0.276660 1.332516
vn 0.000000 0.707107 -0.707107
v -0.425000 0.276660 1.332516
vn 0.000000 0.707107 -0.707107
f 424//424 425//425 426//426
v -0.425000 0.276660 1.332516
vn 0.000000 0.966024 -0.258453
v -0.875000 0.276660 1.332516
vn 0.000000 0.966024 -0.258453
v -0.875000 0.280000 1.345000
vn 0.000000 0.966024 -0.258453
f 427//427 428//428 429//429
v -0.425000 0.276660 1.332516
vn 0.000000 0.966024 -0.258453
v -0.875000 0.280000 1.345000
vn 0.000000 0.966024 -0.258453
v -0.425000 0.280000 1.345000
vn 0.000000 0.966024 -0.258453
f 430//430 431//431 432//432
v -0.875000 0.255000 1.660000
vn 0.000000 0.258454 0.966024
v -0.425000 0.255000 1.660000
vn 0.000000 0.258454 0.966024
v -0.425000 0.267484 1.656660
vn 0.000000 0.258454 0.966024
f 433//433 434//434 435//435
v -0.875000 0.255000 1.660000
vn 0.000000 0.258454 0.966024
v -0.425000 0.267484 1.656660
vn 0.000000 0.258454 0.966024
v -0.875000 0.267484 1.656660
vn 0.000000 0.258454 0.966024
f 436//436 437//437 438//438
v -0.875000 0.267484 1.656660
vn -0.000000 0.707107 0.707107
v -0.425000 0.267484 1.656660
vn -0.000000 0.707107 0.707107
v -0.425000 0.276660 1.647484
vn -0.000000 0.707107 0.707107
f 439//439 440//440 441//441
v -0.875000 0.267484 1.656660
vn -0.000000 0.707107 0.707107
v -0.425000 0.276660 1.647484
vn -0.000000 0.707107 0.707107
v -0.875000 0.276660 1.647484
vn -0.000000 0.707107 0.707107
f 442//442 443//443 444//444
v -0.875000 0.276660 1.647484
vn 0.000000 0.966024 0.258453
v -0.425000 0.276660 1.647484
vn 0.000000 0.966024 0.258453
v -0.425000 0.280000 1.635000
vn 0.000000 0.966024 0.258453
f 445//445 446//446 447//447
v -0.875000 0.276660 1.647484
vn 0.000000 0.966024 0.258453
v -0.425000 0.280000 1.635000
vn 0.000000 0.966024 0.258453
v -0.875000 0.280000 1.635000
vn 0.000000 0.966024 0.258453
f 448//448 449//449 450//450
v -0.400000 0.255000 1.635000
vn 0.966024 0.258454 0.000000
v -0.400000 0.255000 1.345000
vn 0.966024 0.258454 0.000000
v -0.403340 0.267484 1.345000
vn 0.966024 0.258454 0.000000
f 451//451 452//452 453//453
v -0.400000 0.255000 1.635000
vn 0.966024 0.258454 0.000000
v -0.403340 0.267484 1.345000
vn 0.966024 0.258454 0.000000
v -0.403340 0.267484 1.635000
vn 0.966024 0.258454 0.000000
f 454//454 455//455 456//456
v -0.403340 0.267484 1.635000
vn 0.707106 0.707108 -0.000000
v -0.403340 0.267484 1.345000
vn 0.707106 0.707108 -0.000000
v -0.412516 0.276660 1.345000
vn 0.707106 0.707108 -0.000000
f 457//457 458//458 459//459
v -0.403340 0.267484 1.635000
vn 0.707106 0.707108 -0.000000
v -0.412516 0.276660 1.345000
vn 0.707106 0.707108 -0.000000
v -0.412516 0.276660 1.635000
vn 0.707106 0.707108 -0.000000
f 460//460 461//461 462//462
v -0.412516 0.276660 1.635000
vn 0.258454 0.966024 0.000000
v -0.412516 0.276660 1.345000
vn 0.258454 0.966024 0.000000
v -0.425000 0.280000 1.345000
vn 0.258454 0.966024 0.000000
f 463//463 464//464 465//465
v -0.412516 0.276660 1.635000
vn 0.258454 0.966024 0.000000
v -0.425000 0.280000 1.345000
vn 0.258454 0.966024 0.000000
v -0.425000 0.280000 1.635000
vn 0.258454 0.966024 0.000000
f 466//466 467//467 468//468
v -0.425000 0.225000 1.320000
vn 0.258455 0.000000 -0.966023
v -0.425000 0.255000 1.320000
vn 0.258455 0.000000 -0.966023
v -0.412516 0.255000 1.323340
vn 0.258455 0.000000 -0.966023
f 469//469 470//470 471//471
v -0.425000 0.225000 1.320000
vn 0.258455 0.000000 -0.966023
v -0.412516 0.255000 1.323340
vn 0.258455 0.000000 -0.966023
v -0.412516 0.225000 1.323340
vn 0.258455 0.000000 -0.966023
f 472//472 473//473 474//474
v -0.412516 0.225000 1.323340
vn 0.707107 0.000000 -0.707107
v -0.412516 0.255000 1.323340
vn 0.707107 0.000000 -0.707107
v -0.403340 0.255000 1.332516
vn 0.707107 0.000000 -0.707107
f 475//475 476//476 477//477
v -0.412516 0.225000 1.323340
vn 0.707107 0.000000 -0.707107
v -0.403340 0.255000 1.332516
vn 0.707107 0.000000 -0.707107
v -0.403340 0.225000 1.332516
vn 0.707107 0.000000 -0.707107
f 478//478 479//479 480//480
v -0.403340 0.225000 1.332516
vn 0.966024 0.000000 -0.258453
v -0.403340 0.255000 1.332516
vn 0.966024 0.000000 -0.258453
v -0.400000 0.255000 1.345000
vn 0.966024 0.000000 -0.258453
f 481//481 482//482 483//483
v -0.403340 0.225000 1.332516
vn 0.966024 0.000000 -0.258453
v -0.400000 0.255000 1.345000
vn 0.966024 0.000000 -0.258453
v -0.400000 0.225000 1.345000
vn 0.966024 0.000000 -0.258453
f 484//484 485//485 486//486
v -0.425000 0.255000 1.660000
vn 0.258455 0.000000 0.966023
v -0.425000 0.225000 1.660000
vn 0.258455 0.000000 0.966023
v -0.412516 0.225000 1.656660
vn 0.258455 0.000000 0.966023
f 487//487 488//488 489//489
v -0.425000 0.255000 1.660000
vn 0.258455 0.000000 0.966023
v -0.412516 0.225000 1.656660
vn 0.258455 0.000000 0.966023
v -0.412516 0.255000 1.656660
vn 0.258455 0.000000 0.966023
f 490//490 491//491 492//492
v -0.412516 0.255000 1.656660
vn 0.707107 0.000000 0.707107
v -0.412516 0.225000 1.656660
vn 0.707107 0.000000 0.707107
v -0.403340 0.225000 1.647484
vn 0.707107 0.000000 0.707107
f 493//493 494//494 495//495
v -0.412516 0.255000 1.656660
vn 0.707107 0.000000 0.707107
v -0.403340 0.225000 1.647484
vn 0.707107 0.000000 0.707107
v -0.403340 0.255000 1.647484
vn 0.707107 0.000000 0.707107
f 496//496 497//497 498//498
v -0.403340 0.255000 1.647484
vn 0.966024 0.000000 0.258453
v -0.403340 0.225000 1.647484
vn 0.966024 0.000000 0.258453
v -0.400000 0.225000 1.635000
vn 0.966024 0.000000 0.258453
f 499//499 500//500 501//501
v -0.403340 0.255000 1.647484
vn 0.966024 0.000000 0.258453
v -0.400000 0.225000 1.635000
vn 0.966024 0.000000 0.258453
v -0.400000 0.255000 1.635000
vn 0.966024 0.000000 0.258453
f 502//502 503//503 504//504
v -0.425000 0.200000 1.635000
vn 0.258454 -0.966024 0.000000
v -0.425000 0.200000 1.345000
vn 0.258454 -0.966024 0.000000
v -0.412516 0.203340 1.345000
vn 0.258454 -0.966024 0.000000
f 505//505 506//506 507//507
v -0.425000 0.200000 1.635000
vn 0.258454 -0.966024 0.000000
v -0.412516 0.203340 1.345000
vn 0.258454 -0.966024 0.000000
v -0.412516 0.203340 1.635000
vn 0.258454 -0.966024 0.000000
f 508//508 509//509 510//510
v -0.412516 0.203340 1.635000
vn 0.707106 -0.707108 0.000000
v -0.412516 0.203340 1.345000
vn 0.707106 -0.707108 0.000000
v -0.403340 0.212516 1.345000
vn 0.707106 -0.707108 0.000000
f 511//511 512//512 513//513
v -0.412516 0.203340 1.635000
vn 0.707106 -0.707108 0.000000
v -0.403340 0.212516 1.345000
vn 0.707106 -0.707108 0.000000
v -0.403340 0.212516 1.635000
vn 0.707106 -0.707108 0.000000
f 514//514 515//515 516//516
v -0.403340 0.212516 1.635000
vn 0.966024 -0.258454 0.000000
v -0.403340 0.212516 1.345000
vn 0.966024 -0.258454 0.000000
v -0.400000 0.225000 1.345000
vn 0.966024 -0.258454 0.000000
f 517//517 518//518 519//519
v -0.403340 0.212516 1.635000
vn 0.966024 -0.258454 0.000000
v -0.400000 0.225000 1.345000
vn 0.966024 -0.258454 0.000000
v -0.400000 0.225000 1.635000
vn 0.966024 -0.258454 0.000000
f 520//520 521//521 522//522
v -0.875000 0.225000 1.320000
vn 0.000000 -0.258454 -0.966024
v -0.425000 0.225000 1.320000
vn 0.000000 -0.258454 -0.966024
v -0.425000 0.212516 1.323340
vn 0.000000 -0.258454 -0.966024
f 523//523 524//524 525//525
v -0.875000 0.225000 1.320000
vn 0.000000 -0.258454 -0.966024
v -0.425000 0.212516 1.323340
vn 0.000000 -0.258454 -0.966024
v -0.875000 0.212516 1.323340
vn 0.000000 -0.258454 -0.966024
f 526//526 527//527 528//528
v -0.875000 0.212516 1.323340
vn -0.000000 -0.707107 -0.707107
v -0.425000 0.212516 1.323340
vn -0.000000 -0.707107 -0.707107
v -0.425000 0.203340 1.332516
vn -0.000000 -0.707107 -0.707107
f 529//529 530//530 531//531
v -0.875000 0.212516 1.323340
vn -0.000000 -0.707107 -0.707107
v -0.425000 0.203340 1.332516
vn -0.000000 -0.707107 -0.707107
v -0.875000 0.203340 1.332516
vn -0.000000 -0.707107 -0.707107
f 532//532 533//533 534//534
v -0.875000 0.203340 1.332516
vn 0.000000 -0.966024 -0.258453
v -0.425000 0.203340 1.332516
vn 0.000000 -0.966024 -0.258453
v -0.425000 0.200000 1.345000
vn 0.000000 -0.966024 -0.258453
f 535//535 536//536 537//537
v -0.875000 0.203340 1.332516
vn 0.000000 -0.966024 -0.258453
v -0.425000 0.200000 1.345000
vn 0.000000 -0.966024 -0.258453
v -0.875000 0.200000 1.345000
vn 0.000000 -0.966024 -0.258453
f 538//538 539//539 540//540
v -0.425000 0.225000 1.660000
vn -0.000000 -0.258454 0.966024
v -0.875000 0.225000 1.660000
vn -0.000000 -0.258454 0.966024
v -0.875000 0.212516 1.656660
vn -0.000000 -0.258454 0.966024
f 541//541 542//542 543//543
v -0.425000 0.225000 1.660000
vn -0.000000 -0.258454 0.966024
v -0.875000 0.212516 1.656660
vn -0.000000 -0.258454 0.966024
v -0.425000 0.212516 1.656660
vn -0.000000 -0.258454 0.966024
f 544//544 545//545 546//546
v -0.425000 0.212516 1.656660
vn 0.000000 -0.707107 0.707107
v -0.875000 0.212516 1.656660
vn 0.000000 -0.707107 0.707107
v -0.875000 0.203340 1.647484
vn 0.000000 -0.707107 0.707107
f 547//547 548//548 549//549
v -0.425000 0.212516 1.656660
vn 0.000000 -0.707107 0.707107
v -0.875000 0.203340 1.647484
vn 0.000000 -0.707107 0.707107
v -0.425000 0.203340 1.647484
vn 0.000000 -0.707107 0.707107
f 550//550 551//551 552//552
v -0.425000 0.203340 1.647484
vn 0.000000 -0.966024 0.258453
v -0.875000 0.203340 1.647484
vn 0.000000 -0.966024 0.258453
v -0.875000 0.200000 1.635000
vn 0.000000 -0.966024 0.258453
f 553//553 554//554 555//555
v -0.425000 0.203340 1.647484
vn 0.000000 -0.966024 0.258453
v -0.875000 0.200000 1.635000
vn 0.000000 -0.966024 0.258453
v -0.425000 0.200000 1.635000
vn 0.000000 -0.966024 0.258453
f 556//556 557//557 558//558
v -0.875000 0.255000 1.320000
vn -0.000000 0.000000 -1.000000
v -0.425000 0.255000 1.320000
vn -0.000000 0.000000 -1.000000
v -0.425000 0.225000 1.320000
vn -0.000000 0.000000 -1.000000
f 559//559 560//560 561//561
v -0.875000 0.255000 1.320000
vn -0.000000 0.000000 -1.000000
v -0.425000 0.225000 1.320000
vn -0.000000 0.000000 -1.000000
v -0.875000 0.225000 1.320000
vn -0.000000 0.000000 -1.000000
f 562//562 563//563 564//564
v 0.820000 0.005000 1.035000
vn 0.000000 -1.000000 0.000000
v 0.820000 0.005000 1.265000
vn 0.000000 -1.000000 0.000000
v 0.480000 0.005000 1.265000
vn 0.000000 -1.000000 0.000000
f 565//565 566//566 567//567
v 0.820000 0.005000 1.035000
vn 0.000000 -1.000000 0.000000
v 0.480000 0.005000 1.265000
vn 0.000000 -1.000000 0.000000
v 0.480000 0.005000 1.035000
vn 0.000000 -1.000000 0.000000
f 568//568 569//569 570//570
v 0.845000 0.370000 1.035000
vn 1.000000 0.000000 0.000000
v 0.845000 0.370000 1.265000
vn 1.000000 0.000000 0.000000
v 0.845000 0.030000 1.265000
vn 1.000000 0.000000 0.000000
f 571//571 572//572 573//573
v 0.845000 0.370000 1.035000
vn 1.000000 0.000000 0.000000
v 0.845000 0.030000 1.265000
vn 1.000000 0.000000 0.000000
v 0.845000 0.030000 1.035000
vn 1.000000 0.000000 0.000000
f 574//574 575//575 576//576
v 0.820000 0.370000 1.290000
vn 0.000000 0.000000 1.000000
v 0.480000 0.370000 1.290000
vn 0.000000 0.000000 1.000000
v 0.480000 0.030000 1.290000
vn 0.000000 0.000000 1.000000
f 577//577 578//578 579//579
v 0.820000 0.370000 1.290000
vn 0.000000 0.000000 1.000000
v 0.480000 0.030000 1.290000
vn 0.000000 0.000000 1.000000
v 0.820000 0.030000 1.290000
vn 0.000000 0.000000 1.000000
f 580//580 581//581 582//582
v 0.455000 0.030000 1.035000
vn -1.000000 0.000000 0.000000
v 0.455000 0.030000 1.265000
vn -1.000000 0.000000 0.000000
v 0.455000 0.370000 1.265000
vn -1.000000 0.000000 0.000000
f 583//583 584//584 585//585
v 0.455000 0.030000 1.035000
vn -1.000000 0.000000 0.000000
v 0.455000 0.370000 1.265000
vn -1.000000 0.000000 0.000000
v 0.455000 0.370000 1.035000
vn -1.000000 0.000000 0.000000
f 586//586 587//587 588//588
v 0.480000 0.395000 1.035000
vn 0.000000 1.000000 0.000000
v 0.480000 0.395000 1.265000
vn 0.000000 1.000000 0.000000
v 0.820000 0.395000 1.265000
vn 0.000000 1.000000 0.000000
f 589//589 590//590 591//591
v 0.480000 0.395000 1.035000
vn 0.000000 1.000000 0.000000
v 0.820000 0.395000 1.265000
vn 0.000000 1.000000 0.000000
v 0.820000 0.395000 1.035000
vn 0.000000 1.000000 0.000000
f 592//592 593//593 594//594
v 0.480000 0.030000 1.010000
vn -0.256596 -0.256597 -0.931835
v 0.480000 0.017516 1.013340
vn -0.256596 -0.256597 -0.931835
v 0.468045 0.018045 1.016584
vn -0.256596 -0.256597 -0.931835
f 595//595 596//596 597//597
v 0.480000 0.030000 1.010000
vn -0.256596 -0.256597 -0.931835
v 0.468045 0.018045 1.016584
vn -0.256596 -0.256597 -0.931835
v 0.467516 0.030000 1.013340
vn -0.256596 -0.256597 -0.931835
f 598//598 599//599 600//600
v 0.480000 0.017516 1.013340
vn -0.217778 -0.690135 -0.690135
v 0.480000 0.008340 1.022516
vn -0.217778 -0.690135 -0.690135
v 0.468045 0.011584 1.023045
vn -0.217778 -0.690135 -0.690135
f 601//601 602//602 603//603
v 0.480000 0.017516 1.013340
vn -0.217778 -0.690135 -0.690135
v 0.468045 0.011584 1.023045
vn -0.217778 -0.690135 -0.690135
v 0.468045 0.018045 1.016584
vn -0.217778 -0.690135 -0.690135
f 604//604 605//605 606//606
v 0.480000 0.005000 1.035000
vn -0.256597 -0.931835 -0.256597
v 0.467516 0.008340 1.035000
vn -0.256597 -0.931835 -0.256597
v 0.468045 0.011584 1.023045
vn -0.256597 -0.931835 -0.256597
f 607//607 608//608 609//609
v 0.480000 0.005000 1.035000
vn -0.256597 -0.931835 -0.256597
v 0.468045 0.011584 1.023045
vn -0.256597 -0.931835 -0.256597
v 0.480000 0.008340 1.022516
vn -0.256597 -0.931835 -0.256597
f 610//610 611//611 612//612
v 0.467516 0.008340 1.035000
vn -0.690135 -0.690135 -0.217777
v 0.458340 0.017516 1.035000
vn -0.690135 -0.690135 -0.217777
v 0.461584 0.018045 1.023045
vn -0.690135 -0.690135 -0.217777
f 613//613 614//614 615//615
v 0.467516 0.008340 1.035000
vn -0.690135 -0.690135 -0.217777
v 0.461584 0.018045 1.023045
vn -0.690135 -0.690135 -0.217777
v 0.468045 0.011584 1.023045
vn -0.690135 -0.690135 -0.217777
f 616//616 617//617 618//618
v 0.455000 0.030000 1.035000
vn -0.931835 -0.256597 -0.256597
v 0.458340 0.030000 1.022516
vn -0.931835 -0.256597 -0.256597
v 0.461584 0.018045 1.023045
vn -0.931835 -0.256597 -0.256597
f 619//619 620//620 621//621
v 0.455000 0.030000 1.035000
vn -0.931835 -0.256597 -0.256597
v 0.461584 0.018045 1.023045
vn -0.931835 -0.256597 -0.256597
v 0.458340 0.017516 1.035000
vn -0.931835 -0.256597 -0.256597
f 622//622 623//623 624//624
v 0.458340 0.030000 1.022516
vn -0.690135 -0.217777 -0.690136
v 0.467516 0.030000 1.013340
vn -0.690135 -0.217777 -0.690136
v 0.468045 0.018045 1.016584
vn -0.690135 -0.217777 -0.690136
f 625//625 626//626 627//627
v 0.458340 0.030000 1.022516
vn -0.690135 -0.217777 -0.690136
v 0.468045 0.018045 1.016584
vn -0.690135 -0.217777 -0.690136
v 0.461584 0.018045 1.023045
vn -0.690135 -0.217777 -0.690136
f 628//628 629//629 630//630
v 0.468045 0.018045 1.016584
vn -0.577350 -0.577350 -0.577350
v 0.468045 0.011584 1.023045
vn -0.577350 -0.577350 -0.577350
v 0.461584 0.018045 1.023045
vn -0.577350 -0.577350 -0.577350
f 631//631 632//632 633//633
v 0.480000 0.005000 1.265000
vn -0.256597 -0.931835 0.256597
v 0.480000 0.008340 1.277484
vn -0.256597 -0.931835 0.256597
v 0.468045 0.011584 1.276955
vn -0.256597 -0.931835 0.256597
f 634//634 635//635 636//636
v 0.480000 0.005000 1.265000
vn -0.256597 -0.931835 0.256597
v 0.468045 0.011584 1.276955
vn -0.256597 -0.931835 0.256597
v 0.467516 0.008340 1.265000
vn -0.256597 -0.931835 0.256597
f 637//637 638//638 639//639
v 0.480000 0.008340 1.277484
vn -0.217778 -0.690135 0.690135
v 0.480000 0.017516 1.286660
vn -0.217778 -0.690135 0.690135
v 0.468045 0.018045 1.283416
vn -0.217778 -0.690135 0.690135
f 640//640 641//641 642//642
v 0.480000 0.008340 1.277484
vn -0.217778 -0.690135 0.690135
v 0.468045 0.018045 1.283416
vn -0.217778 -0.690135 0.690135
v 0.468045 0.011584 1.276955
vn -0.217778 -0.690135 0.690135
f 643//643 644//644 645//645
v 0.480000 0.030000 1.290000
vn -0.256596 -0.256597 0.931835
v 0.467516 0.030000 1.286660
vn -0.256596 -0.256597 0.931835
v 0.468045 0.018045 1.283416
vn -0.256596 -0.256597 0.931835
f 646//646 647//647 648//648
v 0.480000 0.030000 1.290000
vn -0.256596 -0.256597 0.931835
v 0.468045 0.018045 1.283416
vn -0.256596 -0.256597 0.931835
v 0.480000 0.017516 1.286660
vn -0.256596 -0.256597 0.931835
f 649//649 650//650 651//651
v 0.467516 0.030000 1.286660
vn -0.690135 -0.217777 0.690136
v 0.458340 0.030000 1.277484
vn -0.690135 -0.217777 0.690136
v 0.461584 0.018045 1.276955
vn -0.690135 -0.217777 0.690136
f 652//652 653//653 654//654
v 0.467516 0.030000 1.286660
vn -0.690135 -0.217777 0.690136
v 0.461584 0.018045 1.276955
vn -0.690135 -0.217777 0.690136
v 0.468045 0.018045 1.283416
vn -0.690135 -0.217777 0.690136
f 655//655 656//656 657//657
v 0.455000 0.030000 1.265000
vn -0.931835 -0.256597 0.256597
v 0.458340 0.017516 1.265000
vn -0.931835 -0.256597 0.256597
v 0.461584 0.018045 1.276955
vn -0.931835 -0.256597 0.256597
f 658//658 659//659 660//660
v 0.455000 0.030000 1.265000
vn -0.931835 -0.256597 0.256597
v 0.461584 0.018045 1.276955
vn -0.931835 -0.256597 0.256597
v 0.458340 0.030000 1.277484
vn -0.931835 -0.256597 0.256597
f 661//661 662//662 663//663
v 0.458340 0.017516 1.265000
vn -0.690135 -0.690135 0.217777
v 0.467516 0.008340 1.265000
vn -0.690135 -0.690135 0.217777
v 0.468045 0.011584 1.276955
vn -0.690135 -0.690135 0.217777
f 664//664 665//665 666//666
v 0.458340 0.017516 1.265000
vn -0.690135 -0.690135 0.217777
v 0.468045 0.011584 1.276955
vn -0.690135 -0.690135 0.217777
v 0.461584 0.018045 1.276955
vn -0.690135 -0.690135 0.217777
f 667//667 668//668 669//669
v 0.468045 0.011584 1.276955
vn -0.577350 -0.577350 0.577350
v 0.468045 0.018045 1.283416
vn -0.577350 -0.577350 0.577350
v 0.461584 0.018045 1.276955
vn -0.577350 -0.577350 0.577350
f 670//670 671//671 672//672
v 0.480000 0.370000 1.010000
vn -0.256596 0.256597 -0.931835
v 0.467516 0.370000 1.013340
vn -0.256596 0.256597 -0.931835
v 0.468045 0.381955 1.016584
vn -0.256596 0.256597 -0.931835
f 673//673 674//674 675//675
v 0.480000 0.370000 1.010000
vn -0.256596 0.256597 -0.931835
v 0.468045 0.381955 1.016584
vn -0.256596 0.256597 -0.931835
v 0.480000 0.382484 1.013340
vn -0.256596 0.256597 -0.931835
f 676//676 677//677 678//678
v 0.467516 0.370000 1.013340
vn -0.690135 0.217777 -0.690136
v 0.458340 0.370000 1.022516
vn -0.690135 0.217777 -0.690136
v 0.461584 0.381955 1.023045
vn -0.690135 0.217777 -0.690136
f 679//679 680//680 681//681
v 0.467516 0.370000 1.013340
vn -0.690135 0.217777 -0.690136
v 0.461584 0.381955 1.023045
vn -0.690135 0.217777 -0.690136
v 0.468045 0.381955 1.016584
vn -0.690135 0.217777 -0.690136
f 682//682 683//683 684//684
v 0.455000 0.370000 1.035000
vn -0.931835 0.256597 -0.256597
v 0.458340 0.382484 1.035000
vn -0.931835 0.256597 -0.256597
v 0.461584 0.381955 1.023045
vn -0.931835 0.256597 -0.256597
f 685//685 686//686 687//687
v 0.455000 0.370000 1.035000
vn -0.931835 0.256597 -0.256597
v 0.461584 0.381955 1.023045
vn -0.931835 0.256597 -0.256597
v 0.458340 0.370000 1.022516
vn -0.931835 0.256597 -0.256597
f 688//688 689//689 690//690
v 0.458340 0.382484 1.035000
vn -0.690135 0.690135 -0.217777
v 0.467516 0.391660 1.035000
vn -0.690135 0.690135 -0.217777
v 0.468045 0.388416 1.023045
vn -0.690135 0.690135 -0.217777
f 691//691 692//692 693//693
v 0.458340 0.382484 1.035000
vn -0.690135 0.690135 -0.217777
v 0.468045 0.388416 1.023045
vn -0.690135 0.690135 -0.217777
v 0.461584 0.381955 1.023045
vn -0.690135 0.690135 -0.217777
f 694//694 695//695 696//696
v 0.480000 0.395000 1.035000
vn -0.256597 0.931835 -0.256597
v 0.480000 0.391660 1.022516
vn -0.256597 0.931835 -0.256597
v 0.468045 0.388416 1.023045
vn -0.256597 0.931835 -0.256597
f 697//697 698//698 699//699
v 0.480000 0.395000 1.035000
vn -0.256597 0.931835 -0.256597
v 0.468045 0.388416 1.023045
vn -0.256597 0.931835 -0.256597
v 0.467516 0.391660 1.035000
vn -0.256597 0.931835 -0.256597
f 700//700 701//701 702//702
v 0.480000 0.391660 1.022516
vn -0.217778 0.690135 -0.690135
v 0.480000 0.382484 1.013340
vn -0.217778 0.690135 -0.690135
v 0.468045 0.381955 1.016584
vn -0.217778 0.690135 -0.690135
f 703//703 704//704 705//705
v 0.480000 0.391660 1.022516
vn -0.217778 0.690135 -0.690135
v 0.468045 0.381955 1.016584
vn -0.217778 0.690135 -0.690135
v 0.468045 0.388416 1.023045
vn -0.217778 0.690135 -0.690135
f 706//706 707//707 708//708
v 0.468045 0.381955 1.016584
vn -0.577350 0.577350 -0.577350
v 0.461584 0.381955 1.023045
vn -0.577350 0.577350 -0.577350
v 0.468045 0.388416 1.023045
vn -0.577350 0.577350 -0.577350
f 709//709 710//710 711//711
v 0.480000 0.370000 1.290000
vn -0.256596 0.256597 0.931835
v 0.480000 0.382484 1.286660
vn -0.256596 0.256597 0.931835
v 0.468045 0.381955 1.283416
vn -0.256596 0.256597 0.931835
f 712//712 713//713 714//714
v 0.480000 0.370000 1.290000
vn -0.256596 0.256597 0.931835
v 0.468045 0.381955 1.283416
vn -0.256596 0.256597 0.931835
v 0.467516 0.370000 1.286660
vn -0.256596 0.256597 0.931835
f 715//715 716//716 717//717
v 0.480000 0.382484 1.286660
vn -0.217778 0.690135 0.690135
v 0.480000 0.391660 1.277484
vn -0.217778 0.690135 0.690135
v 0.468045 0.388416 1.276955
vn -0.217778 0.690135 0.690135
f 718//718 719//719 720//720
v 0.480000 0.382484 1.286660
vn -0.217778 0.690135 0.690135
v 0.468045 0.388416 1.276955
vn -0.217778 0.690135 0.690135
v 0.468045 0.381955 1.283416
vn -0.217778 0.690135 0.690135
f 721//721 722//722 723//723
v 0.480000 0.395000 1.265000
vn -0.256597 0.931835 0.256597
v 0.467516 0.391660 1.265000
vn -0.256597 0.931835 0.256597
v 0.468045 0.388416 1.276955
vn -0.256597 0.931835 0.256597
f 724//724 725//725 726//726
v 0.480000 0.395000 1.265000
vn -0.256597 0.931835 0.256597
v 0.468045 0.388416 1.276955
vn -0.256597 0.931835 0.256597
v 0.480000 0.391660 1.277484
vn -0.256597 0.931835 0.256597
f 727//727 728//728 729//729
v 0.467516 0.391660 1.265000
vn -0.690135 0.690135 0.217777
v 0.458340 0.382484 1.265000
vn -0.690135 0.690135 0.217777
v 0.461584 0.381955 1.276955
vn -0.690135 0.690135 0.217777
f 730//730 731//731 732//732
v 0.467516 0.391660 1.265000
vn -0.690135 0.690135 0.217777
v 0.461584 0.381955 1.276955
vn -0.690135 0.690135 0.217777
v 0.468045 0.388416 1.276955
vn -0.690135 0.690135 0.217777
f 733//733 734//734 735//735
v 0.455000 0.370000 1.265000
vn -0.931835 0.256597 0.256597
v 0.458340 0.370000 1.277484
vn -0.931835 0.256597 0.256597
v 0.461584 0.381955 1.276955
vn -0.931835 0.256597 0.256597
f 736//736 737//737 738//738
v 0.455000 0.370000 1.265000
vn -0.931835 0.256597 0.256597
v 0.461584 0.381955 1.276955
vn -0.931835 0.256597 0.256597
v 0.458340 0.382484 1.265000
vn -0.931835 0.256597 0.256597
f 739//739 740//740 741//741
v 0.458340 0.370000 1.277484
vn -0.690135 0.217777 0.690136
v 0.467516 0.370000 1.286660
vn -0.690135 0.217777 0.690136
v 0.468045 0.381955 1.283416
vn -0.690135 0.217777 0.690136
f 742//742 743//743 744//744
v 0.458340 0.370000 1.277484
vn -0.690135 0.217777 0.690136
v 0.468045 0.381955 1.283416
vn -0.690135 0.217777 0.690136
v 0.461584 0.381955 1.276955
vn -0.690135 0.217777 0.690136
f 745//745 746//746 747//747
v 0.468045 0.381955 1.283416
vn -0.577350 0.577350 0.577350
v 0.468045 0.388416 1.276955
vn -0.577350 0.577350 0.577350
v 0.461584 0.381955 1.276955
vn -0.577350 0.577350 0.577350
f 748//748 749//749 750//750
v 0.820000 0.030000 1.010000
vn 0.256596 -0.256597 -0.931835
v 0.832484 0.030000 1.013340
vn 0.256596 -0.256597 -0.931835
v 0.831955 0.018045 1.016584
vn 0.256596 -0.256597 -0.931835
f 751//751 752//752 753//753
v 0.820000 0.030000 1.010000
vn 0.256596 -0.256597 -0.931835
v 0.831955 0.018045 1.016584
vn 0.256596 -0.256597 -0.931835
v 0.820000 0.017516 1.013340
vn 0.256596 -0.256597 -0.931835
f 754//754 755//755 756//756
v 0.832484 0.030000 1.013340
vn 0.690135 -0.217777 -0.690136
v 0.841660 0.030000 1.022516
vn 0.690135 -0.217777 -0.690136
v 0.838416 0.018045 1.023045
vn 0.690135 -0.217777 -0.690136
f 757//757 758//758 759//759
v 0.832484 0.030000 1.013340
vn 0.690135 -0.217777 -0.690136
v 0.838416 0.018045 1.023045
vn 0.690135 -0.217777 -0.690136
v 0.831955 0.018045 1.016584
vn 0.690135 -0.217777 -0.690136
f 760//760 761//761 762//762
v 0.845000 0.030000 1.035000
vn 0.931835 -0.256597 -0.256597
v 0.841660 0.017516 1.035000
vn 0.931835 -0.256597 -0.256597
v 0.838416 0.018045 1.023045
vn 0.931835 -0.256597 -0.256597
f 763//763 764//764 765//765
v 0.845000 0.030000 1.035000
vn 0.931835 -0.256597 -0.256597
v 0.838416 0.018045 1.023045
vn 0.931835 -0.256597 -0.256597
v 0.841660 0.030000 1.022516
vn 0.931835 -0.256597 -0.256597
f 766//766 767//767 768//768
v 0.841660 0.017516 1.035000
vn 0.690135 -0.690135 -0.217777
v 0.832484 0.008340 1.035000
vn 0.690135 -0.690135 -0.217777
v 0.831955 0.011584 1.023045
vn 0.690135 -0.690135 -0.217777
f 769//769 770//770 771//771
v 0.841660 0.017516 1.035000
vn 0.690135 -0.690135 -0.217777
v 0.831955 0.011584 1.023045
vn 0.690135 -0.690135 -0.217777
v 0.838416 0.018045 1.023045
vn 0.690135 -0.690135 -0.217777
f 772//772 773//773 774//774
v 0.820000 0.005000 1.035000
vn 0.256597 -0.931835 -0.256597
v 0.820000 0.008340 1.022516
vn 0.256597 -0.931835 -0.256597
v 0.831955 0.011584 1.023045
vn 0.256597 -0.931835 -0.256597
f 775//775 776//776 777//777
v 0.820000 0.005000 1.035000
vn 0.256597 -0.931835 -0.256597
v 0.831955 0.011584 1.023045
vn 0.256597 -0.931835 -0.256597
v 0.832484 0.008340 1.035000
vn 0.256597 -0.931835 -0.256597
f 778//778 779//779 780//780
v 0.820000 0.008340 1.022516
vn 0.217778 -0.690135 -0.690135
v 0.820000 0.017516 1.013340
vn 0.217778 -0.690135 -0.690135
v 0.831955 0.018045 1.016584
vn 0.217778 -0.690135 -0.690135
f 781//781 782//782 783//783
v 0.820000 0.008340 1.022516
vn 0.217778 -0.690135 -0.690135
v 0.831955 0.018045 1.016584
vn 0.217778 -0.690135 -0.690135
v 0.831955 0.011584 1.023045
vn 0.217778 -0.690135 -0.690135
f 784//784 785//785 786//786
v 0.831955 0.018045 1.016584
vn 0.577350 -0.577350 -0.577350
v 0.838416 0.018045 1.023045
vn 0.577350 -0.577350 -0.577350
v 0.831955 0.011584 1.023045
vn 0.577350 -0.577350 -0.577350
f 787//787 788//788 789//789
v 0.820000 0.030000 1.290000
vn 0.256596 -0.256597 0.931835
v 0.820000 0.017516 1.286660
vn 0.256596 -0.256597 0.931835
v 0.831955 0.018045 1.283416
vn 0.256596 -0.256597 0.931835
f 790//790 791//791 792//792
v 0.820000 0.030000 1.290000
vn 0.256596 -0.256597 0.931835
v 0.831955 0.018045 1.283416
vn 0.256596 -0.256597 0.931835
v 0.832484 0.030000 1.286660
vn 0.256596 -0.256597 0.931835
f 793//793 794//794 795//795
v 0.820000 0.017516 1.286660
vn 0.217778 -0.690135 0.690135
v 0.820000 0.008340 1.277484
vn 0.217778 -0.690135 0.690135
v 0.831955 0.011584 1.276955
vn 0.217778 -0.690135 0.690135
f 796//796 797//797 798//798
v 0.820000 0.017516 1.286660
vn 0.217778 -0.690135 0.690135
v 0.831955 0.011584 1.276955
vn 0.217778 -0.690135 0.690135
v 0.831955 0.018045 1.283416
vn 0.217778 -0.690135 0.690135
f 799//799 800//800 801//801
v 0.820000 0.005000 1.265000
vn 0.256597 -0.931835 0.256597
v 0.832484 0.008340 1.265000
vn 0.256597 -0.931835 0.256597
v 0.831955 0.011584 1.276955
vn 0.256597 -0.931835 0.256597
f 802//802 803//803 804//804
v 0.820000 0.005000 1.265000
vn 0.256597 -0.931835 0.256597
v 0.831955 0.011584 1.276955
vn 0.256597 -0.931835 0.256597
v 0.820000 0.008340 1.277484
vn 0.256597 -0.931835 0.256597
f 805//805 806//806 807//807
v 0.832484 0.008340 1.265000
vn 0.690135 -0.690135 0.217777
v 0.841660 0.017516 1.265000
vn 0.690135 -0.690135 0.217777
v 0.838416 0.018045 1.276955
vn 0.690135 -0.690135 0.217777
f 808//808 809//809 810//810
v 0.832484 0.008340 1.265000
vn 0.690135 -0.690135 0.217777
v 0.838416 0.018045 1.276955
vn 0.690135 -0.690135 0.217777
v 0.831955 0.011584 1.276955
vn 0.690135 -0.690135 0.217777
f 811//811 812//812 813//813
v 0.845000 0.030000 1.265000
vn 0.931835 -0.256597 0.256597
v 0.841660 0.030000 1.277484
vn 0.931835 -0.256597 0.256597
v 0.838416 0.018045 1.276955
vn 0.931835 -0.256597 0.256597
f 814//814 815//815 816//816
v 0.845000 0.030000 1.265000
vn 0.931835 -0.256597 0.256597
v 0.838416 0.018045 1.276955
vn 0.931835 -0.256597 0.256597
v 0.841660 0.017516 1.265000
vn 0.931835 -0.256597 0.256597
f 817//817 818//818 819//819
v 0.841660 0.030000 1.277484
vn 0.690135 -0.217777 0.690136
v 0.832484 0.030000 1.286660
vn 0.690135 -0.217777 0.690136
v 0.831955 0.018045 1.283416
vn 0.690135 -0.217777 0.690136
f 820//820 821//821 822//822
v 0.841660 0.030000 1.277484
vn 0.690135 -0.217777 0.690136
v 0.831955 0.018045 1.283416
vn 0.690135 -0.217777 0.690136
v 0.838416 0.018045 1.276955
vn 0.690135 -0.217777 0.690136
f 823//823 824//824 825//825
v 0.831955 0.018045 1.283416
vn 0.577350 -0.577350 0.577350
v 0.831955 0.011584 1.276955
vn 0.577350 -0.577350 0.577350
v 0.838416 0.018045 1.276955
vn 0.577350 -0.577350 0.577350
f 826//826 827//827 828//828
v 0.820000 0.370000 1.010000
vn 0.256596 0.256597 -0.931835
v 0.820000 0.382484 1.013340
vn 0.256596 0.256597 -0.931835
v 0.831955 0.381955 1.016584
vn 0.256596 0.256597 -0.931835
f 829//829 830//830 831//831
v 0.820000 0.370000 1.010000
vn 0.256596 0.256597 -0.931835
v 0.831955 0.381955 1.016584
vn 0.256596 0.256597 -0.931835
v 0.832484 0.370000 1.013340
vn 0.256596 0.256597 -0.931835
f 832//832 833//833 834//834
v 0.820000 0.382484 1.013340
vn 0.217778 0.690135 -0.690135
v 0.820000 0.391660 1.022516
vn 0.217778 0.690135 -0.690135
v 0.831955 0.388416 1.023045
vn 0.217778 0.690135 -0.690135
f 835//835 836//836 837//837
v 0.820000 0.382484 1.013340
vn 0.217778 0.690135 -0.690135
v 0.831955 0.388416 1.023045
vn 0.217778 0.690135 -0.690135
v 0.831955 0.381955 1.016584
vn 0.217778 0.690135 -0.690135
f 838//838 839//839 840//840
v 0.820000 0.395000 1.035000
vn 0.256597 0.931835 -0.256597
v 0.832484 0.391660 1.035000
vn 0.256597 0.931835 -0.256597
v 0.831955 0.388416 1.023045
vn 0.256597 0.931835 -0.256597
f 841//841 842//842 843//843
v 0.820000 0.395000 1.035000
vn 0.256597 0.931835 -0.256597
v 0.831955 0.388416 1.023045
vn 0.256597 0.931835 -0.256597
v 0.820000 0.391660 1.022516
vn 0.256597 0.931835 -0.256597
f 844//844 845//845 846//846
v 0.832484 0.391660 1.035000
vn 0.690135 0.690135 -0.217777
v 0.841660 0.382484 1.035000
vn 0.690135 0.690135 -0.217777
v 0.838416 0.381955 1.023045
vn 0.690135 0.690135 -0.217777
f 847//847 848//848 849//849
v 0.832484 0.391660 1.035000
vn 0.690135 0.690135 -0.217777
v 0.838416 0.381955 1.023045
vn 0.690135 0.690135 -0.217777
v 0.831955 0.388416 1.023045
vn 0.690135 0.690135 -0.217777
f 850//850 851//851 852//852
v 0.845000 0.370000 1.035000
vn 0.931835 0.256597 -0.256597
v 0.841660 0.370000 1.022516
vn 0.931835 0.256597 -0.256597
v 0.838416 0.381955 1.023045
vn 0.931835 0.256597 -0.256597
f 853//853 854//854 855//855
v 0.845000 0.370000 1.035000
vn 0.931835 0.256597 -0.256597
v 0.838416 0.381955 1.023045
vn 0.931835 0.256597 -0.256597
v 0.841660 0.382484 1.035000
vn 0.931835 0.256597 -0.256597
f 856//856 857//857 858//858
v 0.841660 0.370000 1.022516
vn 0.690135 0.217777 -0.690136
v 0.832484 0.370000 1.013340
vn 0.690135 0.217777 -0.690136
v 0.831955 0.381955 1.016584
vn 0.690135 0.217777 -0.690136
f 859//859 860//860 861//861
v 0.841660 0.370000 1.022516
vn 0.690135 0.217777 -0.690136
v 0.831955 0.381955 1.016584
vn 0.690135 0.217777 -0.690136
v 0.838416 0.381955 1.023045
vn 0.690135 0.217777 -0.690136
f 862//862 863//863 864//864
v 0.831955 0.381955 1.016584
vn 0.577350 0.577350 -0.577350
v 0.831955 0.388416 1.023045
vn 0.577350 0.577350 -0.577350
v 0.838416 0.381955 1.023045
vn 0.577350 0.577350 -0.577350
f 865//865 866//866 867//867
v 0.820000 0.370000 1.290000
vn 0.256596 0.256597 0.931835
v 0.832484 0.370000 1.286660
vn 0.256596 0.256597 0.931835
v 0.831955 0.381955 1.283416
vn 0.256596 0.256597 0.931835
f 868//868 869//869 870//870
v 0.820000 0.370000 1.290000
vn 0.256596 0.256597 0.931835
v 0.831955 0.381955 1.283416
vn 0.256596 0.256597 0.931835
v 0.820000 0.382484 1.286660
vn 0.256596 0.256597 0.931835
f 871//871 872//872 873//873
v 0.832484 0.370000 1.286660
vn 0.690135 0.217777 0.690136
v 0.841660 0.370000 1.277484
vn 0.690135 0.217777 0.690136
v 0.838416 0.381955 1.276955
vn 0.690135 0.217777 0.690136
f 874//874 875//875 876//876
v 0.832484 0.370000 1.286660
vn 0.690135 0.217777 0.690136
v 0.838416 0.381955 1.276955
vn 0.690135 0.217777 0.690136
v 0.831955 0.381955 1.283416
vn 0.690135 0.217777 0.690136
f 877//877 878//878 879//879
v 0.845000 0.370000 1.265000
vn 0.931835 0.256597 0.256597
v 0.841660 0.382484 1.265000
vn 0.931835 0.256597 0.256597
v 0.838416 0.381955 1.276955
vn 0.931835 0.256597 0.256597
f 880//880 881//881 882//882
v 0.845000 0.370000 1.265000
vn 0.931835 0.256597 0.256597
v 0.838416 0.381955 1.276955
vn 0.931835 0.256597 0.256597
v 0.841660 0.370000 1.277484
vn 0.931835 0.256597 0.256597
f 883//883 884//884 885//885
v 0.841660 0.382484 1.265000
vn 0.690135 0.690135 0.217777
v 0.832484 0.391660 1.265000
vn 0.690135 0.690135 0.217777
v 0.831955 0.388416 1.276955
vn 0.690135 0.690135 0.217777
f 886//886 887//887 888//888
v 0.841660 0.382484 1.265000
vn 0.690135 0.690135 0.217777
v 0.831955 0.388416 1.276955
vn 0.690135 0.690135 0.217777
v 0.838416 0.381955 1.276955
vn 0.690135 0.690135 0.217777
f 889//889 890//890 891//891
v 0.820000 0.395000 1.265000
vn 0.256597 0.931835 0.256597
v 0.820000 0.391660 1.277484
vn 0.256597 0.931835 0.256597
v 0.831955 0.388416 1.276955
vn 0.256597 0.931835 0.256597
f 892//892 893//893 894//894
v 0.820000 0.395000 1.265000
vn 0.256597 0.931835 0.256597
v 0.831955 0.388416 1.276955
vn 0.256597 0.931835 0.256597
v 0.832484 0.391660 1.265000
vn 0.256597 0.931835 0.256597
f 895//895 896//896 897//897
v 0.820000 0.391660 1.277484
vn 0.217778 0.690135 0.690135
v 0.820000 0.382484 1.286660
vn 0.217778 0.690135 0.690135
v 0.831955 0.381955 1.283416
vn 0.217778 0.690135 0.690135
f 898//898 899//899 900//900
v 0.820000 0.391660 1.277484
vn 0.217778 0.690135 0.690135
v 0.831955 0.381955 1.283416
vn 0.217778 0.690135 0.690135
v 0.831955 0.388416 1.276955
vn 0.217778 0.690135 0.690135
f 901//901 902//902 903//903
v 0.831955 0.381955 1.283416
vn 0.577350 0.577350 0.577350
v 0.838416 0.381955 1.276955
vn 0.577350 0.577350 0.577350
v 0.831955 0.388416 1.276955
vn 0.577350 0.577350 0.577350
f 904//904 905//905 906//906
v 0.480000 0.370000 1.010000
vn -0.258454 0.000000 -0.966024
v 0.480000 0.030000 1.010000
vn -0.258454 0.000000 -0.966024
v 0.467516 0.030000 1.013340
vn -0.258454 0.000000 -0.966024
f 907//907 908//908 909//909
v 0.480000 0.370000 1.010000
vn -0.258454 0.000000 -0.966024
v 0.467516 0.030000 1.013340
vn -0.258454 0.000000 -0.966024
v 0.467516 0.370000 1.013340
vn -0.258454 0.000000 -0.966024
f 910//910 911//911 912//912
v 0.467516 0.370000 1.013340
vn -0.707106 0.000000 -0.707108
v 0.467516 0.030000 1.013340
vn -0.707106 0.000000 -0.707108
v 0.458340 0.030000 1.022516
vn -0.707106 0.000000 -0.707108
f 913//913 914//914 915//915
v 0.467516 0.370000 1.013340
vn -0.707106 0.000000 -0.707108
v 0.458340 0.030000 1.022516
vn -0.707106 0.000000 -0.707108
v 0.458340 0.370000 1.022516
vn -0.707106 0.000000 -0.707108
f 916//916 917//917 918//918
v 0.458340 0.370000 1.022516
vn -0.966024 0.000000 -0.258453
v 0.458340 0.030000 1.022516
vn -0.966024 0.000000 -0.258453
v 0.455000 0.030000 1.035000
vn -0.966024 0.000000 -0.258453
f 919//919 920//920 921//921
v 0.458340 0.370000 1.022516
vn -0.966024 0.000000 -0.258453
v 0.455000 0.030000 1.035000
vn -0.966024 0.000000 -0.258453
v 0.455000 0.370000 1.035000
vn -0.966024 0.000000 -0.258453
f 922//922 923//923 924//924
v 0.480000 0.005000 1.035000
vn -0.258453 -0.966024 0.000000
v 0.480000 0.005000 1.265000
vn -0.258453 -0.966024 0.000000
v 0.467516 0.008340 1.265000
vn -0.258453 -0.966024 0.000000
f 925//925 926//926 927//927
v 0.480000 0.005000 1.035000
vn -0.258453 -0.966024 0.000000
v 0.467516 0.008340 1.265000
vn -0.258453 -0.966024 0.000000
v 0.467516 0.008340 1.035000
vn -0.258453 -0.966024 0.000000
f 928//928 929//929 930//930
v 0.467516 0.008340 1.035000
vn -0.707107 -0.707107 0.000000
v 0.467516 0.008340 1.265000
vn -0.707107 -0.707107 0.000000
v 0.458340 0.017516 1.265000
vn -0.707107 -0.707107 0.000000
f 931//931 932//932 933//933
v 0.467516 0.008340 1.035000
vn -0.707107 -0.707107 0.000000
v 0.458340 0.017516 1.265000
vn -0.707107 -0.707107 0.000000
v 0.458340 0.017516 1.035000
vn -0.707107 -0.707107 0.000000
f 934//934 935//935 936//936
v 0.458340 0.017516 1.035000
vn -0.966024 -0.258453 0.000000
v 0.458340 0.017516 1.265000
vn -0.966024 -0.258453 0.000000
v 0.455000 0.030000 1.265000
vn -0.966024 -0.258453 0.000000
f 937//937 938//938 939//939
v 0.458340 0.017516 1.035000
vn -0.966024 -0.258453 0.000000
v 0.455000 0.030000 1.265000
vn -0.966024 -0.258453 0.000000
v 0.455000 0.030000 1.035000
vn -0.966024 -0.258453 0.000000
f 940//940 941//941 942//942
v 0.480000 0.030000 1.290000
vn -0.258454 0.000000 0.966024
v 0.480000 0.370000 1.290000
vn -0.258454 0.000000 0.966024
v 0.467516 0.370000 1.286660
vn -0.258454 0.000000 0.966024
f 943//943 944//944 945//945
v 0.480000 0.030000 1.290000
vn -0.258454 0.000000 0.966024
v 0.467516 0.370000 1.286660
vn -0.258454 0.000000 0.966024
v 0.467516 0.030000 1.286660
vn -0.258454 0.000000 0.966024
f 946//946 947//947 948//948
v 0.467516 0.030000 1.286660
vn -0.707106 0.000000 0.707108
v 0.467516 0.370000 1.286660
vn -0.707106 0.000000 0.707108
v 0.458340 0.370000 1.277484
vn -0.707106 0.000000 0.707108
f 949//949 950//950 951//951
v 0.467516 0.030000 1.286660
vn -0.707106 0.000000 0.707108
v 0.458340 0.370000 1.277484
vn -0.707106 0.000000 0.707108
v 0.458340 0.030000 1.277484
vn -0.707106 0.000000 0.707108
f 952//952 953//953 954//954
v 0.458340 0.030000 1.277484
vn -0.966024 0.000000 0.258453
v 0.458340 0.370000 1.277484
vn -0.966024 0.000000 0.258453
v 0.455000 0.370000 1.265000
vn -0.966024 0.000000 0.258453
f 955//955 956//956 957//957
v 0.458340 0.030000 1.277484
vn -0.966024 0.000000 0.258453
v 0.455000 0.370000 1.265000
vn -0.966024 0.000000 0.258453
v 0.455000 0.030000 1.265000
vn -0.966024 0.000000 0.258453
f 958//958 959//959 960//960
v 0.480000 0.395000 1.265000
vn -0.258453 0.966024 0.000000
v 0.480000 0.395000 1.035000
vn -0.258453 0.966024 0.000000
v 0.467516 0.391660 1.035000
vn -0.258453 0.966024 0.000000
f 961//961 962//962 963//963
v 0.480000 0.395000 1.265000
vn -0.258453 0.966024 0.000000
v 0.467516 0.391660 1.035000
vn -0.258453 0.966024 0.000000
v 0.467516 0.391660 1.265000
vn -0.258453 0.966024 0.000000
f 964//964 965//965 966//966
v 0.467516 0.391660 1.265000
vn -0.707107 0.707107 0.000000
v 0.467516 0.391660 1.035000
vn -0.707107 0.707107 0.000000
v 0.458340 0.382484 1.035000
vn -0.707107 0.707107 0.000000
f 967//967 968//968 969//969
v 0.467516 0.391660 1.265000
vn -0.707107 0.707107 0.000000
v 0.458340 0.382484 1.035000
vn -0.707107 0.707107 0.000000
v 0.458340 0.382484 1.265000
vn -0.707107 0.707107 0.000000
f 970//970 971//971 972//972
v 0.458340 0.382484 1.265000
vn -0.966024 0.258453 0.000000
v 0.458340 0.382484 1.035000
vn -0.966024 0.258453 0.000000
v 0.455000 0.370000 1.035000
vn -0.966024 0.258453 0.000000
f 973//973 974//974 975//975
v 0.458340 0.382484 1.265000
vn -0.966024 0.258453 0.000000
v 0.455000 0.370000 1.035000
vn -0.966024 0.258453 0.000000
v 0.455000 0.370000 1.265000
vn -0.966024 0.258453 0.000000
f 976//976 977//977 978//978
v 0.820000 0.370000 1.010000
vn 0.000000 0.258453 -0.966024
v 0.480000 0.370000 1.010000
vn 0.000000 0.258453 -0.966024
v 0.480000 0.382484 1.013340
vn 0.000000 0.258453 -0.966024
f 979//979 980//980 981//981
v 0.820000 0.370000 1.010000
vn 0.000000 0.258453 -0.966024
v 0.480000 0.382484 1.013340
vn 0.000000 0.258453 -0.966024
v 0.820000 0.382484 1.013340
vn 0.000000 0.258453 -0.966024
f 982//982 983//983 984//984
v 0.820000 0.382484 1.013340
vn 0.000000 0.707106 -0.707107
v 0.480000 0.382484 1.013340
vn 0.000000 0.707106 -0.707107
v 0.480000 0.391660 1.022516
vn 0.000000 0.707106 -0.707107
f 985//985 986//986 987//987
v 0.820000 0.382484 1.013340
vn 0.000000 0.707106 -0.707107
v 0.480000 0.391660 1.022516
vn 0.000000 0.707106 -0.707107
v 0.820000 0.391660 1.022516
vn 0.000000 0.707106 -0.707107
f 988//988 989//989 990//990
v 0.820000 0.391660 1.022516
vn 0.000000 0.966024 -0.258453
v 0.480000 0.391660 1.022516
vn 0.000000 0.966024 -0.258453
v 0.480000 0.395000 1.035000
vn 0.000000 0.966024 -0.258453
f 991//991 992//992 993//993
v 0.820000 0.391660 1.022516
vn 0.000000 0.966024 -0.258453
v 0.480000 0.395000 1.035000
vn 0.000000 0.966024 -0.258453
v 0.820000 0.395000 1.035000
vn 0.000000 0.966024 -0.258453
f 994//994 995//995 996//996
v 0.480000 0.370000 1.290000
vn 0.000000 0.258453 0.966024
v 0.820000 0.370000 1.290000
vn 0.000000 0.258453 0.966024
v 0.820000 0.382484 1.286660
vn 0.000000 0.258453 0.966024
f 997//997 998//998 999//999
v 0.480000 0.370000 1.290000
vn 0.000000 0.258453 0.966024
v 0.820000 0.382484 1.286660
vn 0.000000 0.258453 0.966024
v 0.480000 0.382484 1.286660
vn 0.000000 0.258453 0.966024
f 1000//1000 1001//1001 1002//1002
v 0.480000 0.382484 1.286660
vn 0.000000 0.707106 0.707107
v 0.820000 0.382484 1.286660
vn 0.000000 0.707106 0.707107
v 0.820000 0.391660 1.277484
vn 0.000000 0.707106 0.707107
f 1003//1003 1004//1004 1005//1005
v 0.480000 0.382484 1.286660
vn 0.000000 0.707106 0.707107
v 0.820000 0.391660 1.277484
vn 0.000000 0.707106 0.707107
v 0.480000 0.391660 1.277484
vn 0.000000 0.707106 0.707107
f 1006//1006 1007//1007 1008//1008
v 0.480000 0.391660 1.277484
vn 0.000000 0.966024 0.258453
v 0.820000 0.391660 1.277484
vn 0.000000 0.966024 0.258453
v 0.820000 0.395000 1.265000
vn 0.000000 0.966024 0.258453
f 1009//1009 1010//1010 1011//1011
v 0.480000 0.391660 1.277484
vn 0.000000 0.966024 0.258453
v 0.820000 0.395000 1.265000
vn 0.000000 0.966024 0.258453
v 0.480000 0.395000 1.265000
vn 0.000000 0.966024 0.258453
f 1012//1012 1013//1013 1014//1014
v 0.845000 0.370000 1.265000
vn 0.966024 0.258453 0.000000
v 0.845000 0.370000 1.035000
vn 0.966024 0.258453 0.000000
v 0.841660 0.382484 1.035000
vn 0.966024 0.258453 0.000000
f 1015//1015 1016//1016 1017//1017
v 0.845000 0.370000 1.265000
vn 0.966024 0.258453 0.000000
v 0.841660 0.382484 1.035000
vn 0.966024 0.258453 0.000000
v 0.841660 0.382484 1.265000
vn 0.966024 0.258453 0.000000
f 1018//1018 1019//1019 1020//1020
v 0.841660 0.382484 1.265000
vn 0.707107 0.707107 0.000000
v 0.841660 0.382484 1.035000
vn 0.707107 0.707107 0.000000
v 0.832484 0.391660 1.035000
vn 0.707107 0.707107 0.000000
f 1021//1021 1022//1022 1023//1023
v 0.841660 0.382484 1.265000
vn 0.707107 0.707107 0.000000
v 0.832484 0.391660 1.035000
vn 0.707107 0.707107 0.000000
v 0.832484 0.391660 1.265000
vn 0.707107 0.707107 0.000000
f 1024//1024 1025//1025 1026//1026
v 0.832484 0.391660 1.265000
vn 0.258453 0.966024 0.000000
v 0.832484 0.391660 1.035000
vn 0.258453 0.966024 0.000000
v 0.820000 0.395000 1.035000
vn 0.258453 0.966024 0.000000
f 1027//1027 1028//1028 1029//1029
v 0.832484 0.391660 1.265000
vn 0.258453 0.966024 0.000000
v 0.820000 0.395000 1.035000
vn 0.258453 0.966024 0.000000
v 0.820000 0.395000 1.265000
vn 0.258453 0.966024 0.000000
f 1030//1030 1031//1031 1032//1032
v 0.820000 0.030000 1.010000
vn 0.258454 0.000000 -0.966024
v 0.820000 0.370000 1.010000
vn 0.258454 0.000000 -0.966024
v 0.832484 0.370000 1.013340
vn 0.258454 0.000000 -0.966024
f 1033//1033 1034//1034 1035//1035
v 0.820000 0.030000 1.010000
vn 0.258454 0.000000 -0.966024
v 0.832484 0.370000 1.013340
vn 0.258454 0.000000 -0.966024
v 0.832484 0.030000 1.013340
vn 0.258454 0.000000 -0.966024
f 1036//1036 1037//1037 1038//1038
v 0.832484 0.030000 1.013340
vn 0.707106 0.000000 -0.707108
v 0.832484 0.370000 1.013340
vn 0.707106 0.000000 -0.707108
v 0.841660 0.370000 1.022516
vn 0.707106 0.000000 -0.707108
f 1039//1039 1040//1040 1041//1041
v 0.832484 0.030000 1.013340
vn 0.707106 0.000000 -0.707108
v 0.841660 0.370000 1.022516
vn 0.707106 0.000000 -0.707108
v 0.841660 0.030000 1.022516
vn 0.707106 0.000000 -0.707108
f 1042//1042 1043//1043 1044//1044
v 0.841660 0.030000 1.022516
vn 0.966024 0.000000 -0.258453
v 0.841660 0.370000 1.022516
vn 0.966024 0.000000 -0.258453
v 0.845000 0.370000 1.035000
vn 0.966024 0.000000 -0.258453
f 1045//1045 1046//1046 1047//1047
v 0.841660 0.030000 1.022516
vn 0.966024 0.000000 -0.258453
v 0.845000 0.370000 1.035000
vn 0.966024 0.000000 -0.258453
v 0.845000 0.030000 1.035000
vn 0.966024 0.000000 -0.258453
f 1048//1048 1049//1049 1050//1050
v 0.820000 0.370000 1.290000
vn 0.258454 0.000000 0.966024
v 0.820000 0.030000 1.290000
vn 0.258454 0.000000 0.966024
v 0.832484 0.030000 1.286660
vn 0.258454 0.000000 0.966024
f 1051//1051 1052//1052 1053//1053
v 0.820000 0.370000 1.290000
vn 0.258454 0.000000 0.966024
v 0.832484 0.030000 1.286660
vn 0.258454 0.000000 0.966024
v 0.832484 0.370000 1.286660
vn 0.258454 0.000000 0.966024
f 1054//1054 1055//1055 1056//1056
v 0.832484 0.370000 1.286660
vn 0.707106 0.000000 0.707108
v 0.832484 0.030000 1.286660
vn 0.707106 0.000000 0.707108
v 0.841660 0.030000 1.277484
vn 0.707106 0.000000 0.707108
f 1057//1057 1058//1058 1059//1059
v 0.832484 0.370000 1.286660
vn 0.707106 0.000000 0.707108
v 0.841660 0.030000 1.277484
vn 0.707106 0.000000 0.707108
v 0.841660 0.370000 1.277484
vn 0.707106 0.000000 0.707108
f 1060//1060 1061//1061 1062//1062
v 0.841660 0.370000 1.277484
vn 0.966024 0.000000 0.258453
v 0.841660 0.030000 1.277484
vn 0.966024 0.000000 0.258453
v 0.845000 0.030000 1.265000
vn 0.966024 0.000000 0.258453
f 1063//1063 1064//1064 1065//1065
v 0.841660 0.370000 1.277484
vn 0.966024 0.000000 0.258453
v 0.845000 0.030000 1.265000
vn 0.966024 0.000000 0.258453
v 0.845000 0.370000 1.265000
vn 0.966024 0.000000 0.258453
f 1066//1066 1067//1067 1068//1068
v 0.820000 0.005000 1.265000
vn 0.258453 -0.966024 0.000000
v 0.820000 0.005000 1.035000
vn 0.258453 -0.966024 0.000000
v 0.832484 0.008340 1.035000
vn 0.258453 -0.966024 0.000000
f 1069//1069 1070//1070 1071//1071
v 0.820000 0.005000 1.265000
vn 0.258453 -0.966024 0.000000
v 0.832484 0.008340 1.035000
vn 0.258453 -0.966024 0.000000
v 0.832484 0.008340 1.265000
vn 0.258453 -0.966024 0.000000
f 1072//1072 1073//1073 1074//1074
v 0.832484 0.008340 1.265000
vn 0.707107 -0.707107 0.000000
v 0.832484 0.008340 1.035000
vn 0.707107 -0.707107 0.000000
v 0.841660 0.017516 1.035000
vn 0.707107 -0.707107 0.000000
f 1075//1075 1076//1076 1077//1077
v 0.832484 0.008340 1.265000
vn 0.707107 -0.707107 0.000000
v 0.841660 0.017516 1.035000
vn 0.707107 -0.707107 0.000000
v 0.841660 0.017516 1.265000
vn 0.707107 -0.707107 0.000000
f 1078//1078 1079//1079 1080//1080
v 0.841660 0.017516 1.265000
vn 0.966024 -0.258453 0.000000
v 0.841660 0.017516 1.035000
vn 0.966024 -0.258453 0.000000
v 0.845000 0.030000 1.035000
vn 0.966024 -0.258453 0.000000
f 1081//1081 1082//1082 1083//1083
v 0.841660 0.017516 1.265000
vn 0.966024 -0.258453 0.000000
v 0.845000 0.030000 1.035000
vn 0.966024 -0.258453 0.000000
v 0.845000 0.030000 1.265000
vn 0.966024 -0.258453 0.000000
f 1084//1084 1085//1085 1086//1086
v 0.480000 0.030000 1.010000
vn 0.000000 -0.258453 -0.966024
v 0.820000 0.030000 1.010000
vn 0.000000 -0.258453 -0.966024
v 0.820000 0.017516 1.013340
vn 0.000000 -0.258453 -0.966024
f 1087//1087 1088//1088 1089//1089
v 0.480000 0.030000 1.010000
vn 0.000000 -0.258453 -0.966024
v 0.820000 0.017516 1.013340
vn 0.000000 -0.258453 -0.966024
v 0.480000 0.017516 1.013340
vn 0.000000 -0.258453 -0.966024
f 1090//1090 1091//1091 1092//1092
v 0.480000 0.017516 1.013340
vn 0.000000 -0.707106 -0.707107
v 0.820000 0.017516 1.013340
vn 0.000000 -0.707106 -0.707107
v 0.820000 0.008340 1.022516
vn 0.000000 -0.707106 -0.707107
f 1093//1093 1094//1094 1095//1095
v 0.480000 0.017516 1.013340
vn 0.000000 -0.707106 -0.707107
v 0.820000 0.008340 1.022516
vn 0.000000 -0.707106 -0.707107
v 0.480000 0.008340 1.022516
vn 0.000000 -0.707106 -0.707107
f 1096//1096 1097//1097 1098//1098
v 0.480000 0.008340 1.022516
vn 0.000000 -0.966024 -0.258453
v 0.820000 0.008340 1.022516
vn 0.000000 -0.966024 -0.258453
v 0.820000 0.005000 1.035000
vn 0.000000 -0.966024 -0.258453
f 1099//1099 1100//1100 1101//1101
v 0.480000 0.008340 1.022516
vn 0.000000 -0.966024 -0.258453
v 0.820000 0.005000 1.035000
vn 0.000000 -0.966024 -0.258453
v 0.480000 0.005000 1.035000
vn 0.000000 -0.966024 -0.258453
f 1102//1102 1103//1103 1104//1104
v 0.820000 0.030000 1.290000
vn 0.000000 -0.258453 0.966024
v 0.480000 0.030000 1.290000
vn 0.000000 -0.258453 0.966024
v 0.480000 0.017516 1.286660
vn 0.000000 -0.258453 0.966024
f 1105//1105 1106//1106 1107//1107
v 0.820000 0.030000 1.290000
vn 0.000000 -0.258453 0.966024
v 0.480000 0.017516 1.286660
vn 0.000000 -0.258453 0.966024
v 0.820000 0.017516 1.286660
vn 0.000000 -0.258453 0.966024
f 1108//1108 1109//1109 1110//1110
v 0.820000 0.017516 1.286660
vn 0.000000 -0.707106 0.707107
v 0.480000 0.017516 1.286660
vn 0.000000 -0.707106 0.707107
v 0.480000 0.008340 1.277484
vn 0.000000 -0.707106 0.707107
f 1111//1111 1112//1112 1113//1113
v 0.820000 0.017516 1.286660
vn 0.000000 -0.707106 0.707107
v 0.480000 0.008340 1.277484
vn 0.000000 -0.707106 0.707107
v 0.820000 0.008340 1.277484
vn 0.000000 -0.707106 0.707107
f 1114//1114 1115//1115 1116//1116
v 0.820000 0.008340 1.277484
vn 0.000000 -0.966024 0.258453
v 0.480000 0.008340 1.277484
vn 0.000000 -0.966024 0.258453
v 0.480000 0.005000 1.265000
vn 0.000000 -0.966024 0.258453
f 1117//1117 1118//1118 1119//1119
v 0.820000 0.008340 1.277484
vn 0.000000 -0.966024 0.258453
v 0.480000 0.005000 1.265000
vn 0.000000 -0.966024 0.258453
v 0.820000 0.005000 1.265000
vn 0.000000 -0.966024 0.258453
f 1120//1120 1121//1121 1122//1122
v 0.480000 0.370000 1.010000
vn 0.000000 0.000000 -1.000000
v 0.820000 0.370000 1.010000
vn 0.000000 0.000000 -1.000000
v 0.820000 0.030000 1.010000
vn 0.000000 0.000000 -1.000000
f 1123//1123 1124//1124 1125//1125
v 0.480000 0.370000 1.010000
vn 0.000000 0.000000 -1.000000
v 0.820000 0.030000 1.010000
vn 0.000000 0.000000 -1.000000
v 0.480000 0.030000 1.010000
vn 0.000000 0.000000 -1.000000
f 1126//1126 1127//1127 1128//1128
v -0.068000 -0.358500 1.213100
vn -1.000000 0.000000 0.000000
v -0.068000 -0.358500 1.278100
vn -1.000000 0.000000 0.000000
v -0.068000 -0.355500 1.278100
vn -1.000000 0.000000 0.000000
f 1129//1129 1130//1130 1131//1131
v -0.068000 -0.358500 1.213100
vn -1.000000 0.000000 0.000000
v -0.068000 -0.355500 1.278100
vn -1.000000 0.000000 0.000000
v -0.068000 -0.355500 1.213100
vn -1.000000 0.000000 0.000000
f 1132//1132 1133//1133 1134//1134
v -0.068000 -0.355500 1.213100
vn 0.000000 1.000000 0.000000
v -0.068000 -0.355500 1.278100
vn 0.000000 1.000000 0.000000
v -0.062000 -0.355500 1.278100
vn 0.000000 1.000000 0.000000
f 1135//1135 1136//1136 1137//1137
v -0.068000 -0.355500 1.213100
vn 0.000000 1.000000 0.000000
v -0.062000 -0.355500 1.278100
vn 0.000000 1.000000 0.000000
v -0.062000 -0.355500 1.213100
vn 0.000000 1.000000 0.000000
f 1138//1138 1139//1139 1140//1140
v -0.062000 -0.355500 1.213100
vn 1.000000 0.000000 0.000000
v -0.062000 -0.355500 1.278100
vn 1.000000 0.000000 0.000000
v -0.062000 -0.358500 1.278100
vn 1.000000 0.000000 0.000000
f 1141//1141 1142//1142 1143//1143
v -0.062000 -0.355500 1.213100
vn 1.000000 0.000000 0.000000
v -0.062000 -0.358500 1.278100
vn 1.000000 0.000000 0.000000
v -0.062000 -0.358500 1.213100
vn 1.000000 0.000000 0.000000
f 1144//1144 1145//1145 1146//1146
v -0.062000 -0.358500 1.213100
vn 0.000000 -1.000000 0.000000
v -0.062000 -0.358500 1.278100
vn 0.000000 -1.000000 0.000000
v -0.068000 -0.358500 1.278100
vn 0.000000 -1.000000 0.000000
f 1147//1147 1148//1148 1149//1149
v -0.062000 -0.358500 1.213100
vn 0.000000 -1.000000 0.000000
v -0.068000 -0.358500 1.278100
vn 0.000000 -1.000000 0.000000
v -0.068000 -0.358500 1.213100
vn 0.000000 -1.000000 0.000000
f 1150//1150 1151//1151 1152//1152
v -0.068000 -0.355500 1.213100
vn 0.000000 0.000000 -1.000000
v -0.062000 -0.355500 1.213100
vn 0.000000 0.000000 -1.000000
v -0.062000 -0.358500 1.213100
vn 0.000000 0.000000 -1.000000
f 1153//1153 1154//1154 1155//1155
v -0.068000 -0.355500 1.213100
vn 0.000000 0.000000 -1.000000
v -0.062000 -0.358500 1.213100
vn 0.000000 0.000000 -1.000000
v -0.068000 -0.358500 1.213100
vn 0.000000 0.000000 -1.000000
f 1156//1156 1157//1157 1158//1158
v -0.062000 -0.355500 1.278100
vn 0.000000 0.000000 1.000000
v -0.068000 -0.355500 1.278100
vn 0.000000 0.000000 1.000000
v -0.068000 -0.358500 1.278100
vn 0.000000 0.000000 1.000000
f 1159//1159 1160//1160 1161//1161
v -0.062000 -0.355500 1.278100
vn 0.000000 0.000000 1.000000
v -0.068000 -0.358500 1.278100
vn 0.000000 0.000000 1.000000
v -0.062000 -0.358500 1.278100
vn 0.000000 0.000000 1.000000
f 1162//1162 1163//1163 1164//1164
v -0.048000 -0.358500 1.213100
vn -1.000000 0.000000 0.000000
v -0.048000 -0.358500 1.278100
vn -1.000000 0.000000 0.000000
v -0.048000 -0.355500 1.278100
vn -1.000000 0.000000 0.000000
f 1165//1165 1166//1166 1167//1167
v -0.048000 -0.358500 1.213100
vn -1.000000 0.000000 0.000000
v -0.048000 -0.355500 1.278100
vn -1.000000 0.000000 0.000000
v -0.048000 -0.355500 1.213100
vn -1.000000 0.000000 0.000000
f 1168//1168 1169//1169 1170//1170
v -0.048000 -0.355500 1.213100
vn 0.000000 1.000000 0.000000
v -0.048000 -0.355500 1.278100
vn 0.000000 1.000000 0.000000
v -0.042000 -0.355500 1.278100
vn 0.000000 1.000000 0.000000
f 1171//1171 1172//1172 1173//1173
v -0.048000 -0.355500 1.213100
vn 0.000000 1.000000 0.000000
v -0.042000 -0.355500 1.278100
vn 0.000000 1.000000 0.000000
v -0.042000 -0.355500 1.213100
vn 0.000000 1.000000 0.000000
f 1174//1174 1175//1175 1176//1176
v -0.042000 -0.355500 1.213100
vn 1.000000 0.000000 0.000000
v -0.042000 -0.355500 1.278100
vn 1.000000 0.000000 0.000000
v -0.042000 -0.358500 1.278100
vn 1.000000 0.000000 0.000000
f 1177//1177 1178//1178 1179//1179
v -0.042000 -0.355500 1.213100
vn 1.000000 0.000000 0.000000
v -0.042000 -0.358500 1.278100
vn 1.000000 0.000000 0.000000
v -0.042000 -0.358500 1.213100
vn 1.000000 0.000000 0.000000
f 1180//1180 1181//1181 1182//1182
v -0.042000 -0.358500 1.213100
vn 0.000000 -1.000000 0.000000
v -0.042000 -0.358500 1.278100
vn 0.000000 -1.000000 0.000000
v -0.048000 -0.358500 1.278100
vn 0.000000 -1.000000 0.000000
f 1183//1183 1184//1184 1185//1185
v -0.042000 -0.358500 1.213100
vn 0.000000 -1.000000 0.000000
v -0.048000 -0.358500 1.278100
vn 0.000000 -1.000000 0.000000
v -0.048000 -0.358500 1.213100
vn 0.000000 -1.000000 0.000000
f 1186//1186 1187//1187 1188//1188
v -0.048000 -0.355500 1.213100
vn 0.000000 0.000000 -1.000000
v -0.042000 -0.355500 1.213100
vn 0.000000 0.000000 -1.000000
v -0.042000 -0.358500 1.213100
vn 0.000000 0.000000 -1.000000
f 1189//1189 1190//1190 1191//1191
v -0.048000 -0.355500 1.213100
vn 0.000000 0.000000 -1.000000
v -0.042000 -0.358500 1.213100
vn 0.000000 0.000000 -1.000000
v -0.048000 -0.358500 1.213100
vn 0.000000 0.000000 -1.000000
f 1192//1192 1193//1193 1194//1194
v -0.042000 -0.355500 1.278100
vn 0.000000 0.000000 1.000000
v -0.048000 -0.355500 1.278100
vn 0.000000 0.000000 1.000000
v -0.048000 -0.358500 1.278100
vn 0.000000 0.000000 1.000000
f 1195//1195 1196//1196 1197//1197
v -0.042000 -0.355500 1.278100
vn 0.000000 0.000000 1.000000
v -0.048000 -0.358500 1.278100
vn 0.000000 0.000000 1.000000
v -0.042000 -0.358500 1.278100
vn 0.000000 0.000000 1.000000
f 1198//1198 1199//1199 1200//1200
v -0.028000 -0.358500 1.213100
vn -1.000000 0.000000 0.000000
v -0.028000 -0.358500 1.278100
vn -1.000000 0.000000 0.000000
v -0.028000 -0.355500 1.278100
vn -1.000000 0.000000 0.000000
f 1201//1201 1202//1202 1203//1203
v -0.028000 -0.358500 1.213100
vn -1.000000 0.000000 0.000000
v -0.028000 -0.355500 1.278100
vn -1.000000 0.000000 0.000000
v -0.028000 -0.355500 1.213100
vn -1.000000 0.000000 0.000000
f 1204//1204 1205//1205 1206//1206
v -0.028000 -0.355500 1.213100
vn 0.000000 1.000000 0.000000
v -0.028000 -0.355500 1.278100
vn 0.000000 1.000000 0.000000
v -0.022000 -0.355500 1.278100
vn 0.000000 1.000000 0.000000
f 1207//1207 1208//1208 1209//1209
v -0.028000 -0.355500 1.213100
vn 0.000000 1.000000 0.000000
v -0.022000 -0.355500 1.278100
vn 0.000000 1.000000 0.000000
v -0.022000 -0.355500 1.213100
vn 0.000000 1.000000 0.000000
f 1210//1210 1211//1211 1212//1212
v -0.022000 -0.355500 1.213100
vn 1.000000 0.000000 0.000000
v -0.022000 -0.355500 1.278100
vn 1.000000 0.000000 0.000000
v -0.022000 -0.358500 1.278100
vn 1.000000 0.000000 0.000000
f 1213//1213 1214//1214 1215//1215
v -0.022000 -0.355500 1.213100
vn 1.000000 0.000000 0.000000
v -0.022000 -0.358500 1.278100
vn 1.000000 0.000000 0.000000
v -0.022000 -0.358500 1.213100
vn 1.000000 0.000000 0.000000
f 1216//1216 1217//1217 1218//1218
v -0.022000 -0.358500 1.213100
vn 0.000000 -1.000000 0.000000
v -0.022000 -0.358500 1.278100
vn 0.000000 -1.000000 0.000000
v -0.028000 -0.358500 1.278100
vn 0.000000 -1.000000 0.000000
f 1219//1219 1220//1220 1221//1221
v -0.022000 -0.358500 1.213100
vn 0.000000 -1.000000 0.000000
v -0.028000 -0.358500 1.278100
vn 0.000000 -1.000000 0.000000
v -0.028000 -0.358500 1.213100
vn 0.000000 -1.000000 0.000000
f 1222//1222 1223//1223 1224//1224
v -0.028000 -0.355500 1.213100
vn 0.000000 0.000000 -1.000000
v -0.022000 -0.355500 1.213100
vn 0.000000 0.000000 -1.000000
v -0.022000 -0.358500 1.213100
vn 0.000000 0.000000 -1.000000
f 1225//1225 1226//1226 1227//1227
v -0.028000 -0.355500 1.213100
vn 0.000000 0.000000 -1.000000
v -0.022000 -0.358500 1.213100
vn 0.000000 0.000000 -1.000000
v -0.028000 -0.358500 1.213100
vn 0.000000 0.000000 -1.000000
f 1228//1228 1229//1229 1230//1230
v -0.022000 -0.355500 1.278100
vn 0.000000 0.000000 1.000000
v -0.028000 -0.355500 1.278100
vn 0.000000 0.000000 1.000000
v -0.028000 -0.358500 1.278100
vn 0.000000 0.000000 1.000000
f 1231//1231 1232//1232 1233//1233
v -0.022000 -0.355500 1.278100
vn 0.000000 0.000000 1.000000
v -0.028000 -0.358500 1.278100
vn 0.000000 0.000000 1.000000
v -0.022000 -0.358500 1.278100
vn 0.000000 0.000000 1.000000
f 1234//1234 1235//1235 1236//1236
v -0.008000 -0.358500 1.213100
vn -1.000000 0.000000 0.000000
v -0.008000 -0.358500 1.278100
vn -1.000000 0.000000 0.000000
v -0.008000 -0.355500 1.278100
vn -1.000000 0.000000 0.000000
f 1237//1237 1238//1238 1239//1239
v -0.008000 -0.358500 1.213100
vn -1.000000 0.000000 0.000000
v -0.008000 -0.355500 1.278100
vn -1.000000 0.000000 0.000000
v -0.008000 -0.355500 1.213100
vn -1.000000 0.000000 0.000000
f 1240//1240 1241//1241 1242//1242
v -0.008000 -0.355500 1.213100
vn 0.000000 1.000000 0.000000
v -0.008000 -0.355500 1.278100
vn 0.000000 1.000000 0.000000
v -0.002000 -0.355500 1.278100
vn 0.000000 1.000000 0.000000
f 1243//1243 1244//1244 1245//1245
v -0.008000 -0.355500 1.213100
vn 0.000000 1.000000 0.000000
v -0.002000 -0.355500 1.278100
vn 0.000000 1.000000 0.000000
v -0.002000 -0.355500 1.213100
vn 0.000000 1.000000 0.000000
f 1246//1246 1247//1247 1248//1248
v -0.002000 -0.355500 1.213100
vn 1.000000 0.000000 0.000000
v -0.002000 -0.355500 1.278100
vn 1.000000 0.000000 0.000000
v -0.002000 -0.358500 1.278100
vn 1.000000 0.000000 0.000000
f 1249//1249 1250//1250 1251//1251
v -0.002000 -0.355500 1.213100
vn 1.000000 0.000000 0.000000
v -0.002000 -0.358500 1.278100
vn 1.000000 0.000000 0.000000
v -0.002000 -0.358500 1.213100
vn 1.000000 0.000000 0.000000
f 1252//1252 1253//1253 1254//1254
v -0.002000 -0.358500 1.213100
vn 0.000000 -1.000000 0.000000
v -0.002000 -0.358500 1.278100
vn 0.000000 -1.000000 0.000000
v -0.008000 -0.358500 1.278100
vn 0.000000 -1.000000 0.000000
f 1255//1255 1256//1256 1257//1257
v -0.002000 -0.358500 1.213100
vn 0.000000 -1.000000 0.000000
v -0.008000 -0.358500 1.278100
vn 0.000000 -1.000000 0.000000
v -0.008000 -0.358500 1.213100
vn 0.000000 -1.000000 0.000000
f 1258//1258 1259//1259 1260//1260
v -0.008000 -0.355500 1.213100
vn 0.000000 0.000000 -1.000000
v -0.002000 -0.355500 1.213100
vn 0.000000 0.000000 -1.000000
v -0.002000 -0.358500 1.213100
vn 0.000000 0.000000 -1.000000
f 1261//1261 1262//1262 1263//1263
v -0.008000 -0.355500 1.213100
vn 0.000000 0.000000 -1.000000
v -0.002000 -0.358500 1.213100
vn 0.000000 0.000000 -1.000000
v -0.008000 -0.358500 1.213100
vn 0.000000 0.000000 -1.000000
f 1264//1264 1265//1265 1266//1266
v -0.002000 -0.355500 1.278100
vn 0.000000 0.000000 1.000000
v -0.008000 -0.355500 1.278100
vn 0.000000 0.000000 1.000000
v -0.008000 -0.358500 1.278100
vn 0.000000 0.000000 1.000000
f 1267//1267 1268//1268 1269//1269
v -0.002000 -0.355500 1.278100
vn 0.000000 0.000000 1.000000
v -0.008000 -0.358500 1.278100
vn 0.000000 0.000000 1.000000
v -0.002000 -0.358500 1.278100
vn 0.000000 0.000000 1.000000
f 1270//1270 1271//1271 1272//1272
v 0.012000 -0.358500 1.213100
vn -1.000000 0.000000 0.000000
v 0.012000 -0.358500 1.278100
vn -1.000000 0.000000 0.000000
v 0.012000 -0.355500 1.278100
vn -1.000000 0.000000 0.000000
f 1273//1273 1274//1274 1275//1275
v 0.012000 -0.358500 1.213100
vn -1.000000 0.000000 0.000000
v 0.012000 -0.355500 1.278100
vn -1.000000 0.000000 0.000000
v 0.012000 -0.355500 1.213100
vn -1.000000 0.000000 0.000000
f 1276//1276 1277//1277 1278//1278
v 0.012000 -0.355500 1.213100
vn 0.000000 1.000000 0.000000
v 0.012000 -0.355500 1.278100
vn 0.000000 1.000000 0.000000
v 0.018000 -0.355500 1.278100
vn 0.000000 1.000000 0.000000
f 1279//1279 1280//1280 1281//1281
v 0.012000 -0.355500 1.213100
vn 0.000000 1.000000 0.000000
v 0.018000 -0.355500 1.278100
vn 0.000000 1.000000 0.000000
v 0.018000 -0.355500 1.213100
vn 0.000000 1.000000 0.000000
f 1282//1282 1283//1283 1284//1284
v 0.018000 -0.355500 1.213100
vn 1.000000 0.000000 0.000000
v 0.018000 -0.355500 1.278100
vn 1.000000 0.000000 0.000000
v 0.018000 -0.358500 1.278100
vn 1.000000 0.000000 0.000000
f 1285//1285 1286//1286 1287//1287
v 0.018000 -0.355500 1.213100
vn 1.000000 0.000000 0.000000
v 0.018000 -0.358500 1.278100
vn 1.000000 0.000000 0.000000
v 0.018000 -0.358500 1.213100
vn 1.000000 0.000000 0.000000
f 1288//1288 1289//1289 1290//1290
v 0.018000 -0.358500 1.213100
vn 0.000000 -1.000000 0.000000
v 0.018000 -0.358500 1.278100
vn 0.000000 -1.000000 0.000000
v 0.012000 -0.358500 1.278100
vn 0.000000 -1.000000 0.000000
f 1291//1291 1292//1292 1293//1293
v 0.018000 -0.358500 1.213100
vn 0.000000 -1.000000 0.000000
v 0.012000 -0.358500 1.278100
vn 0.000000 -1.000000 0.000000
v 0.012000 -0.358500 1.213100
vn 0.000000 -1.000000 0.000000
f 1294//1294 1295//1295 1296//1296
v 0.012000 -0.355500 1.213100
vn 0.000000 0.000000 -1.000000
v 0.018000 -0.355500 1.213100
vn 0.000000 0.000000 -1.000000
v 0.018000 -0.358500 1.213100
vn 0.000000 0.000000 -1.000000
f 1297//1297 1298//1298 1299//1299
v 0.012000 -0.355500 1.213100
vn 0.000000 0.000000 -1.000000
v 0.018000 -0.358500 1.213100
vn 0.000000 0.000000 -1.000000
v 0.012000 -0.358500 1.213100
vn 0.000000 0.000000 -1.000000
f 1300//1300 1301//1301 1302//1302
v 0.018000 -0.355500 1.278100
vn 0.000000 0.000000 1.000000
v 0.012000 -0.355500 1.278100
vn 0.000000 0.000000 1.000000
v 0.012000 -0.358500 1.278100
vn 0.000000 0.000000 1.000000
f 1303//1303 1304//1304 1305//1305
v 0.018000 -0.355500 1.278100
vn 0.000000 0.000000 1.000000
v 0.012000 -0.358500 1.278100
vn 0.000000 0.000000 1.000000
v 0.018000 -0.358500 1.278100
vn 0.000000 0.000000 1.000000
f 1306//1306 1307//1307 1308//1308
v 0.032000 -0.358500 1.213100
vn -1.000000 0.000000 0.000000
v 0.032000 -0.358500 1.278100
vn -1.000000 0.000000 0.000000
v 0.032000 -0.355500 1.278100
vn -1.000000 0.000000 0.000000
f 1309//1309 1310//1310 1311//1311
v 0.032000 -0.358500 1.213100
vn -1.000000 0.000000 0.000000
v 0.032000 -0.355500 1.278100
vn -1.000000 0.000000 0.000000
v 0.032000 -0.355500 1.213100
vn -1.000000 0.000000 0.000000
f 1312//1312 1313//1313 1314//1314
v 0.032000 -0.355500 1.213100
vn 0.000000 1.000000 0.000000
v 0.032000 -0.355500 1.278100
vn 0.000000 1.000000 0.000000
v 0.038000 -0.355500 1.278100
vn 0.000000 1.000000 0.000000
f 1315//1315 1316//1316 1317//1317
v 0.032000 -0.355500 1.213100
vn 0.000000 1.000000 0.000000
v 0.038000 -0.355500 1.278100
vn 0.000000 1.000000 0.000000
v 0.038000 -0.355500 1.213100
vn 0.000000 1.000000 0.000000
f 1318//1318 1319//1319 1320//1320
v 0.038000 -0.355500 1.213100
vn 1.000000 0.000000 0.000000
v 0.038000 -0.355500 1.278100
vn 1.000000 0.000000 0.000000
v 0.038000 -0.358500 1.278100
vn 1.000000 0.000000 0.000000
f 1321//1321 1322//1322 1323//1323
v 0.038000 -0.355500 1.213100
vn 1.000000 0.000000 0.000000
v 0.038000 -0.358500 1.278100
vn 1.000000 0.000000 0.000000
v 0.038000 -0.358500 1.213100
vn 1.000000 0.000000 0.000000
f 1324//1324 1325//1325 1326//1326
v 0.038000 -0.358500 1.213100
vn 0.000000 -1.000000 0.000000
v 0.038000 -0.358500 1.278100
vn 0.000000 -1.000000 0.000000
v 0.032000 -0.358500 1.278100
vn 0.000000 -1.000000 0.000000
f 1327//1327 1328//1328 1329//1329
v 0.038000 -0.358500 1.213100
vn 0.000000 -1.000000 0.000000
v 0.032000 -0.358500 1.278100
vn 0.000000 -1.000000 0.000000
v 0.032000 -0.358500 1.213100
vn 0.000000 -1.000000 0.000000
f 1330//1330 1331//1331 1332//1332
v 0.032000 -0.355500 1.213100
vn 0.000000 0.000000 -1.000000
v 0.038000 -0.355500 1.213100
vn 0.000000 0.000000 -1.000000
v 0.038000 -0.358500 1.213100
vn 0.000000 0.000000 -1.000000
f 1333//1333 1334//1334 1335//1335
v 0.032000 -0.355500 1.213100
vn 0.000000 0.000000 -1.000000
v 0.038000 -0.358500 1.213100
vn 0.000000 0.000000 -1.000000
v 0.032000 -0.358500 1.213100
vn 0.000000 0.000000 -1.000000
f 1336//1336 1337//1337 1338//1338
v 0.038000 -0.355500 1.278100
vn 0.000000 0.000000 1.000000
v 0.032000 -0.355500 1.278100
vn 0.000000 0.000000 1.000000
v 0.032000 -0.358500 1.278100
vn 0.000000 0.000000 1.000000
f 1339//1339 1340//1340 1341//1341
v 0.038000 -0.355500 1.278100
vn 0.000000 0.000000 1.000000
v 0.032000 -0.358500 1.278100
vn 0.000000 0.000000 1.000000
v 0.038000 -0.358500 1.278100
vn 0.000000 0.000000 1.000000
f 1342//1342 1343//1343 1344//1344
v 0.052000 -0.358500 1.213100
vn -1.000000 0.000000 0.000000
v 0.052000 -0.358500 1.278100
vn -1.000000 0.000000 0.000000
v 0.052000 -0.355500 1.278100
vn -1.000000 0.000000 0.000000
f 1345//1345 1346//1346 1347//1347
v 0.052000 -0.358500 1.213100
vn -1.000000 0.000000 0.000000
v 0.052000 -0.355500 1.278100
vn -1.000000 0.000000 0.000000
v 0.052000 -0.355500 1.213100
vn -1.000000 0.000000 0.000000
f 1348//1348 1349//1349 1350//1350
v 0.052000 -0.355500 1.213100
vn 0.000000 1.000000 0.000000
v 0.052000 -0.355500 1.278100
vn 0.000000 1.000000 0.000000
v 0.058000 -0.355500 1.278100
vn 0.000000 1.000000 0.000000
f 1351//1351 1352//1352 1353//1353
v 0.052000 -0.355500 1.213100
vn 0.000000 1.000000 0.000000
v 0.058000 -0.355500 1.278100
vn 0.000000 1.000000 0.000000
v 0.058000 -0.355500 1.213100
vn 0.000000 1.000000 0.000000
f 1354//1354 1355//1355 1356//1356
v 0.058000 -0.355500 1.213100
vn 1.000000 0.000000 0.000000
v 0.058000 -0.355500 1.278100
vn 1.000000 0.000000 0.000000
v 0.058000 -0.358500 1.278100
vn 1.000000 0.000000 0.000000
f 1357//1357 1358//1358 1359//1359
v 0.058000 -0.355500 1.213100
vn 1.000000 0.000000 0.000000
v 0.058000 -0.358500 1.278100
vn 1.000000 0.000000 0.000000
v 0.058000 -0.358500 1.213100
vn 1.000000 0.000000 0.000000
f 1360//1360 1361//1361 1362//1362
v 0.058000 -0.358500 1.213100
vn 0.000000 -1.000000 0.000000
v 0.058000 -0.358500 1.278100
vn 0.000000 -1.000000 0.000000
v 0.052000 -0.358500 1.278100
vn 0.000000 -1.000000 0.000000
f 1363//1363 1364//1364 1365//1365
v 0.058000 -0.358500 1.213100
vn 0.000000 -1.000000 0.000000
v 0.052000 -0.358500 1.278100
vn 0.000000 -1.000000 0.000000
v 0.052000 -0.358500 1.213100
vn 0.000000 -1.000000 0.000000
f 1366//1366 1367//1367 1368//1368
v 0.052000 -0.355500 1.213100
vn 0.000000 0.000000 -1.000000
v 0.058000 -0.355500 1.213100
vn 0.000000 0.000000 -1.000000
v 0.058000 -0.358500 1.213100
vn 0.000000 0.000000 -1.000000
f 1369//1369 1370//1370 1371//1371
v 0.052000 -0.355500 1.213100
vn 0.000000 0.000000 -1.000000
v 0.058000 -0.358500 1.213100
vn 0.000000 0.000000 -1.000000
v 0.052000 -0.358500 1.213100
vn 0.000000 0.000000 -1.000000
f 1372//1372 1373//1373 1374//1374
v 0.058000 -0.355500 1.278100
vn 0.000000 0.000000 1.000000
v 0.052000 -0.355500 1.278100
vn 0.000000 0.000000 1.000000
v 0.052000 -0.358500 1.278100
vn 0.000000 0.000000 1.000000
f 1375//1375 1376//1376 1377//1377
v 0.058000 -0.355500 1.278100
vn 0.000000 0.000000 1.000000
v 0.052000 -0.358500 1.278100
vn 0.000000 0.000000 1.000000
v 0.058000 -0.358500 1.278100
vn 0.000000 0.000000 1.000000
f 1378//1378 1379//1379 1380//1380
