# Kinesis original Blender geometry; meters, Z up
v 1.005000 -0.525000 0.937500
vn 0.000000 -1.000000 0.000000
v 1.005000 -0.525000 0.982500
vn 0.000000 -1.000000 0.000000
v -1.005000 -0.525000 0.982500
vn 0.000000 -1.000000 0.000000
f 1//1 2//2 3//3
v 1.005000 -0.525000 0.937500
vn 0.000000 -1.000000 0.000000
v -1.005000 -0.525000 0.982500
vn 0.000000 -1.000000 0.000000
v -1.005000 -0.525000 0.937500
vn 0.000000 -1.000000 0.000000
f 4//4 5//5 6//6
v 1.025000 0.505000 0.937500
vn 1.000000 0.000000 0.000000
v 1.025000 0.505000 0.982500
vn 1.000000 0.000000 0.000000
v 1.025000 -0.505000 0.982500
vn 1.000000 0.000000 0.000000
f 7//7 8//8 9//9
v 1.025000 0.505000 0.937500
vn 1.000000 0.000000 0.000000
v 1.025000 -0.505000 0.982500
vn 1.000000 0.000000 0.000000
v 1.025000 -0.505000 0.937500
vn 1.000000 0.000000 0.000000
f 10//10 11//11 12//12
v 1.005000 0.505000 1.002500
vn 0.000000 0.000000 1.000000
v -1.005000 0.505000 1.002500
vn 0.000000 0.000000 1.000000
v -1.005000 -0.505000 1.002500
vn 0.000000 0.000000 1.000000
f 13//13 14//14 15//15
v 1.005000 0.505000 1.002500
vn 0.000000 0.000000 1.000000
v -1.005000 -0.505000 1.002500
vn 0.000000 0.000000 1.000000
v 1.005000 -0.505000 1.002500
vn 0.000000 0.000000 1.000000
f 16//16 17//17 18//18
v -1.025000 -0.505000 0.937500
vn -1.000000 0.000000 0.000000
v -1.025000 -0.505000 0.982500
vn -1.000000 0.000000 0.000000
v -1.025000 0.505000 0.982500
vn -1.000000 0.000000 0.000000
f 19//19 20//20 21//21
v -1.025000 -0.505000 0.937500
vn -1.000000 0.000000 0.000000
v -1.025000 0.505000 0.982500
vn -1.000000 0.000000 0.000000
v -1.025000 0.505000 0.937500
vn -1.000000 0.000000 0.000000
f 22//22 23//23 24//24
v -1.005000 0.525000 0.937500
vn 0.000000 1.000000 0.000000
v -1.005000 0.525000 0.982500
vn 0.000000 1.000000 0.000000
v 1.005000 0.525000 0.982500
vn 0.000000 1.000000 0.000000
f 25//25 26//26 27//27
v -1.005000 0.525000 0.937500
vn 0.000000 1.000000 0.000000
v 1.005000 0.525000 0.982500
vn 0.000000 1.000000 0.000000
v 1.005000 0.525000 0.937500
vn 0.000000 1.000000 0.000000
f 28//28 29//29 30//30
v -1.005000 -0.505000 0.917500
vn -0.256599 -0.256599 -0.931834
v -1.005000 -0.514987 0.920172
vn -0.256599 -0.256599 -0.931834
v -1.014564 -0.514564 0.922767
vn -0.256599 -0.256599 -0.931834
f 31//31 32//32 33//33
v -1.005000 -0.505000 0.917500
vn -0.256599 -0.256599 -0.931834
v -1.014564 -0.514564 0.922767
vn -0.256599 -0.256599 -0.931834
v -1.014987 -0.505000 0.920172
vn -0.256599 -0.256599 -0.931834
f 34//34 35//35 36//36
v -1.005000 -0.514987 0.920172
vn -0.217776 -0.690133 -0.690138
v -1.005000 -0.522328 0.927513
vn -0.217776 -0.690133 -0.690138
v -1.014564 -0.519733 0.927936
vn -0.217776 -0.690133 -0.690138
f 37//37 38//38 39//39
v -1.005000 -0.514987 0.920172
vn -0.217776 -0.690133 -0.690138
v -1.014564 -0.519733 0.927936
vn -0.217776 -0.690133 -0.690138
v -1.014564 -0.514564 0.922767
vn -0.217776 -0.690133 -0.690138
f 40//40 41//41 42//42
v -1.005000 -0.525000 0.937500
vn -0.256594 -0.931837 -0.256593
v -1.014987 -0.522328 0.937500
vn -0.256594 -0.931837 -0.256593
v -1.014564 -0.519733 0.927936
vn -0.256594 -0.931837 -0.256593
f 43//43 44//44 45//45
v -1.005000 -0.525000 0.937500
vn -0.256594 -0.931837 -0.256593
v -1.014564 -0.519733 0.927936
vn -0.256594 -0.931837 -0.256593
v -1.005000 -0.522328 0.927513
vn -0.256594 -0.931837 -0.256593
f 46//46 47//47 48//48
v -1.014987 -0.522328 0.937500
vn -0.690141 -0.690130 -0.217776
v -1.022328 -0.514987 0.937500
vn -0.690141 -0.690130 -0.217776
v -1.019732 -0.514564 0.927936
vn -0.690141 -0.690130 -0.217776
f 49//49 50//50 51//51
v -1.014987 -0.522328 0.937500
vn -0.690141 -0.690130 -0.217776
v -1.019732 -0.514564 0.927936
vn -0.690141 -0.690130 -0.217776
v -1.014564 -0.519733 0.927936
vn -0.690141 -0.690130 -0.217776
f 52//52 53//53 54//54
v -1.025000 -0.505000 0.937500
vn -0.931831 -0.256607 -0.256602
v -1.022328 -0.505000 0.927513
vn -0.931831 -0.256607 -0.256602
v -1.019732 -0.514564 0.927936
vn -0.931831 -0.256607 -0.256602
f 55//55 56//56 57//57
v -1.025000 -0.505000 0.937500
vn -0.931831 -0.256607 -0.256602
v -1.019732 -0.514564 0.927936
vn -0.931831 -0.256607 -0.256602
v -1.022328 -0.514987 0.937500
vn -0.931831 -0.256607 -0.256602
f 58//58 59//59 60//60
v -1.022328 -0.505000 0.927513
vn -0.690140 -0.217774 -0.690131
v -1.014987 -0.505000 0.920172
vn -0.690140 -0.217774 -0.690131
v -1.014564 -0.514564 0.922767
vn -0.690140 -0.217774 -0.690131
f 61//61 62//62 63//63
v -1.022328 -0.505000 0.927513
vn -0.690140 -0.217774 -0.690131
v -1.014564 -0.514564 0.922767
vn -0.690140 -0.217774 -0.690131
v -1.019732 -0.514564 0.927936
vn -0.690140 -0.217774 -0.690131
f 64//64 65//65 66//66
v -1.014564 -0.514564 0.922767
vn -0.577364 -0.577334 -0.577354
v -1.014564 -0.519733 0.927936
vn -0.577364 -0.577334 -0.577354
v -1.019732 -0.514564 0.927936
vn -0.577364 -0.577334 -0.577354
f 67//67 68//68 69//69
v -1.005000 -0.525000 0.982500
vn -0.256594 -0.931837 0.256591
v -1.005000 -0.522328 0.992487
vn -0.256594 -0.931837 0.256591
v -1.014564 -0.519733 0.992064
vn -0.256594 -0.931837 0.256591
f 70//70 71//71 72//72
v -1.005000 -0.525000 0.982500
vn -0.256594 -0.931837 0.256591
v -1.014564 -0.519733 0.992064
vn -0.256594 -0.931837 0.256591
v -1.014987 -0.522328 0.982500
vn -0.256594 -0.931837 0.256591
f 73//73 74//74 75//75
v -1.005000 -0.522328 0.992487
vn -0.217776 -0.690133 0.690138
v -1.005000 -0.514987 0.999828
vn -0.217776 -0.690133 0.690138
v -1.014564 -0.514564 0.997233
vn -0.217776 -0.690133 0.690138
f 76//76 77//77 78//78
v -1.005000 -0.522328 0.992487
vn -0.217776 -0.690133 0.690138
v -1.014564 -0.514564 0.997233
vn -0.217776 -0.690133 0.690138
v -1.014564 -0.519733 0.992064
vn -0.217776 -0.690133 0.690138
f 79//79 80//80 81//81
v -1.005000 -0.505000 1.002500
vn -0.256600 -0.256600 0.931833
v -1.014987 -0.505000 0.999828
vn -0.256600 -0.256600 0.931833
v -1.014564 -0.514564 0.997233
vn -0.256600 -0.256600 0.931833
f 82//82 83//83 84//84
v -1.005000 -0.505000 1.002500
vn -0.256600 -0.256600 0.931833
v -1.014564 -0.514564 0.997233
vn -0.256600 -0.256600 0.931833
v -1.005000 -0.514987 0.999828
vn -0.256600 -0.256600 0.931833
f 85//85 86//86 87//87
v -1.014987 -0.505000 0.999828
vn -0.690137 -0.217784 0.690131
v -1.022328 -0.505000 0.992487
vn -0.690137 -0.217784 0.690131
v -1.019732 -0.514564 0.992064
vn -0.690137 -0.217784 0.690131
f 88//88 89//89 90//90
v -1.014987 -0.505000 0.999828
vn -0.690137 -0.217784 0.690131
v -1.019732 -0.514564 0.992064
vn -0.690137 -0.217784 0.690131
v -1.014564 -0.514564 0.997233
vn -0.690137 -0.217784 0.690131
f 91//91 92//92 93//93
v -1.025000 -0.505000 0.982500
vn -0.931830 -0.256608 0.256602
v -1.022328 -0.514987 0.982500
vn -0.931830 -0.256608 0.256602
v -1.019732 -0.514564 0.992064
vn -0.931830 -0.256608 0.256602
f 94//94 95//95 96//96
v -1.025000 -0.505000 0.982500
vn -0.931830 -0.256608 0.256602
v -1.019732 -0.514564 0.992064
vn -0.931830 -0.256608 0.256602
v -1.022328 -0.505000 0.992487
vn -0.931830 -0.256608 0.256602
f 97//97 98//98 99//99
v -1.022328 -0.514987 0.982500
vn -0.690141 -0.690130 0.217774
v -1.014987 -0.522328 0.982500
vn -0.690141 -0.690130 0.217774
v -1.014564 -0.519733 0.992064
vn -0.690141 -0.690130 0.217774
f 100//100 101//101 102//102
v -1.022328 -0.514987 0.982500
vn -0.690141 -0.690130 0.217774
v -1.014564 -0.519733 0.992064
vn -0.690141 -0.690130 0.217774
v -1.019732 -0.514564 0.992064
vn -0.690141 -0.690130 0.217774
f 103//103 104//104 105//105
v -1.014564 -0.519733 0.992064
vn -0.577364 -0.577334 0.577354
v -1.014564 -0.514564 0.997233
vn -0.577364 -0.577334 0.577354
v -1.019732 -0.514564 0.992064
vn -0.577364 -0.577334 0.577354
f 106//106 107//107 108//108
v -1.005000 0.505000 0.917500
vn -0.256600 0.256600 -0.931833
v -1.014987 0.505000 0.920172
vn -0.256600 0.256600 -0.931833
v -1.014564 0.514564 0.922767
vn -0.256600 0.256600 -0.931833
f 109//109 110//110 111//111
v -1.005000 0.505000 0.917500
vn -0.256600 0.256600 -0.931833
v -1.014564 0.514564 0.922767
vn -0.256600 0.256600 -0.931833
v -1.005000 0.514987 0.920172
vn -0.256600 0.256600 -0.931833
f 112//112 113//113 114//114
v -1.014987 0.505000 0.920172
vn -0.690137 0.217784 -0.690131
v -1.022328 0.505000 0.927513
vn -0.690137 0.217784 -0.690131
v -1.019732 0.514564 0.927936
vn -0.690137 0.217784 -0.690131
f 115//115 116//116 117//117
v -1.014987 0.505000 0.920172
vn -0.690137 0.217784 -0.690131
v -1.019732 0.514564 0.927936
vn -0.690137 0.217784 -0.690131
v -1.014564 0.514564 0.922767
vn -0.690137 0.217784 -0.690131
f 118//118 119//119 120//120
v -1.025000 0.505000 0.937500
vn -0.931830 0.256608 -0.256602
v -1.022328 0.514987 0.937500
vn -0.931830 0.256608 -0.256602
v -1.019732 0.514564 0.927936
vn -0.931830 0.256608 -0.256602
f 121//121 122//122 123//123
v -1.025000 0.505000 0.937500
vn -0.931830 0.256608 -0.256602
v -1.019732 0.514564 0.927936
vn -0.931830 0.256608 -0.256602
v -1.022328 0.505000 0.927513
vn -0.931830 0.256608 -0.256602
f 124//124 125//125 126//126
v -1.022328 0.514987 0.937500
vn -0.690141 0.690130 -0.217774
v -1.014987 0.522328 0.937500
vn -0.690141 0.690130 -0.217774
v -1.014564 0.519733 0.927936
vn -0.690141 0.690130 -0.217774
f 127//127 128//128 129//129
v -1.022328 0.514987 0.937500
vn -0.690141 0.690130 -0.217774
v -1.014564 0.519733 0.927936
vn -0.690141 0.690130 -0.217774
v -1.019732 0.514564 0.927936
vn -0.690141 0.690130 -0.217774
f 130//130 131//131 132//132
v -1.005000 0.525000 0.937500
vn -0.256594 0.931837 -0.256591
v -1.005000 0.522328 0.927513
vn -0.256594 0.931837 -0.256591
v -1.014564 0.519733 0.927936
vn -0.256594 0.931837 -0.256591
f 133//133 134//134 135//135
v -1.005000 0.525000 0.937500
vn -0.256594 0.931837 -0.256591
v -1.014564 0.519733 0.927936
vn -0.256594 0.931837 -0.256591
v -1.014987 0.522328 0.937500
vn -0.256594 0.931837 -0.256591
f 136//136 137//137 138//138
v -1.005000 0.522328 0.927513
vn -0.217776 0.690133 -0.690138
v -1.005000 0.514987 0.920172
vn -0.217776 0.690133 -0.690138
v -1.014564 0.514564 0.922767
vn -0.217776 0.690133 -0.690138
f 139//139 140//140 141//141
v -1.005000 0.522328 0.927513
vn -0.217776 0.690133 -0.690138
v -1.014564 0.514564 0.922767
vn -0.217776 0.690133 -0.690138
v -1.014564 0.519733 0.927936
vn -0.217776 0.690133 -0.690138
f 142//142 143//143 144//144
v -1.014564 0.514564 0.922767
vn -0.577364 0.577334 -0.577354
v -1.019732 0.514564 0.927936
vn -0.577364 0.577334 -0.577354
v -1.014564 0.519733 0.927936
vn -0.577364 0.577334 -0.577354
f 145//145 146//146 147//147
v -1.005000 0.505000 1.002500
vn -0.256599 0.256599 0.931834
v -1.005000 0.514987 0.999828
vn -0.256599 0.256599 0.931834
v -1.014564 0.514564 0.997233
vn -0.256599 0.256599 0.931834
f 148//148 149//149 150//150
v -1.005000 0.505000 1.002500
vn -0.256599 0.256599 0.931834
v -1.014564 0.514564 0.997233
vn -0.256599 0.256599 0.931834
v -1.014987 0.505000 0.999828
vn -0.256599 0.256599 0.931834
f 151//151 152//152 153//153
v -1.005000 0.514987 0.999828
vn -0.217776 0.690133 0.690138
v -1.005000 0.522328 0.992487
vn -0.217776 0.690133 0.690138
v -1.014564 0.519733 0.992064
vn -0.217776 0.690133 0.690138
f 154//154 155//155 156//156
v -1.005000 0.514987 0.999828
vn -0.217776 0.690133 0.690138
v -1.014564 0.519733 0.992064
vn -0.217776 0.690133 0.690138
v -1.014564 0.514564 0.997233
vn -0.217776 0.690133 0.690138
f 157//157 158//158 159//159
v -1.005000 0.525000 0.982500
vn -0.256594 0.931837 0.256593
v -1.014987 0.522328 0.982500
vn -0.256594 0.931837 0.256593
v -1.014564 0.519733 0.992064
vn -0.256594 0.931837 0.256593
f 160//160 161//161 162//162
v -1.005000 0.525000 0.982500
vn -0.256594 0.931837 0.256593
v -1.014564 0.519733 0.992064
vn -0.256594 0.931837 0.256593
v -1.005000 0.522328 0.992487
vn -0.256594 0.931837 0.256593
f 163//163 164//164 165//165
v -1.014987 0.522328 0.982500
vn -0.690141 0.690130 0.217776
v -1.022328 0.514987 0.982500
vn -0.690141 0.690130 0.217776
v -1.019732 0.514564 0.992064
vn -0.690141 0.690130 0.217776
f 166//166 167//167 168//168
v -1.014987 0.522328 0.982500
vn -0.690141 0.690130 0.217776
v -1.019732 0.514564 0.992064
vn -0.690141 0.690130 0.217776
v -1.014564 0.519733 0.992064
vn -0.690141 0.690130 0.217776
f 169//169 170//170 171//171
v -1.025000 0.505000 0.982500
vn -0.931831 0.256607 0.256602
v -1.022328 0.505000 0.992487
vn -0.931831 0.256607 0.256602
v -1.019732 0.514564 0.992064
vn -0.931831 0.256607 0.256602
f 172//172 173//173 174//174
v -1.025000 0.505000 0.982500
vn -0.931831 0.256607 0.256602
v -1.019732 0.514564 0.992064
vn -0.931831 0.256607 0.256602
v -1.022328 0.514987 0.982500
vn -0.931831 0.256607 0.256602
f 175//175 176//176 177//177
v -1.022328 0.505000 0.992487
vn -0.690140 0.217774 0.690131
v -1.014987 0.505000 0.999828
vn -0.690140 0.217774 0.690131
v -1.014564 0.514564 0.997233
vn -0.690140 0.217774 0.690131
f 178//178 179//179 180//180
v -1.022328 0.505000 0.992487
vn -0.690140 0.217774 0.690131
v -1.014564 0.514564 0.997233
vn -0.690140 0.217774 0.690131
v -1.019732 0.514564 0.992064
vn -0.690140 0.217774 0.690131
f 181//181 182//182 183//183
v -1.014564 0.514564 0.997233
vn -0.577364 0.577334 0.577354
v -1.014564 0.519733 0.992064
vn -0.577364 0.577334 0.577354
v -1.019732 0.514564 0.992064
vn -0.577364 0.577334 0.577354
f 184//184 185//185 186//186
v 1.005000 -0.505000 0.917500
vn 0.256600 -0.256600 -0.931833
v 1.014987 -0.505000 0.920172
vn 0.256600 -0.256600 -0.931833
v 1.014564 -0.514564 0.922767
vn 0.256600 -0.256600 -0.931833
f 187//187 188//188 189//189
v 1.005000 -0.505000 0.917500
vn 0.256600 -0.256600 -0.931833
v 1.014564 -0.514564 0.922767
vn 0.256600 -0.256600 -0.931833
v 1.005000 -0.514987 0.920172
vn 0.256600 -0.256600 -0.931833
f 190//190 191//191 192//192
v 1.014987 -0.505000 0.920172
vn 0.690137 -0.217784 -0.690131
v 1.022328 -0.505000 0.927513
vn 0.690137 -0.217784 -0.690131
v 1.019732 -0.514564 0.927936
vn 0.690137 -0.217784 -0.690131
f 193//193 194//194 195//195
v 1.014987 -0.505000 0.920172
vn 0.690137 -0.217784 -0.690131
v 1.019732 -0.514564 0.927936
vn 0.690137 -0.217784 -0.690131
v 1.014564 -0.514564 0.922767
vn 0.690137 -0.217784 -0.690131
f 196//196 197//197 198//198
v 1.025000 -0.505000 0.937500
vn 0.931830 -0.256608 -0.256602
v 1.022328 -0.514987 0.937500
vn 0.931830 -0.256608 -0.256602
v 1.019732 -0.514564 0.927936
vn 0.931830 -0.256608 -0.256602
f 199//199 200//200 201//201
v 1.025000 -0.505000 0.937500
vn 0.931830 -0.256608 -0.256602
v 1.019732 -0.514564 0.927936
vn 0.931830 -0.256608 -0.256602
v 1.022328 -0.505000 0.927513
vn 0.931830 -0.256608 -0.256602
f 202//202 203//203 204//204
v 1.022328 -0.514987 0.937500
vn 0.690141 -0.690130 -0.217774
v 1.014987 -0.522328 0.937500
vn 0.690141 -0.690130 -0.217774
v 1.014564 -0.519733 0.927936
vn 0.690141 -0.690130 -0.217774
f 205//205 206//206 207//207
v 1.022328 -0.514987 0.937500
vn 0.690141 -0.690130 -0.217774
v 1.014564 -0.519733 0.927936
vn 0.690141 -0.690130 -0.217774
v 1.019732 -0.514564 0.927936
vn 0.690141 -0.690130 -0.217774
f 208//208 209//209 210//210
v 1.005000 -0.525000 0.937500
vn 0.256594 -0.931837 -0.256591
v 1.005000 -0.522328 0.927513
vn 0.256594 -0.931837 -0.256591
v 1.014564 -0.519733 0.927936
vn 0.256594 -0.931837 -0.256591
f 211//211 212//212 213//213
v 1.005000 -0.525000 0.937500
vn 0.256594 -0.931837 -0.256591
v 1.014564 -0.519733 0.927936
vn 0.256594 -0.931837 -0.256591
v 1.014987 -0.522328 0.937500
vn 0.256594 -0.931837 -0.256591
f 214//214 215//215 216//216
v 1.005000 -0.522328 0.927513
vn 0.217776 -0.690133 -0.690138
v 1.005000 -0.514987 0.920172
vn 0.217776 -0.690133 -0.690138
v 1.014564 -0.514564 0.922767
vn 0.217776 -0.690133 -0.690138
f 217//217 218//218 219//219
v 1.005000 -0.522328 0.927513
vn 0.217776 -0.690133 -0.690138
v 1.014564 -0.514564 0.922767
vn 0.217776 -0.690133 -0.690138
v 1.014564 -0.519733 0.927936
vn 0.217776 -0.690133 -0.690138
f 220//220 221//221 222//222
v 1.014564 -0.514564 0.922767
vn 0.577364 -0.577334 -0.577354
v 1.019732 -0.514564 0.927936
vn 0.577364 -0.577334 -0.577354
v 1.014564 -0.519733 0.927936
vn 0.577364 -0.577334 -0.577354
f 223//223 224//224 225//225
v 1.005000 -0.505000 1.002500
vn 0.256599 -0.256599 0.931834
v 1.005000 -0.514987 0.999828
vn 0.256599 -0.256599 0.931834
v 1.014564 -0.514564 0.997233
vn 0.256599 -0.256599 0.931834
f 226//226 227//227 228//228
v 1.005000 -0.505000 1.002500
vn 0.256599 -0.256599 0.931834
v 1.014564 -0.514564 0.997233
vn 0.256599 -0.256599 0.931834
v 1.014987 -0.505000 0.999828
vn 0.256599 -0.256599 0.931834
f 229//229 230//230 231//231
v 1.005000 -0.514987 0.999828
vn 0.217776 -0.690133 0.690138
v 1.005000 -0.522328 0.992487
vn 0.217776 -0.690133 0.690138
v 1.014564 -0.519733 0.992064
vn 0.217776 -0.690133 0.690138
f 232//232 233//233 234//234
v 1.005000 -0.514987 0.999828
vn 0.217776 -0.690133 0.690138
v 1.014564 -0.519733 0.992064
vn 0.217776 -0.690133 0.690138
v 1.014564 -0.514564 0.997233
vn 0.217776 -0.690133 0.690138
f 235//235 236//236 237//237
v 1.005000 -0.525000 0.982500
vn 0.256594 -0.931837 0.256593
v 1.014987 -0.522328 0.982500
vn 0.256594 -0.931837 0.256593
v 1.014564 -0.519733 0.992064
vn 0.256594 -0.931837 0.256593
f 238//238 239//239 240//240
v 1.005000 -0.525000 0.982500
vn 0.256594 -0.931837 0.256593
v 1.014564 -0.519733 0.992064
vn 0.256594 -0.931837 0.256593
v 1.005000 -0.522328 0.992487
vn 0.256594 -0.931837 0.256593
f 241//241 242//242 243//243
v 1.014987 -0.522328 0.982500
vn 0.690141 -0.690130 0.217776
v 1.022328 -0.514987 0.982500
vn 0.690141 -0.690130 0.217776
v 1.019732 -0.514564 0.992064
vn 0.690141 -0.690130 0.217776
f 244//244 245//245 246//246
v 1.014987 -0.522328 0.982500
vn 0.690141 -0.690130 0.217776
v 1.019732 -0.514564 0.992064
vn 0.690141 -0.690130 0.217776
v 1.014564 -0.519733 0.992064
vn 0.690141 -0.690130 0.217776
f 247//247 248//248 249//249
v 1.025000 -0.505000 0.982500
vn 0.931831 -0.256607 0.256602
v 1.022328 -0.505000 0.992487
vn 0.931831 -0.256607 0.256602
v 1.019732 -0.514564 0.992064
vn 0.931831 -0.256607 0.256602
f 250//250 251//251 252//252
v 1.025000 -0.505000 0.982500
vn 0.931831 -0.256607 0.256602
v 1.019732 -0.514564 0.992064
vn 0.931831 -0.256607 0.256602
v 1.022328 -0.514987 0.982500
vn 0.931831 -0.256607 0.256602
f 253//253 254//254 255//255
v 1.022328 -0.505000 0.992487
vn 0.690140 -0.217774 0.690131
v 1.014987 -0.505000 0.999828
vn 0.690140 -0.217774 0.690131
v 1.014564 -0.514564 0.997233
vn 0.690140 -0.217774 0.690131
f 256//256 257//257 258//258
v 1.022328 -0.505000 0.992487
vn 0.690140 -0.217774 0.690131
v 1.014564 -0.514564 0.997233
vn 0.690140 -0.217774 0.690131
v 1.019732 -0.514564 0.992064
vn 0.690140 -0.217774 0.690131
f 259//259 260//260 261//261
v 1.014564 -0.514564 0.997233
vn 0.577364 -0.577334 0.577354
v 1.014564 -0.519733 0.992064
vn 0.577364 -0.577334 0.577354
v 1.019732 -0.514564 0.992064
vn 0.577364 -0.577334 0.577354
f 262//262 263//263 264//264
v 1.005000 0.505000 0.917500
vn 0.256599 0.256599 -0.931834
v 1.005000 0.514987 0.920172
vn 0.256599 0.256599 -0.931834
v 1.014564 0.514564 0.922767
vn 0.256599 0.256599 -0.931834
f 265//265 266//266 267//267
v 1.005000 0.505000 0.917500
vn 0.256599 0.256599 -0.931834
v 1.014564 0.514564 0.922767
vn 0.256599 0.256599 -0.931834
v 1.014987 0.505000 0.920172
vn 0.256599 0.256599 -0.931834
f 268//268 269//269 270//270
v 1.005000 0.514987 0.920172
vn 0.217776 0.690133 -0.690138
v 1.005000 0.522328 0.927513
vn 0.217776 0.690133 -0.690138
v 1.014564 0.519733 0.927936
vn 0.217776 0.690133 -0.690138
f 271//271 272//272 273//273
v 1.005000 0.514987 0.920172
vn 0.217776 0.690133 -0.690138
v 1.014564 0.519733 0.927936
vn 0.217776 0.690133 -0.690138
v 1.014564 0.514564 0.922767
vn 0.217776 0.690133 -0.690138
f 274//274 275//275 276//276
v 1.005000 0.525000 0.937500
vn 0.256594 0.931837 -0.256593
v 1.014987 0.522328 0.937500
vn 0.256594 0.931837 -0.256593
v 1.014564 0.519733 0.927936
vn 0.256594 0.931837 -0.256593
f 277//277 278//278 279//279
v 1.005000 0.525000 0.937500
vn 0.256594 0.931837 -0.256593
v 1.014564 0.519733 0.927936
vn 0.256594 0.931837 -0.256593
v 1.005000 0.522328 0.927513
vn 0.256594 0.931837 -0.256593
f 280//280 281//281 282//282
v 1.014987 0.522328 0.937500
vn 0.690141 0.690130 -0.217776
v 1.022328 0.514987 0.937500
vn 0.690141 0.690130 -0.217776
v 1.019732 0.514564 0.927936
vn 0.690141 0.690130 -0.217776
f 283//283 284//284 285//285
v 1.014987 0.522328 0.937500
vn 0.690141 0.690130 -0.217776
v 1.019732 0.514564 0.927936
vn 0.690141 0.690130 -0.217776
v 1.014564 0.519733 0.927936
vn 0.690141 0.690130 -0.217776
f 286//286 287//287 288//288
v 1.025000 0.505000 0.937500
vn 0.931831 0.256607 -0.256602
v 1.022328 0.505000 0.927513
vn 0.931831 0.256607 -0.256602
v 1.019732 0.514564 0.927936
vn 0.931831 0.256607 -0.256602
f 289//289 290//290 291//291
v 1.025000 0.505000 0.937500
vn 0.931831 0.256607 -0.256602
v 1.019732 0.514564 0.927936
vn 0.931831 0.256607 -0.256602
v 1.022328 0.514987 0.937500
vn 0.931831 0.256607 -0.256602
f 292//292 293//293 294//294
v 1.022328 0.505000 0.927513
vn 0.690140 0.217774 -0.690131
v 1.014987 0.505000 0.920172
vn 0.690140 0.217774 -0.690131
v 1.014564 0.514564 0.922767
vn 0.690140 0.217774 -0.690131
f 295//295 296//296 297//297
v 1.022328 0.505000 0.927513
vn 0.690140 0.217774 -0.690131
v 1.014564 0.514564 0.922767
vn 0.690140 0.217774 -0.690131
v 1.019732 0.514564 0.927936
vn 0.690140 0.217774 -0.690131
f 298//298 299//299 300//300
v 1.014564 0.514564 0.922767
vn 0.577364 0.577334 -0.577354
v 1.014564 0.519733 0.927936
vn 0.577364 0.577334 -0.577354
v 1.019732 0.514564 0.927936
vn 0.577364 0.577334 -0.577354
f 301//301 302//302 303//303
v 1.005000 0.505000 1.002500
vn 0.256600 0.256600 0.931833
v 1.014987 0.505000 0.999828
vn 0.256600 0.256600 0.931833
v 1.014564 0.514564 0.997233
vn 0.256600 0.256600 0.931833
f 304//304 305//305 306//306
v 1.005000 0.505000 1.002500
vn 0.256600 0.256600 0.931833
v 1.014564 0.514564 0.997233
vn 0.256600 0.256600 0.931833
v 1.005000 0.514987 0.999828
vn 0.256600 0.256600 0.931833
f 307//307 308//308 309//309
v 1.014987 0.505000 0.999828
vn 0.690137 0.217784 0.690131
v 1.022328 0.505000 0.992487
vn 0.690137 0.217784 0.690131
v 1.019732 0.514564 0.992064
vn 0.690137 0.217784 0.690131
f 310//310 311//311 312//312
v 1.014987 0.505000 0.999828
vn 0.690137 0.217784 0.690131
v 1.019732 0.514564 0.992064
vn 0.690137 0.217784 0.690131
v 1.014564 0.514564 0.997233
vn 0.690137 0.217784 0.690131
f 313//313 314//314 315//315
v 1.025000 0.505000 0.982500
vn 0.931830 0.256608 0.256602
v 1.022328 0.514987 0.982500
vn 0.931830 0.256608 0.256602
v 1.019732 0.514564 0.992064
vn 0.931830 0.256608 0.256602
f 316//316 317//317 318//318
v 1.025000 0.505000 0.982500
vn 0.931830 0.256608 0.256602
v 1.019732 0.514564 0.992064
vn 0.931830 0.256608 0.256602
v 1.022328 0.505000 0.992487
vn 0.931830 0.256608 0.256602
f 319//319 320//320 321//321
v 1.022328 0.514987 0.982500
vn 0.690141 0.690130 0.217774
v 1.014987 0.522328 0.982500
vn 0.690141 0.690130 0.217774
v 1.014564 0.519733 0.992064
vn 0.690141 0.690130 0.217774
f 322//322 323//323 324//324
v 1.022328 0.514987 0.982500
vn 0.690141 0.690130 0.217774
v 1.014564 0.519733 0.992064
vn 0.690141 0.690130 0.217774
v 1.019732 0.514564 0.992064
vn 0.690141 0.690130 0.217774
f 325//325 326//326 327//327
v 1.005000 0.525000 0.982500
vn 0.256594 0.931837 0.256591
v 1.005000 0.522328 0.992487
vn 0.256594 0.931837 0.256591
v 1.014564 0.519733 0.992064
vn 0.256594 0.931837 0.256591
f 328//328 329//329 330//330
v 1.005000 0.525000 0.982500
vn 0.256594 0.931837 0.256591
v 1.014564 0.519733 0.992064
vn 0.256594 0.931837 0.256591
v 1.014987 0.522328 0.982500
vn 0.256594 0.931837 0.256591
f 331//331 332//332 333//333
v 1.005000 0.522328 0.992487
vn 0.217776 0.690133 0.690138
v 1.005000 0.514987 0.999828
vn 0.217776 0.690133 0.690138
v 1.014564 0.514564 0.997233
vn 0.217776 0.690133 0.690138
f 334//334 335//335 336//336
v 1.005000 0.522328 0.992487
vn 0.217776 0.690133 0.690138
v 1.014564 0.514564 0.997233
vn 0.217776 0.690133 0.690138
v 1.014564 0.519733 0.992064
vn 0.217776 0.690133 0.690138
f 337//337 338//338 339//339
v 1.014564 0.514564 0.997233
vn 0.577364 0.577334 0.577354
v 1.019732 0.514564 0.992064
vn 0.577364 0.577334 0.577354
v 1.014564 0.519733 0.992064
vn 0.577364 0.577334 0.577354
f 340//340 341//341 342//342
v -1.005000 0.505000 0.917500
vn -0.258456 0.000000 -0.966023
v -1.005000 -0.505000 0.917500
vn -0.258456 0.000000 -0.966023
v -1.014987 -0.505000 0.920172
vn -0.258456 0.000000 -0.966023
f 343//343 344//344 345//345
v -1.005000 0.505000 0.917500
vn -0.258456 0.000000 -0.966023
v -1.014987 -0.505000 0.920172
vn -0.258456 0.000000 -0.966023
v -1.014987 0.505000 0.920172
vn -0.258456 0.000000 -0.966023
f 346//346 347//347 348//348
v -1.014987 0.505000 0.920172
vn -0.707109 0.000000 -0.707104
v -1.014987 -0.505000 0.920172
vn -0.707109 0.000000 -0.707104
v -1.022328 -0.505000 0.927513
vn -0.707109 0.000000 -0.707104
f 349//349 350//350 351//351
v -1.014987 0.505000 0.920172
vn -0.707109 0.000000 -0.707104
v -1.022328 -0.505000 0.927513
vn -0.707109 0.000000 -0.707104
v -1.022328 0.505000 0.927513
vn -0.707109 0.000000 -0.707104
f 352//352 353//353 354//354
v -1.022328 0.505000 0.927513
vn -0.966020 0.000000 -0.258467
v -1.022328 -0.505000 0.927513
vn -0.966020 0.000000 -0.258467
v -1.025000 -0.505000 0.937500
vn -0.966020 0.000000 -0.258467
f 355//355 356//356 357//357
v -1.022328 0.505000 0.927513
vn -0.966020 0.000000 -0.258467
v -1.025000 -0.505000 0.937500
vn -0.966020 0.000000 -0.258467
v -1.025000 0.505000 0.937500
vn -0.966020 0.000000 -0.258467
f 358//358 359//359 360//360
v -1.005000 -0.525000 0.937500
vn -0.258452 -0.966024 0.000000
v -1.005000 -0.525000 0.982500
vn -0.258452 -0.966024 0.000000
v -1.014987 -0.522328 0.982500
vn -0.258452 -0.966024 0.000000
f 361//361 362//362 363//363
v -1.005000 -0.525000 0.937500
vn -0.258452 -0.966024 0.000000
v -1.014987 -0.522328 0.982500
vn -0.258452 -0.966024 0.000000
v -1.014987 -0.522328 0.937500
vn -0.258452 -0.966024 0.000000
f 364//364 365//365 366//366
v -1.014987 -0.522328 0.937500
vn -0.707110 -0.707104 0.000000
v -1.014987 -0.522328 0.982500
vn -0.707110 -0.707104 0.000000
v -1.022328 -0.514987 0.982500
vn -0.707110 -0.707104 0.000000
f 367//367 368//368 369//369
v -1.014987 -0.522328 0.937500
vn -0.707110 -0.707104 0.000000
v -1.022328 -0.514987 0.982500
vn -0.707110 -0.707104 0.000000
v -1.022328 -0.514987 0.937500
vn -0.707110 -0.707104 0.000000
f 370//370 371//371 372//372
v -1.022328 -0.514987 0.937500
vn -0.966021 -0.258463 0.000000
v -1.022328 -0.514987 0.982500
vn -0.966021 -0.258463 0.000000
v -1.025000 -0.505000 0.982500
vn -0.966021 -0.258463 0.000000
f 373//373 374//374 375//375
v -1.022328 -0.514987 0.937500
vn -0.966021 -0.258463 0.000000
v -1.025000 -0.505000 0.982500
vn -0.966021 -0.258463 0.000000
v -1.025000 -0.505000 0.937500
vn -0.966021 -0.258463 0.000000
f 376//376 377//377 378//378
v -1.005000 -0.505000 1.002500
vn -0.258456 0.000000 0.966023
v -1.005000 0.505000 1.002500
vn -0.258456 0.000000 0.966023
v -1.014987 0.505000 0.999828
vn -0.258456 0.000000 0.966023
f 379//379 380//380 381//381
v -1.005000 -0.505000 1.002500
vn -0.258456 0.000000 0.966023
v -1.014987 0.505000 0.999828
vn -0.258456 0.000000 0.966023
v -1.014987 -0.505000 0.999828
vn -0.258456 0.000000 0.966023
f 382//382 383//383 384//384
v -1.014987 -0.505000 0.999828
vn -0.707109 0.000000 0.707104
v -1.014987 0.505000 0.999828
vn -0.707109 0.000000 0.707104
v -1.022328 0.505000 0.992487
vn -0.707109 0.000000 0.707104
f 385//385 386//386 387//387
v -1.014987 -0.505000 0.999828
vn -0.707109 0.000000 0.707104
v -1.022328 0.505000 0.992487
vn -0.707109 0.000000 0.707104
v -1.022328 -0.505000 0.992487
vn -0.707109 0.000000 0.707104
f 388//388 389//389 390//390
v -1.022328 -0.505000 0.992487
vn -0.966020 -0.000000 0.258467
v -1.022328 0.505000 0.992487
vn -0.966020 -0.000000 0.258467
v -1.025000 0.505000 0.982500
vn -0.966020 -0.000000 0.258467
f 391//391 392//392 393//393
v -1.022328 -0.505000 0.992487
vn -0.966020 -0.000000 0.258467
v -1.025000 0.505000 0.982500
vn -0.966020 -0.000000 0.258467
v -1.025000 -0.505000 0.982500
vn -0.966020 -0.000000 0.258467
f 394//394 395//395 396//396
v -1.005000 0.525000 0.982500
vn -0.258452 0.966024 0.000000
v -1.005000 0.525000 0.937500
vn -0.258452 0.966024 0.000000
v -1.014987 0.522328 0.937500
vn -0.258452 0.966024 0.000000
f 397//397 398//398 399//399
v -1.005000 0.525000 0.982500
vn -0.258452 0.966024 0.000000
v -1.014987 0.522328 0.937500
vn -0.258452 0.966024 0.000000
v -1.014987 0.522328 0.982500
vn -0.258452 0.966024 0.000000
f 400//400 401//401 402//402
v -1.014987 0.522328 0.982500
vn -0.707110 0.707104 0.000000
v -1.014987 0.522328 0.937500
vn -0.707110 0.707104 0.000000
v -1.022328 0.514987 0.937500
vn -0.707110 0.707104 0.000000
f 403//403 404//404 405//405
v -1.014987 0.522328 0.982500
vn -0.707110 0.707104 0.000000
v -1.022328 0.514987 0.937500
vn -0.707110 0.707104 0.000000
v -1.022328 0.514987 0.982500
vn -0.707110 0.707104 0.000000
f 406//406 407//407 408//408
v -1.022328 0.514987 0.982500
vn -0.966021 0.258463 0.000000
v -1.022328 0.514987 0.937500
vn -0.966021 0.258463 0.000000
v -1.025000 0.505000 0.937500
vn -0.966021 0.258463 0.000000
f 409//409 410//410 411//411
v -1.022328 0.514987 0.982500
vn -0.966021 0.258463 0.000000
v -1.025000 0.505000 0.937500
vn -0.966021 0.258463 0.000000
v -1.025000 0.505000 0.982500
vn -0.966021 0.258463 0.000000
f 412//412 413//413 414//414
v 1.005000 0.505000 0.917500
vn 0.000000 0.258452 -0.966024
v -1.005000 0.505000 0.917500
vn 0.000000 0.258452 -0.966024
v -1.005000 0.514987 0.920172
vn 0.000000 0.258452 -0.966024
f 415//415 416//416 417//417
v 1.005000 0.505000 0.917500
vn 0.000000 0.258452 -0.966024
v -1.005000 0.514987 0.920172
vn 0.000000 0.258452 -0.966024
v 1.005000 0.514987 0.920172
vn 0.000000 0.258452 -0.966024
f 418//418 419//419 420//420
v 1.005000 0.514987 0.920172
vn 0.000000 0.707106 -0.707108
v -1.005000 0.514987 0.920172
vn 0.000000 0.707106 -0.707108
v -1.005000 0.522328 0.927513
vn 0.000000 0.707106 -0.707108
f 421//421 422//422 423//423
v 1.005000 0.514987 0.920172
vn 0.000000 0.707106 -0.707108
v -1.005000 0.522328 0.927513
vn 0.000000 0.707106 -0.707108
v 1.005000 0.522328 0.927513
vn 0.000000 0.707106 -0.707108
f 424//424 425//425 426//426
v 1.005000 0.522328 0.927513
vn 0.000000 0.966026 -0.258445
v -1.005000 0.522328 0.927513
vn 0.000000 0.966026 -0.258445
v -1.005000 0.525000 0.937500
vn 0.000000 0.966026 -0.258445
f 427//427 428//428 429//429
v 1.005000 0.522328 0.927513
vn 0.000000 0.966026 -0.258445
v -1.005000 0.525000 0.937500
vn 0.000000 0.966026 -0.258445
v 1.005000 0.525000 0.937500
vn 0.000000 0.966026 -0.258445
f 430//430 431//431 432//432
v -1.005000 0.505000 1.002500
vn 0.000000 0.258452 0.966024
v 1.005000 0.505000 1.002500
vn 0.000000 0.258452 0.966024
v 1.005000 0.514987 0.999828
vn 0.000000 0.258452 0.966024
f 433//433 434//434 435//435
v -1.005000 0.505000 1.002500
vn 0.000000 0.258452 0.966024
v 1.005000 0.514987 0.999828
vn 0.000000 0.258452 0.966024
v -1.005000 0.514987 0.999828
vn 0.000000 0.258452 0.966024
f 436//436 437//437 438//438
v -1.005000 0.514987 0.999828
vn 0.000000 0.707106 0.707108
v 1.005000 0.514987 0.999828
vn 0.000000 0.707106 0.707108
v 1.005000 0.522328 0.992487
vn 0.000000 0.707106 0.707108
f 439//439 440//440 441//441
v -1.005000 0.514987 0.999828
vn 0.000000 0.707106 0.707108
v 1.005000 0.522328 0.992487
vn 0.000000 0.707106 0.707108
v -1.005000 0.522328 0.992487
vn 0.000000 0.707106 0.707108
f 442//442 443//443 444//444
v -1.005000 0.522328 0.992487
vn 0.000000 0.966026 0.258445
v 1.005000 0.522328 0.992487
vn 0.000000 0.966026 0.258445
v 1.005000 0.525000 0.982500
vn 0.000000 0.966026 0.258445
f 445//445 446//446 447//447
v -1.005000 0.522328 0.992487
vn 0.000000 0.966026 0.258445
v 1.005000 0.525000 0.982500
vn 0.000000 0.966026 0.258445
v -1.005000 0.525000 0.982500
vn 0.000000 0.966026 0.258445
f 448//448 449//449 450//450
v 1.025000 0.505000 0.982500
vn 0.966021 0.258463 0.000000
v 1.025000 0.505000 0.937500
vn 0.966021 0.258463 0.000000
v 1.022328 0.514987 0.937500
vn 0.966021 0.258463 0.000000
f 451//451 452//452 453//453
v 1.025000 0.505000 0.982500
vn 0.966021 0.258463 0.000000
v 1.022328 0.514987 0.937500
vn 0.966021 0.258463 0.000000
v 1.022328 0.514987 0.982500
vn 0.966021 0.258463 0.000000
f 454//454 455//455 456//456
v 1.022328 0.514987 0.982500
vn 0.707110 0.707104 0.000000
v 1.022328 0.514987 0.937500
vn 0.707110 0.707104 0.000000
v 1.014987 0.522328 0.937500
vn 0.707110 0.707104 0.000000
f 457//457 458//458 459//459
v 1.022328 0.514987 0.982500
vn 0.707110 0.707104 0.000000
v 1.014987 0.522328 0.937500
vn 0.707110 0.707104 0.000000
v 1.014987 0.522328 0.982500
vn 0.707110 0.707104 0.000000
f 460//460 461//461 462//462
v 1.014987 0.522328 0.982500
vn 0.258452 0.966024 0.000000
v 1.014987 0.522328 0.937500
vn 0.258452 0.966024 0.000000
v 1.005000 0.525000 0.937500
vn 0.258452 0.966024 0.000000
f 463//463 464//464 465//465
v 1.014987 0.522328 0.982500
vn 0.258452 0.966024 0.000000
v 1.005000 0.525000 0.937500
vn 0.258452 0.966024 0.000000
v 1.005000 0.525000 0.982500
vn 0.258452 0.966024 0.000000
f 466//466 467//467 468//468
v 1.005000 -0.505000 0.917500
vn 0.258456 0.000000 -0.966023
v 1.005000 0.505000 0.917500
vn 0.258456 0.000000 -0.966023
v 1.014987 0.505000 0.920172
vn 0.258456 0.000000 -0.966023
f 469//469 470//470 471//471
v 1.005000 -0.505000 0.917500
vn 0.258456 0.000000 -0.966023
v 1.014987 0.505000 0.920172
vn 0.258456 0.000000 -0.966023
v 1.014987 -0.505000 0.920172
vn 0.258456 0.000000 -0.966023
f 472//472 473//473 474//474
v 1.014987 -0.505000 0.920172
vn 0.707109 0.000000 -0.707104
v 1.014987 0.505000 0.920172
vn 0.707109 0.000000 -0.707104
v 1.022328 0.505000 0.927513
vn 0.707109 0.000000 -0.707104
f 475//475 476//476 477//477
v 1.014987 -0.505000 0.920172
vn 0.707109 0.000000 -0.707104
v 1.022328 0.505000 0.927513
vn 0.707109 0.000000 -0.707104
v 1.022328 -0.505000 0.927513
vn 0.707109 0.000000 -0.707104
f 478//478 479//479 480//480
v 1.022328 -0.505000 0.927513
vn 0.966020 -0.000000 -0.258467
v 1.022328 0.505000 0.927513
vn 0.966020 -0.000000 -0.258467
v 1.025000 0.505000 0.937500
vn 0.966020 -0.000000 -0.258467
f 481//481 482//482 483//483
v 1.022328 -0.505000 0.927513
vn 0.966020 -0.000000 -0.258467
v 1.025000 0.505000 0.937500
vn 0.966020 -0.000000 -0.258467
v 1.025000 -0.505000 0.937500
vn 0.966020 -0.000000 -0.258467
f 484//484 485//485 486//486
v 1.005000 0.505000 1.002500
vn 0.258456 0.000000 0.966023
v 1.005000 -0.505000 1.002500
vn 0.258456 0.000000 0.966023
v 1.014987 -0.505000 0.999828
vn 0.258456 0.000000 0.966023
f 487//487 488//488 489//489
v 1.005000 0.505000 1.002500
vn 0.258456 0.000000 0.966023
v 1.014987 -0.505000 0.999828
vn 0.258456 0.000000 0.966023
v 1.014987 0.505000 0.999828
vn 0.258456 0.000000 0.966023
f 490//490 491//491 492//492
v 1.014987 0.505000 0.999828
vn 0.707109 0.000000 0.707104
v 1.014987 -0.505000 0.999828
vn 0.707109 0.000000 0.707104
v 1.022328 -0.505000 0.992487
vn 0.707109 0.000000 0.707104
f 493//493 494//494 495//495
v 1.014987 0.505000 0.999828
vn 0.707109 0.000000 0.707104
v 1.022328 -0.505000 0.992487
vn 0.707109 0.000000 0.707104
v 1.022328 0.505000 0.992487
vn 0.707109 0.000000 0.707104
f 496//496 497//497 498//498
v 1.022328 0.505000 0.992487
vn 0.966020 0.000000 0.258467
v 1.022328 -0.505000 0.992487
vn 0.966020 0.000000 0.258467
v 1.025000 -0.505000 0.982500
vn 0.966020 0.000000 0.258467
f 499//499 500//500 501//501
v 1.022328 0.505000 0.992487
vn 0.966020 0.000000 0.258467
v 1.025000 -0.505000 0.982500
vn 0.966020 0.000000 0.258467
v 1.025000 0.505000 0.982500
vn 0.966020 0.000000 0.258467
f 502//502 503//503 504//504
v 1.005000 -0.525000 0.982500
vn 0.258452 -0.966024 0.000000
v 1.005000 -0.525000 0.937500
vn 0.258452 -0.966024 0.000000
v 1.014987 -0.522328 0.937500
vn 0.258452 -0.966024 0.000000
f 505//505 506//506 507//507
v 1.005000 -0.525000 0.982500
vn 0.258452 -0.966024 0.000000
v 1.014987 -0.522328 0.937500
vn 0.258452 -0.966024 0.000000
v 1.014987 -0.522328 0.982500
vn 0.258452 -0.966024 0.000000
f 508//508 509//509 510//510
v 1.014987 -0.522328 0.982500
vn 0.707110 -0.707104 0.000000
v 1.014987 -0.522328 0.937500
vn 0.707110 -0.707104 0.000000
v 1.022328 -0.514987 0.937500
vn 0.707110 -0.707104 0.000000
f 511//511 512//512 513//513
v 1.014987 -0.522328 0.982500
vn 0.707110 -0.707104 0.000000
v 1.022328 -0.514987 0.937500
vn 0.707110 -0.707104 0.000000
v 1.022328 -0.514987 0.982500
vn 0.707110 -0.707104 0.000000
f 514//514 515//515 516//516
v 1.022328 -0.514987 0.982500
vn 0.966021 -0.258463 0.000000
v 1.022328 -0.514987 0.937500
vn 0.966021 -0.258463 0.000000
v 1.025000 -0.505000 0.937500
vn 0.966021 -0.258463 0.000000
f 517//517 518//518 519//519
v 1.022328 -0.514987 0.982500
vn 0.966021 -0.258463 0.000000
v 1.025000 -0.505000 0.937500
vn 0.966021 -0.258463 0.000000
v 1.025000 -0.505000 0.982500
vn 0.966021 -0.258463 0.000000
f 520//520 521//521 522//522
v -1.005000 -0.505000 0.917500
vn 0.000000 -0.258452 -0.966024
v 1.005000 -0.505000 0.917500
vn 0.000000 -0.258452 -0.966024
v 1.005000 -0.514987 0.920172
vn 0.000000 -0.258452 -0.966024
f 523//523 524//524 525//525
v -1.005000 -0.505000 0.917500
vn 0.000000 -0.258452 -0.966024
v 1.005000 -0.514987 0.920172
vn 0.000000 -0.258452 -0.966024
v -1.005000 -0.514987 0.920172
vn 0.000000 -0.258452 -0.966024
f 526//526 527//527 528//528
v -1.005000 -0.514987 0.920172
vn 0.000000 -0.707106 -0.707108
v 1.005000 -0.514987 0.920172
vn 0.000000 -0.707106 -0.707108
v 1.005000 -0.522328 0.927513
vn 0.000000 -0.707106 -0.707108
f 529//529 530//530 531//531
v -1.005000 -0.514987 0.920172
vn 0.000000 -0.707106 -0.707108
v 1.005000 -0.522328 0.927513
vn 0.000000 -0.707106 -0.707108
v -1.005000 -0.522328 0.927513
vn 0.000000 -0.707106 -0.707108
f 532//532 533//533 534//534
v -1.005000 -0.522328 0.927513
vn 0.000000 -0.966026 -0.258445
v 1.005000 -0.522328 0.927513
vn 0.000000 -0.966026 -0.258445
v 1.005000 -0.525000 0.937500
vn 0.000000 -0.966026 -0.258445
f 535//535 536//536 537//537
v -1.005000 -0.522328 0.927513
vn 0.000000 -0.966026 -0.258445
v 1.005000 -0.525000 0.937500
vn 0.000000 -0.966026 -0.258445
v -1.005000 -0.525000 0.937500
vn 0.000000 -0.966026 -0.258445
f 538//538 539//539 540//540
v 1.005000 -0.505000 1.002500
vn 0.000000 -0.258452 0.966024
v -1.005000 -0.505000 1.002500
vn 0.000000 -0.258452 0.966024
v -1.005000 -0.514987 0.999828
vn 0.000000 -0.258452 0.966024
f 541//541 542//542 543//543
v 1.005000 -0.505000 1.002500
vn 0.000000 -0.258452 0.966024
v -1.005000 -0.514987 0.999828
vn 0.000000 -0.258452 0.966024
v 1.005000 -0.514987 0.999828
vn 0.000000 -0.258452 0.966024
f 544//544 545//545 546//546
v 1.005000 -0.514987 0.999828
vn 0.000000 -0.707106 0.707108
v -1.005000 -0.514987 0.999828
vn 0.000000 -0.707106 0.707108
v -1.005000 -0.522328 0.992487
vn 0.000000 -0.707106 0.707108
f 547//547 548//548 549//549
v 1.005000 -0.514987 0.999828
vn 0.000000 -0.707106 0.707108
v -1.005000 -0.522328 0.992487
vn 0.000000 -0.707106 0.707108
v 1.005000 -0.522328 0.992487
vn 0.000000 -0.707106 0.707108
f 550//550 551//551 552//552
v 1.005000 -0.522328 0.992487
vn 0.000000 -0.966026 0.258445
v -1.005000 -0.522328 0.992487
vn 0.000000 -0.966026 0.258445
v -1.005000 -0.525000 0.982500
vn 0.000000 -0.966026 0.258445
f 553//553 554//554 555//555
v 1.005000 -0.522328 0.992487
vn 0.000000 -0.966026 0.258445
v -1.005000 -0.525000 0.982500
vn 0.000000 -0.966026 0.258445
v 1.005000 -0.525000 0.982500
vn 0.000000 -0.966026 0.258445
f 556//556 557//557 558//558
v -1.005000 0.505000 0.917500
vn 0.000000 0.000000 -1.000000
v 1.005000 0.505000 0.917500
vn 0.000000 0.000000 -1.000000
v 1.005000 -0.505000 0.917500
vn 0.000000 0.000000 -1.000000
f 559//559 560//560 561//561
v -1.005000 0.505000 0.917500
vn 0.000000 0.000000 -1.000000
v 1.005000 -0.505000 0.917500
vn 0.000000 0.000000 -1.000000
v -1.005000 -0.505000 0.917500
vn 0.000000 0.000000 -1.000000
f 562//562 563//563 564//564
